<?xml version="1.0" encoding="UTF-8" standalone="no"?>
<!-- Created with Inkscape (http://www.inkscape.org/) -->

<svg
   xmlns:dc="http://purl.org/dc/elements/1.1/"
   xmlns:cc="http://creativecommons.org/ns#"
   xmlns:rdf="http://www.w3.org/1999/02/22-rdf-syntax-ns#"
   xmlns:svg="http://www.w3.org/2000/svg"
   xmlns="http://www.w3.org/2000/svg"
   xmlns:sodipodi="http://sodipodi.sourceforge.net/DTD/sodipodi-0.dtd"
   xmlns:inkscape="http://www.inkscape.org/namespaces/inkscape"
   width="202.55498mm"
   height="160.00198mm"
   viewBox="0 0 202.55498 160.00198"
   version="1.1"
   id="svg481"
   inkscape:version="0.92.4 5da689c313, 2019-01-14"
   sodipodi:docname="extended-curves-on-sphere-svg.svg">
  <defs
     id="defs475" />
  <sodipodi:namedview
     id="base"
     pagecolor="#ffffff"
     bordercolor="#666666"
     borderopacity="1.0"
     inkscape:pageopacity="0.0"
     inkscape:pageshadow="2"
     inkscape:zoom="1.4"
     inkscape:cx="118.26621"
     inkscape:cy="348.18901"
     inkscape:document-units="mm"
     inkscape:current-layer="layer1"
     showgrid="false"
     inkscape:window-width="2870"
     inkscape:window-height="1746"
     inkscape:window-x="3"
     inkscape:window-y="47"
     inkscape:window-maximized="1" />
  <metadata
     id="metadata478">
    <rdf:RDF>
      <cc:Work
         rdf:about="">
        <dc:format>image/svg+xml</dc:format>
        <dc:type
           rdf:resource="http://purl.org/dc/dcmitype/StillImage" />
        <dc:title></dc:title>
      </cc:Work>
    </rdf:RDF>
  </metadata>
  <g
     inkscape:label="Layer 1"
     inkscape:groupmode="layer"
     id="layer1"
     transform="translate(-9.9652484,-93.022815)">
    <path
       id="path4235"
       d="m 116.27578,209.27669 c -0.75672,-3.6463 -7.2585,-11.64001 -9.17816,-17.80078 -0.96686,-3.21949 -1.6509,-7.79351 1.72825,-9.83294 2.9433,-1.02712 5.98401,0.96973 8.12964,2.86584 3.91904,3.43545 6.8825,8.6834 12.42111,9.66072 3.89486,0.80869 9.18209,-0.12156 10.5989,-4.39156 1.4378,-3.80956 -3.51379,-4.71399 -4.96565,-7.29459 -0.76988,-3.37773 3.8216,-3.86021 5.50727,-5.90111 2.67188,-2.40709 1.70394,-6.20562 1.25563,-9.29777 -0.59126,-3.29132 -3.33359,-6.94913 -7.05089,-6.27635 -6.79826,1.02836 -9.74798,8.4468 -15.87336,10.81465 -2.71021,1.2272 -6.7347,0.612 -8.01663,-2.33568 -1.31865,-3.9312 3.98042,-3.79186 5.24483,-7.00505 1.85143,-3.54979 -0.77165,-7.48019 -4.02766,-9.0347 -3.13505,-1.24118 -6.1426,-4.30202 -5.21407,-7.94148 1.00155,-4.40951 5.5953,-6.20012 8.76727,-8.79775 2.0543,-1.91174 -0.59075,-5.69041 0.62182,-7.27176 1.68198,-1.57146 6.6393,1.60476 8.86248,1.73153 2.42558,0.25914 4.24524,-1.15996 5.74431,0.91304 2.19277,2.36129 4.66043,4.96519 8.06543,5.29555 2.22069,0.11895 4.06789,0.33887 6.75749,0.008 3.91096,-0.65126 5.90572,-2.49129 8.87126,-4.95437 2.28504,-2.07699 3.91918,-5.94943 4.21752,-8.21504 1.14282,-5.55266 -1.1899,-13.74978 -1.30958,-19.3962 m 0,0 c -0.0266,-3.12167 1.45771,-4.876614 -0.20063,-5.816653 -2.30701,-1.185229 -4.78291,-0.600491 -6.74818,1.724123 m 0,0 c -2.80918,3.37925 8.08438,18.16579 4.43777,23.66914 -1.21819,1.78967 -1.46492,2.26265 -3.39355,3.79326 -2.01977,1.60295 -5.7403,3.62401 -8.97634,3.35001 -1.99992,-0.24059 -10.98406,-3.16691 -17.01819,-7.76521 -6.03412,-4.5983 -9.11822,-12.33855 -9.47431,-13.65436 -0.95605,-2.61579 -0.51354,-5.422 -0.70077,-8.13682 -0.0348,-1.06291 0.44523,-1.65311 1.53204,-1.46394"
       style="fill:none;stroke:#000000;stroke-width:0.26458332px;stroke-linecap:butt;stroke-linejoin:miter;stroke-opacity:1"
       inkscape:connector-curvature="0"
       sodipodi:nodetypes="cccccccccccccccccccccccccccccscsccc" />
    <path
       id="path4248"
       d="m 75.660217,173.02381 c 2.477277,-0.90444 6.115987,-1.74917 7.828463,0.90554 2.495104,5.06681 -0.1695,10.637 1.431873,16.12775 0.473092,2.81003 4.896252,2.79495 6.961791,2.97114 3.03586,-0.002 2.820396,2.77688 1.882484,4.74685 -1.156219,3.3738 1.370289,5.7465 3.265394,7.87479 1.969705,1.76066 5.539768,3.48913 8.332938,2.60998 2.3581,-0.9012 2.05926,-3.75026 1.29339,-5.7262 -0.59018,-2.53912 -3.00467,-4.44073 -4.10434,-6.86273 -1.37075,-2.21533 -1.90945,-4.80134 -1.91725,-7.37399 -0.30938,-2.18406 -2.110529,-4.63272 -0.48022,-6.68331 1.67736,-1.52802 4.6293,-1.53164 5.52103,-4.00768 1.07613,-3.32182 -2.96624,-4.69265 -5.57177,-4.54063 -2.575606,-0.13054 -5.362348,0.24706 -6.634043,2.82849 -1.993266,1.89181 -3.684481,-1.50743 -4.690833,-2.92177 -1.280958,-1.97133 -2.006003,-5.1738 0.298677,-6.7176 2.661025,-2.08391 6.394488,-1.75298 9.696947,-0.1276 2.934972,1.36863 4.775612,4.18765 7.001362,6.40659 1.90849,2.438 4.65643,4.05404 7.48809,5.20344 4.34969,1.39729 7.33372,0.0908 10.83627,1.18407 2.82138,0.7161 5.66019,4.60389 8.68564,3.90889"
       style="fill:none;stroke:#000000;stroke-width:0.26458332px;stroke-linecap:butt;stroke-linejoin:miter;stroke-opacity:1"
       inkscape:connector-curvature="0" />
    <path
       id="path4250"
       d="m 137.00222,181.80776 c 1.81382,-0.76259 4.45779,-2.45085 6.45374,-3.0048 1.57832,-0.2251 3.53838,0.49456 4.85803,-0.41679 1.58984,-1.1513 2.90142,-2.62204 4.41338,-3.86596 0.78706,-0.8068 1.80933,-1.60288 3.00686,-1.47205 l -0.0384,-0.0128 -0.0346,-0.0115"
       style="fill:none;stroke:#000000;stroke-width:0.26458332px;stroke-linecap:butt;stroke-linejoin:miter;stroke-opacity:1"
       inkscape:connector-curvature="0" />
    <path
       style="fill:none;stroke:#000000;stroke-width:0.26458332px;stroke-linecap:butt;stroke-linejoin:miter;stroke-opacity:1"
       d="m 75.660217,173.02381 c -7.097528,1.93356 -3.979604,7.52474 -1.850463,13.23949 2.413789,5.12769 -0.282472,11.93948 -6.636768,12.30546 -8.971551,0.80359 -1.588521,-8.91323 -3.812195,-14.75464 -2.426041,-6.32681 -6.600302,-15.10154 -2.386615,-19.49297 4.877574,-5.09945 10.195315,-3.71369 13.352264,-8.82004 2.138588,-4.03396 3.256872,-12.34296 -3.589627,-9.73619 -7.59602,1.90707 -12.759214,-3.59656 -15.202335,-7.57604 -1.546162,-2.81258 -3.571667,-9.29765 -4.302963,-12.80349 m 0,0 c -0.731296,-3.50584 -1.972451,-10.58055 -3.152627,-13.50335 -2.450435,-5.27595 -8.774797,-8.57655 -15.071875,-9.23735 -6.280157,-0.72399 -12.787038,-0.26742 -17.421223,5.44899 -4.426808,4.98154 -6.5391706,14.92067 -4.972739,20.09158 1.758368,4.58564 6.861423,9.98184 13.620408,13.06386 6.679821,2.51755 10.589745,8.40181 13.802537,13.80282 m 0,0 c 2.092175,3.65564 5.896202,9.87698 5.379917,23.69729 -0.516285,13.8203 -5.901066,3.26239 -6.46597,1.74841 -0.770746,-2.53924 -0.534539,-2.47225 -1.290228,-7.47383"
       id="path5385"
       inkscape:connector-curvature="0"
       sodipodi:nodetypes="cccccccccccccccccccc" />
    <path
       style="fill:none;stroke:#000000;stroke-width:0.26458332px;stroke-linecap:butt;stroke-linejoin:miter;stroke-opacity:1"
       d="m 155.73423,173.04816 c 3.93532,-0.46937 8.31133,0.4542 8.05443,-5.03867 0.18955,-4.9534 -1.02306,-10.4091 2.35273,-14.62021 4.40078,-6.76865 13.70228,-12.36559 19.08563,-18.27404 m 0,0 c 4.18674,-4.34637 7.92007,-4.67592 13.7615,-5.8634 3.23018,-0.72181 6.54705,-0.85138 9.82503,-0.41744 6.72258,2.79315 2.94244,9.46721 -2.93996,8.95353 -7.63257,0.0647 -11.335,0.62895 -16.99802,3.11027 m 0,0 c -5.50133,2.2544 -7.13932,13.58756 -1.07297,14.36641 0.59192,0.076 1.2572,0.0515 1.9994,-0.0917 1.24544,-0.1618 1.5101,-0.47692 2.95935,-1.26326 m 0,0 c 1.44925,-0.78634 4.13035,-2.6345 5.58541,-3.30781 1.45506,-0.67332 2.87534,-1.12344 4.18544,-1.01702 1.31011,0.10642 2.51004,0.76939 3.52443,2.32225 3.31204,7.48286 -5.11057,10.33939 -11.12567,11.09004 m 0,0 c -6.39764,1.50356 -13.27677,0.50316 -17.91185,5.06742 -4.25551,4.50416 -5.60723,11.38861 -6.87103,17.38555 -1.32937,8.34329 7.70942,8.94212 8.7313,15.94801 0.8689,4.68798 -0.98248,9.62497 -5.42843,10.66322 -6.4878,1.05319 -7.15848,-5.55978 -7.73268,-10.05373 -0.54576,-6.75979 -6.69136,-6.82423 -6.88411,-0.79577 -0.29212,6.32735 1.90846,12.19898 6.78421,16.95781 3.54064,3.59988 8.22058,5.15328 11.28033,0.92744 3.65027,-6.56102 9.27142,-12.8143 9.19695,-20.77263 0.72615,-7.98045 0.45225,-17.44481 6.96096,-23.21596 0.84211,-0.48418 2.17237,-1.61469 2.6051,-2.08471"
       id="path5405"
       inkscape:connector-curvature="0"
       sodipodi:nodetypes="ccccccccccscccsscccccccccccccc" />
    <path
       style="fill:none;stroke:#000000;stroke-width:0.26458332px;stroke-linecap:butt;stroke-linejoin:miter;stroke-opacity:1"
       d="m 116.27578,209.27669 c 0.67121,2.37986 1.93111,3.99441 2.94938,6.31049 1.59582,3.40978 2.91084,7.08348 2.72912,10.8227 0.0988,2.94262 -1.62738,5.37481 -3.39684,7.61632 -2.10545,2.78778 -2.73506,8.10136 -3.14768,11.38114"
       id="path5414"
       inkscape:connector-curvature="0"
       sodipodi:nodetypes="ccccc" />
  </g>
</svg>
