<?xml version="1.0" encoding="UTF-8" standalone="no"?>
<!-- Created with Inkscape (http://www.inkscape.org/) -->

<svg
   xmlns:dc="http://purl.org/dc/elements/1.1/"
   xmlns:cc="http://creativecommons.org/ns#"
   xmlns:rdf="http://www.w3.org/1999/02/22-rdf-syntax-ns#"
   xmlns:svg="http://www.w3.org/2000/svg"
   xmlns="http://www.w3.org/2000/svg"
   xmlns:sodipodi="http://sodipodi.sourceforge.net/DTD/sodipodi-0.dtd"
   xmlns:inkscape="http://www.inkscape.org/namespaces/inkscape"
   version="1.1"
   id="svg29"
   xml:space="preserve"
   width="901.03467"
   height="630.18402"
   viewBox="0 0 901.03467 630.18402"
   sodipodi:docname="extended-curves-on-cylinder-svg.svg"
   inkscape:version="0.92.4 5da689c313, 2019-01-14"><metadata
     id="metadata35"><rdf:RDF><cc:Work
         rdf:about=""><dc:format>image/svg+xml</dc:format><dc:type
           rdf:resource="http://purl.org/dc/dcmitype/StillImage" /><dc:title></dc:title></cc:Work></rdf:RDF></metadata><defs
     id="defs33" /><sodipodi:namedview
     pagecolor="#ffffff"
     bordercolor="#666666"
     borderopacity="1"
     objecttolerance="10"
     gridtolerance="10"
     guidetolerance="10"
     inkscape:pageopacity="0"
     inkscape:pageshadow="2"
     inkscape:window-width="952"
     inkscape:window-height="1026"
     id="namedview31"
     showgrid="false"
     inkscape:zoom="0.67678644"
     inkscape:cx="455.53381"
     inkscape:cy="351.23235"
     inkscape:window-x="961"
     inkscape:window-y="47"
     inkscape:window-maximized="1"
     inkscape:current-layer="g37" /><g
     id="g37"
     inkscape:groupmode="layer"
     inkscape:label="cylinder"
     transform="matrix(1.3333333,0,0,-1.3333333,0,630.184)"><path
       style="fill:none;stroke:#000000;stroke-width:0.75px;stroke-linecap:butt;stroke-linejoin:miter;stroke-opacity:1"
       d="m 325.80441,398.94416 c -4.45568,-6.35368 -11.9682,-26.55548 -10.89631,-38.86262 1.13371,-4.92419 0.0522,-7.84869 4.55466,-13.70239 6.19425,-6.38265 14.84499,-4.94444 21.1185,-6.45832 8.67743,-1.40343 17.52675,-0.89208 26.27086,-0.64611 12.97162,0.7954 25.29529,0.27938 35.1839,8.22539 7.61066,6.38799 12.13307,19.84128 20.16503,25.62675 4.4098,4.97711 9.68032,6.76403 15.84169,7.3799 m 0,0 c 6.97018,1.64629 15.73915,0.2627 11.39066,-7.29643 -2.10193,-5.67426 -4.49401,-6.7632 -7.37228,-7.44095 m 0,0 c -2.87827,-0.67776 -6.24272,-0.94433 -10.28938,-4.97387 -5.79283,-4.64545 -17.74249,-24.30907 -24.78039,-26.94163 -15.6549,-6.74611 -17.31799,-7.4873 -27.35642,-9.13479 -9.62233,-1.47017 -23.45593,5.74086 -30.7135,4.75075 -6.06788,0.77021 -4.28341,-6.22976 -12.57666,-4.53247 -5.01729,2.21031 -19.43499,5.02086 -24.62345,1.07874 -5.57705,-4.36711 2.74061,-13.21987 9.38465,-14.3683 13.40926,-1.77892 -2.95139,-3.65078 -9.35079,-12.60863 -6.3994,-8.95785 -12.8068,-25.72037 6.26404,-31.22087 18.28687,-4.60004 7.13589,-28.13333 -9.88169,-29.78482 -19.27598,-1.1927 -0.85959,-31.2758 12.05988,-16.07265 10.82145,6.49541 24.87374,21.18424 37.76388,11.41067 6.34625,-13.23181 -8.48047,-39.56177 -26.67278,-32.43424 -16.33153,7.62393 -26.85895,-2.82603 -29.90169,-14.46553 -3.68906,-13.75813 20.67669,-29.01257 1.82403,-33.53236 -13.20762,5.85886 -6.13962,27.55042 -18.19136,35.1747 -20.10581,2.12487 -6.30539,-23.97782 -6.80924,-34.78589 -1.86197,-13.34917 5.95143,-24.09603 4.37785,-37.33749 C 283.13709,99.869689 262.56791,97.778181 251.80886,90.378891 236.79875,87.152506 228.672,71.198557 237.42412,57.643027 c 1.29509,-4.839322 4.01921,-8.098817 3.05056,-13.315912"
       id="path395"
       inkscape:connector-curvature="0"
       sodipodi:nodetypes="ccccccccccccccccccccccccccccccccc" /><path
       style="fill:none;stroke:#000000;stroke-width:0.75px;stroke-linecap:butt;stroke-linejoin:miter;stroke-opacity:1"
       d="m 82.00519,228.2847 c 0.49528,-11.93196 4.250762,-24.40545 16.570779,-28.88463 10.208781,-4.46399 22.631961,-5.07586 32.586371,0.33864 9.65178,7.1936 18.79978,15.86009 23.75614,27.00269 4.0957,8.17979 3.65777,21.06306 -3.31147,27.48948 -8.03376,5.40789 -16.50848,10.77456 -26.30233,14.9757 -7.58234,3.70155 -11.39288,6.22832 -22.2441,12.27068 m 0,0 c -10.99364,5.03011 -21.288562,14.00251 -25.488102,25.4881 -3.904381,9.88895 -5.449946,23.31907 -3.70365,33.35468 1.071611,8.88136 7.119779,17.22775 14.010121,22.02254 11.919642,8.31947 22.561621,-1.27789 30.748601,-7.79021 8.47749,-7.4482 14.9357,-19.66989 18.45003,-31.67925 m 0,0 c 3.14884,-11.67797 6.98988,-14.83727 15.17559,-26.17322 10.91785,-9.40337 14.08823,-19.90402 25.80147,-18.442 9.61255,2.91636 19.59105,3.2642 29.52456,5.24162 8.42389,1.8797 22.63747,3.01974 22.72828,-9.31319 0.76074,-10.55419 -8.52987,-12.31586 -16.65715,-6.28755 -8.21781,6.00658 -8.7923,-21.30955 -0.11482,-28.24166 2.14951,-11.73596 -15.16521,-13.85144 -14.08548,-25.42834 -0.82066,-9.73246 4.20209,-23.04058 15.69575,-22.26397 4.62701,2.50036 7.68069,-11.35418 10.72,-0.83228 4.85384,9.47765 4.79685,23.80143 16.10309,27.74487 14.41884,3.00794 7.04324,-15.99445 1.77614,-21.57335 -5.82944,-4.72613 -13.90702,-16.50352 -2.19197,-18.84019 2.65947,-6.32392 -7.80714,-17.74802 3.67833,-20.729 10.40966,2.64947 13.18703,12.81417 12.15458,22.33072 4.74067,11.34953 11.47361,21.53202 14.11772,33.81281 0.75559,3.25151 2.62807,6.87455 -2.93547,9.54392 -10.42468,6.07638 12.63205,18.83445 11.57734,9.28147 -1.12443,-9.97865 3.90824,-21.87555 4.86406,-24.01997 3.32162,-7.27196 9.55853,-6.47387 10.874,-10.31992"
       id="path399"
       inkscape:connector-curvature="0"
       sodipodi:nodetypes="ccccccccccccccccccccccccccccccccc" /><path
       style="fill:none;stroke:#000000;stroke-width:0.75px;stroke-linecap:butt;stroke-linejoin:miter;stroke-opacity:1"
       d="m 316.93898,183.95757 c 4.45205,-15.69654 26.82582,-14.0123 32.4077,-0.35683 8.70625,11.28457 27.15164,4.05341 35.90434,14.07553 11.49469,12.25769 26.21106,8.09206 36.80748,-2.08946 9.82573,-12.30655 24.31512,7.62734 27.95983,18.80509 3.02524,13.78337 9.77151,29.23504 23.01536,36.88879 12.8552,7.20275 25.60246,16.46838 40.61792,19.11479 7.54913,0.42439 10.05317,-2.20128 14.55783,-5.09587 m 0,0 c 4.50467,-2.8946 11.00997,-6.05813 26.56162,-6.70947 9.76044,-0.76079 11.475,-7.07418 8.30126,-12.31052 -3.17374,-5.23633 -11.23579,-9.39561 -21.02857,-5.84819 -5.25453,4.80722 -15.7461,6.14603 -23.02086,4.02604 m 0,0 c -7.27476,-2.12 -11.33271,-7.69881 -3.72,-16.72685 5.82626,-4.99915 9.04835,-5.55441 14.38385,-5.52337 m 0,0 c 5.33551,0.031 12.78442,0.64838 14.52673,-6.70717 -2.54694,-7.1747 -8.34744,-9.22416 -14.44275,-9.47206 m 0,0 c -6.09532,-0.24789 -12.48545,1.30579 -17.77886,4.47179 -18.60305,6.76324 -26.42495,-0.93222 -36.40651,-13.73656 -9.97071,-16.11924 4.72197,-27.62987 -10.15048,-38.29378 -8.67094,-12.88768 -18.10643,2.44856 -26.99282,12.02549 -16.51455,15.16361 -21.78568,-15.48741 -8.96572,-21.07126 12.56528,-5.38105 18.227,-20.55995 32.19654,-17.36728 13.54229,2.12731 21.23781,12.41224 24.92641,23.51937 2.90088,12.55 18.96901,-10.51816 30.91997,-2.64721"
       id="path405"
       inkscape:connector-curvature="0"
       sodipodi:nodetypes="ccccccccccsccccccccccccccccc" /></g></svg>