<?xml version="1.0" encoding="utf-8" ?>
<svg baseProfile="full" height="4000px" version="1.1" width="4000px" xmlns="http://www.w3.org/2000/svg" xmlns:ev="http://www.w3.org/2001/xml-events" xmlns:xlink="http://www.w3.org/1999/xlink"><defs /><rect fill="white" height="100%" width="100%" x="0" y="0" /><line stroke="black" stroke-linecap="round" stroke-width="1" x1="2000.0" x2="2800.0" y1="2000.0" y2="2000.0" /><line stroke="black" stroke-linecap="round" stroke-width="1" x1="2800.0" x2="2800.0" y1="2000.0" y2="1200.0" /><line stroke="black" stroke-linecap="round" stroke-width="1" x1="2800.0" x2="3066.6661952462105" y1="1200.0" y2="1600.0003142799028" /><line stroke="black" stroke-linecap="round" stroke-width="1" x1="3066.6661952462105" x2="3066.666195246211" y1="1600.0003142799028" y2="2266.6669809465693" /><line stroke="black" stroke-linecap="round" stroke-width="1" x1="3066.666195246211" x2="3066.666195246211" y1="2266.6669809465693" y2="2666.6669809465693" /><line stroke="black" stroke-linecap="round" stroke-width="1" x1="3066.666195246211" x2="2666.666195246211" y1="2666.6669809465693" y2="2666.6669809465698" /><line stroke="black" stroke-linecap="round" stroke-width="1" x1="2666.666195246211" x2="2866.6663523861625" y1="2666.6669809465698" y2="2800.0000785696748" /><line stroke="black" stroke-linecap="round" stroke-width="1" x1="2866.6663523861625" x2="3199.9996857194956" y1="2800.0000785696748" y2="2800.0000785696748" /><line stroke="black" stroke-linecap="round" stroke-width="1" x1="3199.9996857194956" x2="3399.9996857194956" y1="2800.0000785696748" y2="2800.0000785696748" /><line stroke="black" stroke-linecap="round" stroke-width="1" x1="3399.9996857194956" x2="3399.9996857194956" y1="2800.0000785696748" y2="2600.0000785696748" /><line stroke="black" stroke-linecap="round" stroke-width="1" x1="3399.9996857194956" x2="3466.6662345310483" y1="2600.0000785696748" y2="2700.0001571396506" /><line stroke="black" stroke-linecap="round" stroke-width="1" x1="3466.6662345310483" x2="3466.6662345310483" y1="2700.0001571396506" y2="2866.666823806317" /><line stroke="black" stroke-linecap="round" stroke-width="1" x1="3466.6662345310483" x2="3466.6662345310483" y1="2866.666823806317" y2="2966.666823806317" /><line stroke="black" stroke-linecap="round" stroke-width="1" x1="3466.6662345310483" x2="3366.6662345310483" y1="2966.666823806317" y2="2966.666823806317" /><line stroke="black" stroke-linecap="round" stroke-width="1" x1="3366.6662345310483" x2="3416.666273816036" y1="2966.666823806317" y2="3000.0000982120937" /><line stroke="black" stroke-linecap="round" stroke-width="1" x1="3416.666273816036" x2="3499.9996071493697" y1="3000.0000982120937" y2="3000.0000982120937" /><line stroke="black" stroke-linecap="round" stroke-width="1" x1="3499.9996071493697" x2="3549.9996071493697" y1="3000.0000982120937" y2="3000.0000982120937" /><line stroke="black" stroke-linecap="round" stroke-width="1" x1="3549.9996071493697" x2="3549.9996071493697" y1="3000.0000982120937" y2="2950.0000982120937" /><line stroke="black" stroke-linecap="round" stroke-width="1" x1="3549.9996071493697" x2="3566.6662443522573" y1="2950.0000982120937" y2="2975.000117854587" /><line stroke="black" stroke-linecap="round" stroke-width="1" x1="3566.6662443522573" x2="3566.6662443522573" y1="2975.000117854587" y2="3016.666784521254" /><line stroke="black" stroke-linecap="round" stroke-width="1" x1="3566.6662443522573" x2="3566.6662443522573" y1="3016.666784521254" y2="3041.666784521254" /><line stroke="black" stroke-linecap="round" stroke-width="1" x1="3566.6662443522573" x2="3541.6662443522573" y1="3041.666784521254" y2="3041.666784521254" /><line stroke="black" stroke-linecap="round" stroke-width="1" x1="3541.6662443522573" x2="3554.1662541735045" y1="3041.666784521254" y2="3050.0001031226984" /><line stroke="black" stroke-linecap="round" stroke-width="1" x1="3554.1662541735045" x2="3574.999587506838" y1="3050.0001031226984" y2="3050.0001031226984" /><line stroke="black" stroke-linecap="round" stroke-width="1" x1="3574.999587506838" x2="3587.499587506838" y1="3050.0001031226984" y2="3050.0001031226984" /><line stroke="black" stroke-linecap="round" stroke-width="1" x1="3587.499587506838" x2="3587.499587506838" y1="3050.0001031226984" y2="3037.5001031226984" /><line stroke="black" stroke-linecap="round" stroke-width="1" x1="3587.499587506838" x2="3591.66624680756" y1="3037.5001031226984" y2="3043.7501080333213" /><line stroke="black" stroke-linecap="round" stroke-width="1" x1="3591.66624680756" x2="3591.66624680756" y1="3043.7501080333213" y2="3054.1667746999883" /><line stroke="black" stroke-linecap="round" stroke-width="1" x1="3591.66624680756" x2="3591.66624680756" y1="3054.1667746999883" y2="3060.4167746999883" /><line stroke="black" stroke-linecap="round" stroke-width="1" x1="3591.66624680756" x2="3585.41624680756" y1="3060.4167746999883" y2="3060.4167746999883" /><line stroke="black" stroke-linecap="round" stroke-width="1" x1="3585.41624680756" x2="3588.5412492628716" y1="3060.4167746999883" y2="3062.5001043503494" /><line stroke="black" stroke-linecap="round" stroke-width="1" x1="3588.5412492628716" x2="3593.749582596205" y1="3062.5001043503494" y2="3062.5001043503494" /><line stroke="black" stroke-linecap="round" stroke-width="1" x1="3593.749582596205" x2="3596.874582596205" y1="3062.5001043503494" y2="3062.5001043503494" /><line stroke="black" stroke-linecap="round" stroke-width="1" x1="3596.874582596205" x2="3596.874582596205" y1="3062.5001043503494" y2="3059.3751043503494" /><line stroke="black" stroke-linecap="round" stroke-width="1" x1="3596.874582596205" x2="3597.9162474213854" y1="3059.3751043503494" y2="3060.9376055780053" /><line stroke="black" stroke-linecap="round" stroke-width="1" x1="3597.9162474213854" x2="3597.9162474213854" y1="3060.9376055780053" y2="3063.541772244672" /><line stroke="black" stroke-linecap="round" stroke-width="1" x1="3597.9162474213854" x2="3597.9162474213854" y1="3063.541772244672" y2="3065.104272244672" /><line stroke="black" stroke-linecap="round" stroke-width="1" x1="3597.9162474213854" x2="3596.3537474213854" y1="3065.104272244672" y2="3065.104272244672" /><line stroke="black" stroke-linecap="round" stroke-width="1" x1="3596.3537474213854" x2="3597.1349980352134" y1="3065.104272244672" y2="3065.6251046572625" /><line stroke="black" stroke-linecap="round" stroke-width="1" x1="3597.1349980352134" x2="3598.4370813685464" y1="3065.6251046572625" y2="3065.6251046572625" /><line stroke="black" stroke-linecap="round" stroke-width="1" x1="3598.4370813685464" x2="3599.2183313685464" y1="3065.6251046572625" y2="3065.6251046572625" /><line stroke="black" stroke-linecap="round" stroke-width="1" x1="3599.2183313685464" x2="3599.2183313685464" y1="3065.6251046572625" y2="3064.8438546572625" /><line stroke="black" stroke-linecap="round" stroke-width="1" x1="3599.2183313685464" x2="3599.4787475748417" y1="3064.8438546572625" y2="3065.234479964176" /><line stroke="black" stroke-linecap="round" stroke-width="1" x1="3599.4787475748417" x2="3599.4787475748417" y1="3065.234479964176" y2="3065.885521630843" /><line stroke="black" stroke-linecap="round" stroke-width="1" x1="3599.4787475748417" x2="3599.4787475748417" y1="3065.885521630843" y2="3066.276146630843" /><line stroke="black" stroke-linecap="round" stroke-width="1" x1="3599.4787475748417" x2="3599.0881225748417" y1="3066.276146630843" y2="3066.276146630843" /><line stroke="black" stroke-linecap="round" stroke-width="1" x1="3599.0881225748417" x2="3599.283435228299" y1="3066.276146630843" y2="3066.4063547339906" /><line stroke="black" stroke-linecap="round" stroke-width="1" x1="3599.283435228299" x2="3599.608956061632" y1="3066.4063547339906" y2="3066.4063547339906" /><line stroke="black" stroke-linecap="round" stroke-width="1" x1="3599.608956061632" x2="3599.804268561632" y1="3066.4063547339906" y2="3066.4063547339906" /><line stroke="black" stroke-linecap="round" stroke-width="1" x1="3599.804268561632" x2="3599.804268561632" y1="3066.4063547339906" y2="3066.2110422339906" /><line stroke="black" stroke-linecap="round" stroke-width="1" x1="3599.804268561632" x2="3599.869372613206" y1="3066.2110422339906" y2="3066.3086985607188" /><line stroke="black" stroke-linecap="round" stroke-width="1" x1="3599.869372613206" x2="3599.869372613206" y1="3066.3086985607188" y2="3066.4714589773857" /><line stroke="black" stroke-linecap="round" stroke-width="1" x1="3599.869372613206" x2="3599.869372613206" y1="3066.4714589773857" y2="3066.5691152273857" /><line stroke="black" stroke-linecap="round" stroke-width="1" x1="3599.869372613206" x2="3599.771716363206" y1="3066.5691152273857" y2="3066.5691152273857" /><line stroke="black" stroke-linecap="round" stroke-width="1" x1="3599.771716363206" x2="3599.8205445265703" y1="3066.5691152273857" y2="3066.6016672531723" /><line stroke="black" stroke-linecap="round" stroke-width="1" x1="3599.8205445265703" x2="3599.9019247349033" y1="3066.6016672531723" y2="3066.6016672531723" /><line stroke="black" stroke-linecap="round" stroke-width="1" x1="3599.9019247349033" x2="3599.9507528599033" y1="3066.6016672531723" y2="3066.6016672531723" /><line stroke="black" stroke-linecap="round" stroke-width="1" x1="3599.9507528599033" x2="3599.9507528599033" y1="3066.6016672531723" y2="3066.5528391281723" /><line stroke="black" stroke-linecap="round" stroke-width="1" x1="3599.9507528599033" x2="3599.9670288727966" y1="3066.5528391281723" y2="3066.5772532098545" /><line stroke="black" stroke-linecap="round" stroke-width="1" x1="3599.9670288727966" x2="3599.9670288727966" y1="3066.5772532098545" y2="3066.6179433140214" /><line stroke="black" stroke-linecap="round" stroke-width="1" x1="3599.9670288727966" x2="3599.9670288727966" y1="3066.6179433140214" y2="3066.6423573765214" /><line stroke="black" stroke-linecap="round" stroke-width="1" x1="3599.9670288727966" x2="3599.9426148102966" y1="3066.6423573765214" y2="3066.6423573765214" /><line stroke="black" stroke-linecap="round" stroke-width="1" x1="3599.9426148102966" x2="3599.954821851138" y1="3066.6423573765214" y2="3066.650495382968" /><line stroke="black" stroke-linecap="round" stroke-width="1" x1="3599.954821851138" x2="3599.975166903221" y1="3066.650495382968" y2="3066.650495382968" /><line stroke="black" stroke-linecap="round" stroke-width="1" x1="3599.975166903221" x2="3599.987373934471" y1="3066.650495382968" y2="3066.650495382968" /><line stroke="black" stroke-linecap="round" stroke-width="1" x1="3599.987373934471" x2="3599.987373934471" y1="3066.650495382968" y2="3066.638288351718" /><line stroke="black" stroke-linecap="round" stroke-width="1" x1="3599.987373934471" x2="3599.9914429376945" y1="3066.638288351718" y2="3066.644391872139" /><line stroke="black" stroke-linecap="round" stroke-width="1" x1="3599.9914429376945" x2="3599.9914429376945" y1="3066.644391872139" y2="3066.6545643981804" /><line stroke="black" stroke-linecap="round" stroke-width="1" x1="3599.9914429376945" x2="3599.9914429376945" y1="3066.6545643981804" y2="3066.6606679138054" /><line stroke="black" stroke-linecap="round" stroke-width="1" x1="3599.9914429376945" x2="3599.9853394220695" y1="3066.6606679138054" y2="3066.6606679138054" /><line stroke="black" stroke-linecap="round" stroke-width="1" x1="3599.9853394220695" x2="3599.98839118228" y1="3066.6606679138054" y2="3066.662702415417" /><line stroke="black" stroke-linecap="round" stroke-width="1" x1="3599.98839118228" x2="3599.9934774453004" y1="3066.662702415417" y2="3066.662702415417" /></svg>