<?xml version="1.0" encoding="UTF-8" standalone="no"?>
<svg
   xmlns:dc="http://purl.org/dc/elements/1.1/"
   xmlns:cc="http://creativecommons.org/ns#"
   xmlns:rdf="http://www.w3.org/1999/02/22-rdf-syntax-ns#"
   xmlns:svg="http://www.w3.org/2000/svg"
   xmlns="http://www.w3.org/2000/svg"
   xmlns:sodipodi="http://sodipodi.sourceforge.net/DTD/sodipodi-0.dtd"
   xmlns:inkscape="http://www.inkscape.org/namespaces/inkscape"
   height="2414.3474"
   version="1.1"
   width="2414.3474"
   id="svg196"
   sodipodi:docname="route.svg"
   inkscape:version="0.92.4 5da689c313, 2019-01-14">
  <metadata
     id="metadata200">
    <rdf:RDF>
      <cc:Work
         rdf:about="">
        <dc:format>image/svg+xml</dc:format>
        <dc:type
           rdf:resource="http://purl.org/dc/dcmitype/StillImage" />
        <dc:title></dc:title>
      </cc:Work>
    </rdf:RDF>
  </metadata>
  <sodipodi:namedview
     pagecolor="#ffffff"
     bordercolor="#666666"
     borderopacity="1"
     objecttolerance="10"
     gridtolerance="10"
     guidetolerance="10"
     inkscape:pageopacity="0"
     inkscape:pageshadow="2"
     inkscape:window-width="1272"
     inkscape:window-height="1026"
     id="namedview198"
     showgrid="false"
     inkscape:zoom="0.472"
     inkscape:cx="907.62371"
     inkscape:cy="1813.1532"
     inkscape:window-x="641"
     inkscape:window-y="47"
     inkscape:window-maximized="0"
     inkscape:current-layer="svg196" />
  <defs
     id="defs2" />
  <line
     x1="400.50711"
     x2="600.50714"
     y1="400.50711"
     y2="400.50711"
     id="line4"
     style="stroke:#000000;stroke-width:1;stroke-linecap:round" />
  <line
     x1="600.50714"
     x2="790.50714"
     y1="400.50711"
     y2="400.50711"
     id="line6"
     style="stroke:#000000;stroke-width:1;stroke-linecap:round" />
  <line
     x1="810.50714"
     x2="1010.5071"
     y1="400.50711"
     y2="400.50711"
     id="line8"
     style="stroke:#000000;stroke-width:1;stroke-linecap:round" />
  <line
     x1="1010.5071"
     x2="1200.5071"
     y1="400.50711"
     y2="400.50711"
     id="line10"
     style="stroke:#000000;stroke-width:1;stroke-linecap:round" />
  <line
     x1="1220.5071"
     x2="1410.5071"
     y1="400.50711"
     y2="400.50711"
     id="line12"
     style="stroke:#000000;stroke-width:1;stroke-linecap:round" />
  <line
     x1="1410.5071"
     x2="1410.5071"
     y1="400.50711"
     y2="200.50713"
     id="line14"
     style="stroke:#000000;stroke-width:1;stroke-linecap:round" />
  <line
     x1="1410.5071"
     x2="1410.5071"
     y1="200.50713"
     y2="0.50712126"
     id="line16"
     style="stroke:#000000;stroke-width:1;stroke-linecap:round" />
  <line
     x1="1410.5071"
     x2="1210.5071"
     y1="0.50712126"
     y2="0.50712126"
     id="line18"
     style="stroke:#000000;stroke-width:1;stroke-linecap:round" />
  <line
     x1="1210.5071"
     x2="1010.5071"
     y1="0.50712126"
     y2="0.50712126"
     id="line20"
     style="stroke:#000000;stroke-width:1;stroke-linecap:round" />
  <line
     x1="1010.5071"
     x2="812.17389"
     y1="0.50712126"
     y2="0.50712126"
     id="line22"
     style="stroke:#000000;stroke-width:1;stroke-linecap:round" />
  <line
     x1="812.17389"
     x2="812.17389"
     y1="0.50712126"
     y2="200.50713"
     id="line24"
     style="stroke:#000000;stroke-width:1;stroke-linecap:round" />
  <line
     x1="812.17389"
     x2="812.17389"
     y1="200.50713"
     y2="400.50711"
     id="line26"
     style="stroke:#000000;stroke-width:1;stroke-linecap:round" />
  <line
     x1="812.17389"
     x2="812.17389"
     y1="400.50711"
     y2="600.50714"
     id="line28"
     style="stroke:#000000;stroke-width:1;stroke-linecap:round" />
  <line
     x1="812.17389"
     x2="1013.8404"
     y1="600.50714"
     y2="600.50714"
     id="line30"
     style="stroke:#000000;stroke-width:1;stroke-linecap:round" />
  <line
     x1="1013.8404"
     x2="1013.8404"
     y1="600.50714"
     y2="410.50711"
     id="line32"
     style="stroke:#000000;stroke-width:1;stroke-linecap:round" />
  <line
     x1="1013.8404"
     x2="1013.8404"
     y1="390.50711"
     y2="200.50713"
     id="line34"
     style="stroke:#000000;stroke-width:1;stroke-linecap:round" />
  <line
     x1="1013.8404"
     x2="1213.8403"
     y1="200.50713"
     y2="200.50713"
     id="line36"
     style="stroke:#000000;stroke-width:1;stroke-linecap:round" />
  <line
     x1="1213.8403"
     x2="1213.8403"
     y1="200.50713"
     y2="400.50711"
     id="line38"
     style="stroke:#000000;stroke-width:1;stroke-linecap:round" />
  <line
     x1="1213.8403"
     x2="1213.8403"
     y1="400.50711"
     y2="600.50714"
     id="line40"
     style="stroke:#000000;stroke-width:1;stroke-linecap:round" />
  <line
     x1="1213.8403"
     x2="1413.8403"
     y1="600.50714"
     y2="600.50714"
     id="line42"
     style="stroke:#000000;stroke-width:1;stroke-linecap:round" />
  <line
     x1="1413.8403"
     x2="1613.8403"
     y1="600.50714"
     y2="600.50714"
     id="line44"
     style="stroke:#000000;stroke-width:1;stroke-linecap:round" />
  <line
     x1="1613.8403"
     x2="1613.8403"
     y1="600.50714"
     y2="400.50711"
     id="line46"
     style="stroke:#000000;stroke-width:1;stroke-linecap:round" />
  <line
     x1="1613.8403"
     x2="1813.8403"
     y1="400.50711"
     y2="400.50711"
     id="line48"
     style="stroke:#000000;stroke-width:1;stroke-linecap:round" />
  <line
     x1="1813.8403"
     x2="2013.8403"
     y1="400.50711"
     y2="400.50711"
     id="line50"
     style="stroke:#000000;stroke-width:1;stroke-linecap:round" />
  <line
     x1="2013.8403"
     x2="2013.8403"
     y1="400.50711"
     y2="600.50714"
     id="line52"
     style="stroke:#000000;stroke-width:1;stroke-linecap:round" />
  <line
     x1="2013.8403"
     x2="2013.8403"
     y1="600.50714"
     y2="790.50714"
     id="line54"
     style="stroke:#000000;stroke-width:1;stroke-linecap:round" />
  <line
     x1="2013.8403"
     x2="2013.8403"
     y1="810.50714"
     y2="1010.5071"
     id="line56"
     style="stroke:#000000;stroke-width:1;stroke-linecap:round" />
  <line
     x1="2013.8403"
     x2="2013.8403"
     y1="1010.5071"
     y2="1200.5071"
     id="line58"
     style="stroke:#000000;stroke-width:1;stroke-linecap:round" />
  <line
     x1="2013.8403"
     x2="2013.8403"
     y1="1220.5071"
     y2="1410.5071"
     id="line60"
     style="stroke:#000000;stroke-width:1;stroke-linecap:round" />
  <line
     x1="2013.8403"
     x2="2213.8403"
     y1="1410.5071"
     y2="1410.5071"
     id="line62"
     style="stroke:#000000;stroke-width:1;stroke-linecap:round" />
  <line
     x1="2213.8403"
     x2="2413.8403"
     y1="1410.5071"
     y2="1410.5071"
     id="line64"
     style="stroke:#000000;stroke-width:1;stroke-linecap:round" />
  <line
     x1="2413.8403"
     x2="2413.8403"
     y1="1410.5071"
     y2="1210.5071"
     id="line66"
     style="stroke:#000000;stroke-width:1;stroke-linecap:round" />
  <line
     x1="2413.8403"
     x2="2413.8403"
     y1="1210.5071"
     y2="1010.5071"
     id="line68"
     style="stroke:#000000;stroke-width:1;stroke-linecap:round" />
  <line
     x1="2413.8403"
     x2="2413.8403"
     y1="1010.5071"
     y2="812.17389"
     id="line70"
     style="stroke:#000000;stroke-width:1;stroke-linecap:round" />
  <line
     x1="2413.8403"
     x2="2213.8403"
     y1="812.17389"
     y2="812.17389"
     id="line72"
     style="stroke:#000000;stroke-width:1;stroke-linecap:round" />
  <line
     x1="2213.8403"
     x2="2013.8403"
     y1="812.17389"
     y2="812.17389"
     id="line74"
     style="stroke:#000000;stroke-width:1;stroke-linecap:round" />
  <line
     x1="2013.8403"
     x2="1813.8403"
     y1="812.17389"
     y2="812.17389"
     id="line76"
     style="stroke:#000000;stroke-width:1;stroke-linecap:round" />
  <line
     x1="1813.8403"
     x2="1813.8403"
     y1="812.17389"
     y2="1013.8404"
     id="line78"
     style="stroke:#000000;stroke-width:1;stroke-linecap:round" />
  <line
     x1="1813.8403"
     x2="2003.8403"
     y1="1013.8404"
     y2="1013.8404"
     id="line80"
     style="stroke:#000000;stroke-width:1;stroke-linecap:round" />
  <line
     x1="2023.8403"
     x2="2213.8403"
     y1="1013.8404"
     y2="1013.8404"
     id="line82"
     style="stroke:#000000;stroke-width:1;stroke-linecap:round" />
  <line
     x1="2213.8403"
     x2="2213.8403"
     y1="1013.8404"
     y2="1213.8403"
     id="line84"
     style="stroke:#000000;stroke-width:1;stroke-linecap:round" />
  <line
     x1="2213.8403"
     x2="2013.8403"
     y1="1213.8403"
     y2="1213.8403"
     id="line86"
     style="stroke:#000000;stroke-width:1;stroke-linecap:round" />
  <line
     x1="2013.8403"
     x2="1813.8403"
     y1="1213.8403"
     y2="1213.8403"
     id="line88"
     style="stroke:#000000;stroke-width:1;stroke-linecap:round" />
  <line
     x1="1813.8403"
     x2="1813.8403"
     y1="1213.8403"
     y2="1413.8403"
     id="line90"
     style="stroke:#000000;stroke-width:1;stroke-linecap:round" />
  <line
     x1="1813.8403"
     x2="1813.8403"
     y1="1413.8403"
     y2="1613.8403"
     id="line92"
     style="stroke:#000000;stroke-width:1;stroke-linecap:round" />
  <line
     x1="1813.8403"
     x2="2013.8403"
     y1="1613.8403"
     y2="1613.8403"
     id="line94"
     style="stroke:#000000;stroke-width:1;stroke-linecap:round" />
  <line
     x1="2013.8403"
     x2="2013.8403"
     y1="1613.8403"
     y2="1813.8403"
     id="line96"
     style="stroke:#000000;stroke-width:1;stroke-linecap:round" />
  <line
     x1="2013.8403"
     x2="2013.8403"
     y1="1813.8403"
     y2="2013.8403"
     id="line98"
     style="stroke:#000000;stroke-width:1;stroke-linecap:round" />
  <line
     x1="2013.8403"
     x2="1813.8403"
     y1="2013.8403"
     y2="2013.8403"
     id="line100"
     style="stroke:#000000;stroke-width:1;stroke-linecap:round" />
  <line
     x1="1813.8403"
     x2="1623.8403"
     y1="2013.8403"
     y2="2013.8403"
     id="line102"
     style="stroke:#000000;stroke-width:1;stroke-linecap:round" />
  <line
     x1="1603.8403"
     x2="1403.8403"
     y1="2013.8403"
     y2="2013.8403"
     id="line104"
     style="stroke:#000000;stroke-width:1;stroke-linecap:round" />
  <line
     x1="1403.8403"
     x2="1213.8403"
     y1="2013.8403"
     y2="2013.8403"
     id="line106"
     style="stroke:#000000;stroke-width:1;stroke-linecap:round" />
  <line
     x1="1193.8403"
     x2="1003.8404"
     y1="2013.8403"
     y2="2013.8403"
     id="line108"
     style="stroke:#000000;stroke-width:1;stroke-linecap:round" />
  <line
     x1="1003.8404"
     x2="1003.8404"
     y1="2013.8403"
     y2="2213.8403"
     id="line110"
     style="stroke:#000000;stroke-width:1;stroke-linecap:round" />
  <line
     x1="1003.8404"
     x2="1003.8404"
     y1="2213.8403"
     y2="2413.8403"
     id="line112"
     style="stroke:#000000;stroke-width:1;stroke-linecap:round" />
  <line
     x1="1003.8404"
     x2="1203.8403"
     y1="2413.8403"
     y2="2413.8403"
     id="line114"
     style="stroke:#000000;stroke-width:1;stroke-linecap:round" />
  <line
     x1="1203.8403"
     x2="1403.8403"
     y1="2413.8403"
     y2="2413.8403"
     id="line116"
     style="stroke:#000000;stroke-width:1;stroke-linecap:round" />
  <line
     x1="1403.8403"
     x2="1602.1738"
     y1="2413.8403"
     y2="2413.8403"
     id="line118"
     style="stroke:#000000;stroke-width:1;stroke-linecap:round" />
  <line
     x1="1602.1738"
     x2="1602.1738"
     y1="2413.8403"
     y2="2213.8403"
     id="line120"
     style="stroke:#000000;stroke-width:1;stroke-linecap:round" />
  <line
     x1="1602.1738"
     x2="1602.1738"
     y1="2213.8403"
     y2="2013.8403"
     id="line122"
     style="stroke:#000000;stroke-width:1;stroke-linecap:round" />
  <line
     x1="1602.1738"
     x2="1602.1738"
     y1="2013.8403"
     y2="1813.8403"
     id="line124"
     style="stroke:#000000;stroke-width:1;stroke-linecap:round" />
  <line
     x1="1602.1738"
     x2="1400.5071"
     y1="1813.8403"
     y2="1813.8403"
     id="line126"
     style="stroke:#000000;stroke-width:1;stroke-linecap:round" />
  <line
     x1="1400.5071"
     x2="1400.5071"
     y1="1813.8403"
     y2="2003.8403"
     id="line128"
     style="stroke:#000000;stroke-width:1;stroke-linecap:round" />
  <line
     x1="1400.5071"
     x2="1400.5071"
     y1="2023.8403"
     y2="2213.8403"
     id="line130"
     style="stroke:#000000;stroke-width:1;stroke-linecap:round" />
  <line
     x1="1400.5071"
     x2="1200.5071"
     y1="2213.8403"
     y2="2213.8403"
     id="line132"
     style="stroke:#000000;stroke-width:1;stroke-linecap:round" />
  <line
     x1="1200.5071"
     x2="1200.5071"
     y1="2213.8403"
     y2="2013.8403"
     id="line134"
     style="stroke:#000000;stroke-width:1;stroke-linecap:round" />
  <line
     x1="1200.5071"
     x2="1200.5071"
     y1="2013.8403"
     y2="1813.8403"
     id="line136"
     style="stroke:#000000;stroke-width:1;stroke-linecap:round" />
  <line
     x1="1200.5071"
     x2="1000.5071"
     y1="1813.8403"
     y2="1813.8403"
     id="line138"
     style="stroke:#000000;stroke-width:1;stroke-linecap:round" />
  <line
     x1="1000.5071"
     x2="800.50714"
     y1="1813.8403"
     y2="1813.8403"
     id="line140"
     style="stroke:#000000;stroke-width:1;stroke-linecap:round" />
  <line
     x1="800.50714"
     x2="800.50714"
     y1="1813.8403"
     y2="2013.8403"
     id="line142"
     style="stroke:#000000;stroke-width:1;stroke-linecap:round" />
  <line
     x1="800.50714"
     x2="600.50714"
     y1="2013.8403"
     y2="2013.8403"
     id="line144"
     style="stroke:#000000;stroke-width:1;stroke-linecap:round" />
  <line
     x1="600.50714"
     x2="400.50711"
     y1="2013.8403"
     y2="2013.8403"
     id="line146"
     style="stroke:#000000;stroke-width:1;stroke-linecap:round" />
  <line
     x1="400.50711"
     x2="400.50711"
     y1="2013.8403"
     y2="1813.8403"
     id="line148"
     style="stroke:#000000;stroke-width:1;stroke-linecap:round" />
  <line
     x1="400.50711"
     x2="400.50711"
     y1="1813.8403"
     y2="1623.8403"
     id="line150"
     style="stroke:#000000;stroke-width:1;stroke-linecap:round" />
  <line
     x1="400.50711"
     x2="400.50711"
     y1="1603.8403"
     y2="1403.8403"
     id="line152"
     style="stroke:#000000;stroke-width:1;stroke-linecap:round" />
  <line
     x1="400.50711"
     x2="400.50711"
     y1="1403.8403"
     y2="1213.8403"
     id="line154"
     style="stroke:#000000;stroke-width:1;stroke-linecap:round" />
  <line
     x1="400.50711"
     x2="400.50711"
     y1="1193.8403"
     y2="1003.8404"
     id="line156"
     style="stroke:#000000;stroke-width:1;stroke-linecap:round" />
  <line
     x1="400.50711"
     x2="200.50713"
     y1="1003.8404"
     y2="1003.8404"
     id="line158"
     style="stroke:#000000;stroke-width:1;stroke-linecap:round" />
  <line
     x1="200.50713"
     x2="0.50712126"
     y1="1003.8404"
     y2="1003.8404"
     id="line160"
     style="stroke:#000000;stroke-width:1;stroke-linecap:round" />
  <line
     x1="0.50712126"
     x2="0.50712126"
     y1="1003.8404"
     y2="1203.8403"
     id="line162"
     style="stroke:#000000;stroke-width:1;stroke-linecap:round" />
  <line
     x1="0.50712126"
     x2="0.50712126"
     y1="1203.8403"
     y2="1403.8403"
     id="line164"
     style="stroke:#000000;stroke-width:1;stroke-linecap:round" />
  <line
     x1="0.50712126"
     x2="0.50712126"
     y1="1403.8403"
     y2="1602.1738"
     id="line166"
     style="stroke:#000000;stroke-width:1;stroke-linecap:round" />
  <line
     x1="0.50712126"
     x2="200.50713"
     y1="1602.1738"
     y2="1602.1738"
     id="line168"
     style="stroke:#000000;stroke-width:1;stroke-linecap:round" />
  <line
     x1="200.50713"
     x2="400.50711"
     y1="1602.1738"
     y2="1602.1738"
     id="line170"
     style="stroke:#000000;stroke-width:1;stroke-linecap:round" />
  <line
     x1="400.50711"
     x2="600.50714"
     y1="1602.1738"
     y2="1602.1738"
     id="line172"
     style="stroke:#000000;stroke-width:1;stroke-linecap:round" />
  <line
     x1="600.50714"
     x2="600.50714"
     y1="1602.1738"
     y2="1400.5071"
     id="line174"
     style="stroke:#000000;stroke-width:1;stroke-linecap:round" />
  <line
     x1="600.50714"
     x2="410.50711"
     y1="1400.5071"
     y2="1400.5071"
     id="line176"
     style="stroke:#000000;stroke-width:1;stroke-linecap:round" />
  <line
     x1="390.50711"
     x2="200.50713"
     y1="1400.5071"
     y2="1400.5071"
     id="line178"
     style="stroke:#000000;stroke-width:1;stroke-linecap:round" />
  <line
     x1="200.50713"
     x2="200.50713"
     y1="1400.5071"
     y2="1200.5071"
     id="line180"
     style="stroke:#000000;stroke-width:1;stroke-linecap:round" />
  <line
     x1="200.50713"
     x2="400.50711"
     y1="1200.5071"
     y2="1200.5071"
     id="line182"
     style="stroke:#000000;stroke-width:1;stroke-linecap:round" />
  <line
     x1="400.50711"
     x2="600.50714"
     y1="1200.5071"
     y2="1200.5071"
     id="line184"
     style="stroke:#000000;stroke-width:1;stroke-linecap:round" />
  <line
     x1="600.50714"
     x2="600.50714"
     y1="1200.5071"
     y2="1000.5071"
     id="line186"
     style="stroke:#000000;stroke-width:1;stroke-linecap:round" />
  <line
     x1="600.50714"
     x2="600.50714"
     y1="1000.5071"
     y2="800.50714"
     id="line188"
     style="stroke:#000000;stroke-width:1;stroke-linecap:round" />
  <line
     x1="600.50714"
     x2="400.50711"
     y1="800.50714"
     y2="800.50714"
     id="line190"
     style="stroke:#000000;stroke-width:1;stroke-linecap:round" />
  <line
     x1="400.50711"
     x2="400.50711"
     y1="800.50714"
     y2="600.50714"
     id="line192"
     style="stroke:#000000;stroke-width:1;stroke-linecap:round" />
  <line
     x1="400.50711"
     x2="400.50711"
     y1="600.50714"
     y2="400.50711"
     id="line194"
     style="stroke:#000000;stroke-width:1;stroke-linecap:round" />
  <path
     style="fill:none;stroke:#000000;stroke-width:1px;stroke-linecap:butt;stroke-linejoin:miter;stroke-opacity:1"
     d="m 400.50711,400.50711 c -0.17079,1.62601 1.11362,5.04882 -0.51238,4.87802 -1.62601,-0.17079 -0.74363,-3.83135 0.51238,-4.87802 2.27131,-1.89276 5.70737,-1.57588 8.47626,-2.61251 0.46767,-0.17509 -1.02089,-0.14709 -1.49811,0 -2.37354,0.73156 -4.6521,1.74167 -6.97815,2.61251"
     id="path202"
     inkscape:connector-curvature="0" />
  <path
     style="fill:none;stroke:#000000;stroke-width:1px;stroke-linecap:butt;stroke-linejoin:miter;stroke-opacity:1"
     d="m 380.51933,352.95137 c -1.7441,-5.28441 5.58899,4.89775 7.49054,2.99621 0.3531,-0.3531 -0.35311,-1.145 0,-1.4981 0.3531,-0.35311 1.145,0.3531 1.4981,0 0.35311,-0.35311 -0.3531,-1.145 0,-1.49811 0.70622,-0.70622 2.29,0.70621 2.99622,0 0.35311,-0.35311 -0.35311,-1.145 0,-1.49811 0.35311,-0.35311 1.05146,0.22333 1.49811,0 1.26331,-0.63166 1.7329,-2.36456 2.99621,-2.99621 0.44665,-0.22333 1.145,0.3531 1.49811,0 0.35311,-0.35311 -0.35311,-1.145 0,-1.49811 0.35311,-0.35311 1.145,0.35311 1.49811,0 0.74905,-0.74906 -0.74906,-3.74527 0,-4.49432 0.3531,-0.35311 1.145,0.3531 1.4981,0 0.35311,-0.35311 -0.22332,-1.05146 0,-1.49811 0.31583,-0.63166 1.18228,-0.86645 1.49811,-1.49811 0.22333,-0.44665 -0.49937,-1.49811 0,-1.49811 0.49937,0 -0.35311,1.145 0,1.49811 0.35311,0.35311 1.145,-0.35311 1.49811,0 0.0482,0.0482 0,4.13099 0,4.49432 0,0.49937 0,0.99874 0,1.49811 0,0.49937 -0.35311,1.145 0,1.49811 0.35311,0.35311 1.145,-0.35311 1.49811,0 0.3531,0.35311 0,0.99874 0,1.49811 0,3.49558 0,6.99116 0,10.48675 0,0.49937 0,0.99874 0,1.49811 0,0.49937 -0.35311,1.145 0,1.4981 0.3531,0.35311 1.145,-0.3531 1.4981,0 0.0679,0.0679 0,6.78419 0,7.49054"
     id="path204"
     inkscape:connector-curvature="0" />
  <path
     style="fill:none;stroke:#000000;stroke-width:1px;stroke-linecap:butt;stroke-linejoin:miter;stroke-opacity:1"
     d="m 380.51933,378.4192 c 1.20102,-6.31436 5.21306,-0.35937 7.49054,-1.49811 0.63165,-0.31583 0.86645,-1.18228 1.4981,-1.49811 1.19849,-0.59924 3.29584,0.59925 4.49433,0 0.63165,-0.31583 0.86645,-1.18228 1.4981,-1.49811 0.8933,-0.44664 2.10292,0.44665 2.99622,0 0.63166,-0.31582 0.82813,-1.27478 1.49811,-1.4981 0.94748,-0.31583 2.04873,0.31583 2.99621,0 0.66998,-0.22333 0.86645,-1.18228 1.49811,-1.49811 0.44665,-0.22333 1.05146,0.22332 1.49811,0 0.63165,-0.31583 0.86645,-1.18228 1.4981,-1.49811 0.8933,-0.44665 2.10292,0.44665 2.99622,0 4.9686,-4.9686 -1.41243,0.70622 2.99621,-1.49811 0.63166,-0.31582 0.86645,-1.18227 1.49811,-1.4981 0.8933,-0.44665 2.10292,0.44665 2.99622,0 0.63166,-0.31583 0.86645,-1.18228 1.49811,-1.49811 0.89329,-0.44665 2.29,0.70621 2.99621,0 0.35311,-0.35311 -0.35311,-1.145 0,-1.49811 0.30627,-0.30627 3.90034,0.297 4.49432,0 0.63166,-0.31583 0.86645,-1.18228 1.49811,-1.49811 0.45593,-0.22796 3.81964,0 4.49432,0"
     id="path206"
     inkscape:connector-curvature="0" />
  <path
     style="fill:none;stroke:#000000;stroke-width:1px;stroke-linecap:butt;stroke-linejoin:miter;stroke-opacity:1"
     d="m 1996.9774,342.46462 c -6.4939,2.0514 -0.5375,6.10697 -1.4981,8.98864 -0.3531,1.05932 -1.2273,1.91293 -1.4981,2.99622 -0.2848,1.13926 0,6.23603 0,7.49053 0,1.49811 -0.4737,3.0731 0,4.49433 0.2233,0.66997 1.1823,0.86645 1.4981,1.4981 0.4467,0.8933 -0.4466,2.10292 0,2.99622 1.8512,3.70243 1.4981,-0.51711 1.4981,2.99621"
     id="path359"
     inkscape:connector-curvature="0" />
  <path
     style="fill:none;stroke:#000000;stroke-width:1px;stroke-linecap:butt;stroke-linejoin:miter;stroke-opacity:1"
     d="m 2020.9471,340.96651 c -1.9974,0.49937 -4.0807,0.73343 -5.9924,1.49811 -0.4706,0.18823 -5.7307,5.46898 -5.9924,5.99243 -0.228,0.45592 0,3.81963 0,4.49432 0,0.49937 -0.3531,1.145 0,1.49811 0.3531,0.3531 1.145,-0.35311 1.4981,0 0.3531,0.3531 -0.2233,1.05145 0,1.4981 0.1989,0.39777 4.0965,4.29544 4.4943,4.49433 0.4467,0.22332 1.145,-0.35311 1.4981,0 0.3531,0.3531 -0.2233,1.05145 0,1.4981 0.3158,0.63166 0.9988,0.99874 1.4981,1.49811 0.4994,0.49937 0.8665,1.18228 1.4981,1.49811 0.4467,0.22332 1.145,-0.35311 1.4981,0 0.3531,0.35311 -0.2233,1.05146 0,1.49811 3.1174,6.23476 -0.1034,-1.60153 2.9963,1.4981 0.3531,0.35311 -0.2234,1.05146 0,1.49811 0.609,1.21813 2.3764,1.23955 1.4981,2.99622 -0.3159,0.63165 -0.9988,0.99874 -1.4981,1.4981 -0.4994,0.49937 -0.8665,1.18228 -1.4982,1.49811 -0.4466,0.22333 -1.0514,-0.22332 -1.4981,0 -0.6316,0.31583 -0.8664,1.18228 -1.4981,1.49811 -0.4466,0.22332 -1.0514,-0.22333 -1.4981,0 -0.6316,0.31583 -0.9105,1.10637 -1.4981,1.49811 -7.5681,5.04543 -0.035,0.0116 -4.4943,1.4981 -2.1187,0.70622 -3.8738,2.29001 -5.9924,2.99622 -0.4738,0.15791 -1.0244,-0.15791 -1.4981,0 -1.0594,0.35311 -1.9369,1.145 -2.9963,1.49811 -0.4737,0.15791 -1.0514,-0.22333 -1.4981,0 -3.7024,1.85121 0.5171,1.49811 -2.9962,1.49811 -0.4994,0 -1.4981,0.49936 -1.4981,0 0,-4.02605 0.9987,-7.98991 1.4981,-11.98487"
     id="path361"
     inkscape:connector-curvature="0" />
  <path
     style="fill:none;stroke:#000000;stroke-width:1px;stroke-linecap:butt;stroke-linejoin:miter;stroke-opacity:1"
     d="m 762.71187,348.66944 c 2.82485,-0.70621 5.64971,-1.41243 8.47457,-2.11864 0.70622,-0.70622 1.22535,-1.672 2.11865,-2.11865 0.63165,-0.31582 1.41243,0 2.11864,0 0.70621,0 1.61927,-0.49936 2.11864,0 0.49937,0.49937 0,1.41243 0,2.11865 0,0.70621 0.49937,1.61927 0,2.11864 -0.49937,0.49937 -1.61927,-0.49937 -2.11864,0 -0.49937,0.49937 0.49937,1.61928 0,2.11865 -0.49937,0.49937 -1.61927,-0.49937 -2.11864,0 -0.49937,0.49937 0.49937,1.61927 0,2.11864 -0.49937,0.49937 -1.61928,-0.49937 -2.11865,0 -0.49937,0.49937 0.31583,1.48699 0,2.11864 -0.44665,0.8933 -1.67199,1.22535 -2.11864,2.11865 -0.31583,0.63166 0.49937,1.61927 0,2.11864 -0.49937,0.49937 -1.61928,-0.49937 -2.11865,0 -0.49937,0.49937 0.49937,1.61928 0,2.11865 -0.49937,0.49937 -1.61927,-0.49937 -2.11864,0 -0.49937,0.49937 0.49937,1.61927 0,2.11864 -0.49937,0.49937 -1.61928,-0.49937 -2.11864,0 -0.49937,0.49937 0,1.41243 0,2.11865 -0.70622,0 -1.61928,-0.49937 -2.11865,0 -0.49937,0.49936 0.49937,1.61927 0,2.11864 -0.49937,0.49937 -1.61927,-0.49937 -2.11864,0 -0.99874,0.99874 0.63166,2.97397 0,4.23729 -0.2758,0.55159 -3.77485,2.58109 -2.11865,4.23729 0.49937,0.49936 1.41243,0 2.11865,0 3.53107,0 7.06214,0 10.59322,0 0.70621,0 1.41243,0 2.11864,0 0.70622,0 1.61928,-0.49937 2.11865,0 2.82485,2.82485 -3.53108,2.11864 2.11864,2.11864"
     id="path505"
     inkscape:connector-curvature="0" />
  <path
     style="fill:none;stroke:#000000;stroke-width:1px;stroke-linecap:butt;stroke-linejoin:miter;stroke-opacity:1"
     d="m 1165.2542,355.02537 c 4.2373,0 8.4746,0 12.7119,0 0.5138,0 6.2878,-0.0681 6.3559,0 0.4994,0.49937 -0.4993,1.61928 0,2.11865 0.4994,0.49937 1.6193,-0.49937 2.1187,0 0.4993,0.49937 0.4993,1.61927 0,2.11864 -0.4994,0.49937 -1.6193,-0.49937 -2.1187,0 -0.4993,0.49937 0.4994,1.61928 0,2.11865 -0.4993,0.49937 -1.6192,-0.49937 -2.1186,0 -0.4994,0.49937 0.4994,1.61927 0,2.11864 -0.9987,0.99874 -3.2386,-0.99874 -4.2373,0 -0.4994,0.49937 0.4994,1.61928 0,2.11865 -0.4994,0.49936 -1.487,-0.31583 -2.1186,0 -0.8933,0.44664 -1.2254,1.67199 -2.1187,2.11864 -0.6316,0.31583 -1.6193,-0.49937 -2.1186,0 -0.4994,0.49937 0.4993,1.61927 0,2.11864 -0.4994,0.49937 -1.4125,0 -2.1187,0 -0.7062,0 -1.6192,-0.49937 -2.1186,0 -0.4994,0.49937 0.4994,1.61928 0,2.11865 -0.4994,0.49937 -2.1187,-0.70622 -2.1187,0 0,3.71715 4.8952,1.38824 6.356,2.11864 0.8933,0.44665 1.2253,1.672 2.1186,2.11865 1.2633,0.63165 3.2386,-0.99874 4.2373,0 0.4994,0.49936 -0.4994,1.61927 0,2.11864 2.8287,2.82873 1.4086,-2.82873 4.2373,0 0.4994,0.49937 -0.4994,1.61927 0,2.11864 0.4994,0.49937 1.6193,-0.49937 2.1186,0 0.4994,0.49937 0.4994,1.61928 0,2.11865 -0.4993,0.49937 -1.487,-0.31583 -2.1186,0 -0.8933,0.44665 -1.2254,1.67199 -2.1187,2.11864 -1.2633,0.63166 -3.2385,-0.99874 -4.2372,0 -0.4994,0.49937 0.4993,1.61928 0,2.11865 -1.0594,1.05932 -5.2967,-1.05933 -6.356,0 -0.4993,0.49937 0.4994,1.61927 0,2.11864 -1.4117,1.41176 -2.8255,-1.41176 -4.2373,0 -2.8248,2.82486 3.5311,2.11864 -2.1186,2.11864"
     id="path519"
     inkscape:connector-curvature="0" />
  <path
     style="fill:none;stroke:#000000;stroke-width:1px;stroke-linecap:butt;stroke-linejoin:miter;stroke-opacity:1"
     d="m 1432.2034,403.75419 c 1.4124,2.82486 2.8249,5.64972 4.2373,8.47457 0.7062,0 1.6193,-0.49936 2.1186,0 1.4092,1.40918 -1.4092,2.82812 0,4.23729 0.4994,0.49937 1.6193,-0.49937 2.1187,0 0.4993,0.49937 -0.4994,1.61928 0,2.11865 0.4993,0.49937 1.6192,-0.49937 2.1186,0 0.4994,0.49937 -0.4994,1.61927 0,2.11864 0.4994,0.49937 1.4124,0 2.1187,0 5.1614,0 0.7861,-1.57223 2.1186,-4.23729 0.4466,-0.8933 1.672,-1.22534 2.1186,-2.11864 0.4201,-0.84003 -0.4331,-5.92281 0,-6.35593 0.4994,-0.49937 1.6193,0.49937 2.1187,0 0.3116,-0.31157 -0.2493,-6.35594 0,-6.35594 0.7062,0 0,1.41243 0,2.11865 0,0.70621 0,1.41243 0,2.11864 0,0.70622 0,1.41243 0,2.11865 0,0.70621 -0.3158,1.48698 0,2.11864 2.618,5.23603 2.1186,-0.73131 2.1186,4.23729 0,4.23729 0,8.47458 0,12.71186 0,0.70622 -0.4993,1.61928 0,2.11865 0.4994,0.49937 1.6193,-0.49937 2.1187,0 0.4993,0.49937 0,1.41243 0,2.11864 0,0.70622 0,1.41243 0,2.11865 0,7.76836 0,15.53672 0,23.30508"
     id="path521"
     inkscape:connector-curvature="0" />
  <path
     style="fill:none;stroke:#000000;stroke-width:1px;stroke-linecap:butt;stroke-linejoin:miter;stroke-opacity:1"
     d="m 1468.2203,-62.347507 c -7.2531,-3.254355 -6.91,4.51435 -10.5932,6.355932 -0.6316,0.315829 -1.6193,-0.499369 -2.1186,0 -0.4994,0.499369 0.4993,1.619275 0,2.118644 -0.4994,0.499369 -1.6193,-0.499369 -2.1187,0 -0.4993,0.499369 0.4994,1.619275 0,2.118644 -0.4993,0.499369 -1.6192,-0.499369 -2.1186,0 -0.4994,0.499369 0.4994,1.619275 0,2.118644 -0.4994,0.49937 -1.6193,-0.499369 -2.1187,0 -0.4993,0.49937 0.4994,1.619275 0,2.118644 -0.4993,0.49937 -1.6192,-0.499369 -2.1186,0 -0.9987,0.998739 0.9987,3.23855 0,4.237289 -0.4994,0.499369 -1.6193,-0.49937 -2.1186,0 -0.4994,0.499369 0,1.412429 0,2.118644 0,0.513827 -0.068,6.287796 0,6.355932 0.4993,0.499369 1.6192,-0.499369 2.1186,0 0.9987,0.998738 -0.9987,3.23855 0,4.237288 0.4994,0.499369 1.6193,-0.499369 2.1186,0 0.4994,0.499369 -0.4993,1.619275 0,2.118644 0.4994,0.499369 1.6193,-0.499369 2.1187,0 0.4994,0.499369 -0.4994,1.619275 0,2.118644 0.4994,0.499369 1.6193,-0.499369 2.1186,0 0.4994,0.499369 -0.3158,1.486987 0,2.118644 0.4467,0.893299 1.672,1.225346 2.1187,2.118644 0.3158,0.631658 -0.4994,1.619275 0,2.118644 0.4993,0.49937 1.6193,-0.499369 2.1186,0 0,5.649718 -0.7062,-0.706214 2.1187,2.118644 0.4993,0.49937 -0.3159,1.486987 0,2.118645 0.4466,0.893298 1.672,1.225345 2.1186,2.118644 0.6317,1.263315 -0.9987,3.238549 0,4.2372877 0.4994,0.4993692 1.6193,-0.4993692 2.1187,0 0.4993,0.4993692 0,1.4124294 0,2.1186441 0,0.7062147 0,1.4124294 0,2.1186441 0,0.7780435 0.085,8.3893192 0,8.4745762 -0.4994,0.4993692 -1.6193,-0.4993692 -2.1187,0 -2.8248,2.8248588 3.5311,2.1186441 -2.1186,2.1186441"
     id="path523"
     inkscape:connector-curvature="0" />
  <path
     style="fill:none;stroke:#000000;stroke-width:1px;stroke-linecap:butt;stroke-linejoin:miter;stroke-opacity:1"
     d="m 766.94915,-47.516999 c -2.82486,1.41243 -5.64971,2.824859 -8.47457,4.237289 0,0.706214 0.49937,1.619274 0,2.118644 -0.49937,0.499369 -1.61928,-0.49937 -2.11865,0 -0.49937,0.499369 0.49937,1.619275 0,2.118644 -0.49937,0.499369 -1.61927,-0.499369 -2.11864,0 -0.49937,0.499369 0.49937,1.619275 0,2.118644 -0.49937,0.499369 -1.61928,-0.499369 -2.11864,0 -0.99874,0.998738 0.99873,3.23855 0,4.237288 -0.49937,0.499369 -1.61928,-0.499369 -2.11865,0 -0.49937,0.499369 0,1.412429 0,2.118644 0,1.107882 -0.27854,7.917497 0,8.474576 0.44665,0.893299 1.672,1.225346 2.11865,2.118644 0.31582,0.631658 -0.49937,1.619275 0,2.118644 0.49936,0.49937 1.61927,-0.499369 2.11864,0 0.49937,0.49937 -0.49937,1.619275 0,2.118645 0.49937,0.499369 1.61927,-0.49937 2.11864,0 0.49937,0.499369 -0.49937,1.619274 0,2.118644 0.49937,0.499369 1.61928,-0.49937 2.11865,0 0.49937,0.499369 -0.49937,1.619274 0,2.118644 0.49937,0.499369 1.61927,-0.49937 2.11864,0 0.49937,0.499369 -0.49937,1.6192745 0,2.1186437 0.49937,0.4993692 1.48699,-0.3158288 2.11865,0 0.89329,0.4466494 1.22534,1.6719947 2.11864,2.1186441 0.63166,0.3158288 1.61927,-0.4993692 2.11864,0 0.49937,0.4993692 -0.49937,1.6192749 0,2.1186441 0.99874,0.9987383 3.23855,-0.9987384 4.23729,0 0.49937,0.4993692 -0.49937,1.6192748 0,2.118644 0.99874,0.9987384 3.23855,-0.9987384 4.23729,0 0.49937,0.4993692 -0.49937,1.6192749 0,2.1186441 0.50981,0.50981146 7.96476,-0.5098115 8.47458,0 0.49937,0.49936919 -0.49937,1.61927487 0,2.1186441 0.50981,0.5098114 7.96476,-0.50981149 8.47457,0 0.49937,0.4993692 -0.49937,1.6192748 0,2.118644 0.49937,0.4993692 1.41243,0 2.11865,0 0.51382,0 6.28779,0.068135 6.35593,0 0.49937,-0.4993692 0,-1.4124293 0,-2.118644 0,-0.70621472 0.49937,-1.61927491 0,-2.1186441 -0.49937,-0.4993692 -1.61928,0.49936919 -2.11865,0 -0.49936,-0.4993692 0.49937,-1.6192749 0,-2.1186441 -0.49936,-0.4993692 -1.61927,0.4993692 -2.11864,0 -0.49937,-0.4993692 0.49937,-1.6192748 0,-2.118644 -0.49937,-0.4993692 -1.48699,0.3158288 -2.11864,0 -0.8933,-0.4466494 -1.22535,-1.6719947 -2.11865,-2.1186441 -1.26331,-0.6316576 -3.23855,0.9987384 -4.23729,0 -0.49936,-0.4993692 0.49937,-1.6192749 0,-2.1186441 -1.05932,-1.0593217 -5.29661,1.059322 -6.35593,0 -0.49937,-0.4993692 0.49937,-1.6192747 0,-2.1186437 -0.49937,-0.49937 -1.41243,0 -2.11864,0 -3.53108,0 -7.06215,0 -10.59322,0 -1.10788,0 -7.9175,-0.27854 -8.47458,0 -0.8933,0.446649 -1.22534,1.6719943 -2.11864,2.1186437 -0.84003,0.4200126 -5.92281,-0.433128 -6.35593,0 -0.49937,0.4993692 0.49936,1.6192749 0,2.1186441 -1.05933,1.059322 -5.29661,-1.0593221 -6.35594,0 -0.49937,0.4993692 0.49937,1.6192749 0,2.1186441 -0.99874,0.9987383 -3.23855,-0.9987384 -4.23729,0 -0.49936,0.4993692 0.49937,1.6192748 0,2.118644 -0.49936,0.4993692 -1.61927,-0.4993692 -2.11864,0 -2.82486,2.82485879 3.53107,2.1186441 -2.11864,2.1186441"
     id="path525"
     inkscape:connector-curvature="0" />
  <path
     style="fill:none;stroke:#000000;stroke-width:1px;stroke-linecap:butt;stroke-linejoin:miter;stroke-opacity:1"
     d="m 760.59322,613.49995 c 2.82486,-0.70621 5.64972,-1.41243 8.47458,-2.11864 0,-0.70622 -0.49937,-1.61928 0,-2.11865 0.99874,-0.99873 3.23855,0.99874 4.23729,0 0.49937,-0.49937 -0.49937,-1.61927 0,-2.11864 0.99873,-0.99874 3.23855,0.99874 4.23728,0 0.49937,-0.49937 -0.49937,-1.61928 0,-2.11864 0.99874,-0.99874 2.97398,0.63165 4.23729,0 0.8933,-0.44665 1.22535,-1.672 2.11865,-2.11865 0.43459,-0.2173 6.05715,-0.29878 6.35593,0 0.0681,0.0681 0,5.84211 0,6.35593 0,0.70622 0.49937,1.61928 0,2.11865 -0.49937,0.49937 -1.61928,-0.49937 -2.11865,0 -1.05932,1.05932 1.05933,5.29661 0,6.35593 -0.49936,0.49937 -1.61927,-0.49937 -2.11864,0 -1.05932,1.05932 1.05932,5.29661 0,6.35593 -0.49937,0.49937 -1.61927,-0.49937 -2.11864,0 -0.49937,0.49937 0.31583,1.48699 0,2.11865 -0.44665,0.89329 -1.672,1.22534 -2.11865,2.11864 -0.31583,0.63166 0.31583,1.48699 0,2.11864 -0.44665,0.8933 -1.67199,1.22535 -2.11864,2.11865 -0.31583,0.63166 0.49937,1.61927 0,2.11864 -0.49937,0.49937 -1.61928,-0.49937 -2.11865,0 -1.41176,1.41177 1.41177,2.82553 0,4.23729 -0.49937,0.49937 -1.61927,-0.49937 -2.11864,0 -0.49937,0.49937 0.31583,1.48699 0,2.11864 -0.44665,0.8933 -1.67199,1.22535 -2.11864,2.11865 -0.31583,0.63166 0,1.41243 0,2.11864 -0.70622,0.70622 -1.672,1.22535 -2.11865,2.11865 -0.31583,0.63165 0.49937,1.61927 0,2.11864 -0.49937,0.49937 -1.61927,-0.49937 -2.11864,0 -0.49937,0.49937 0.31583,1.48699 0,2.11864 -0.44665,0.8933 -1.672,1.22535 -2.11865,2.11865 -0.31583,0.63166 0.49937,1.61927 0,2.11864 -0.49937,0.49937 -1.61927,-0.49937 -2.11864,0 -0.99874,0.99874 0.99874,3.23855 0,4.23729 -0.49937,0.49937 -1.61928,-0.49937 -2.11864,0 -0.99874,0.99874 0.99873,3.23855 0,4.23729 -0.49937,0.49937 -1.61928,-0.49937 -2.11865,0 -0.49937,0.49937 0.49937,1.61927 0,2.11864 -0.49937,0.49937 -1.61927,-0.49937 -2.11864,0 -0.99874,0.99874 0.99874,3.23855 0,4.23729 -0.49937,0.49937 -1.61928,-0.49937 -2.11865,0 -0.49937,0.49937 0.31583,1.48699 0,2.11865 -2.61801,5.23602 -2.11864,-0.73131 -2.11864,4.23728"
     id="path527"
     inkscape:connector-curvature="0" />
  <path
     style="fill:none;stroke:#000000;stroke-width:1px;stroke-linecap:butt;stroke-linejoin:miter;stroke-opacity:1"
     d="m 773.30509,645.27961 c -1.41243,0.70622 -3.53108,3.53108 -4.23729,2.11865 -0.70622,-1.41243 2.65814,-2.11865 4.23729,-2.11865 4.29574,0 8.4593,1.51114 12.71186,2.11865 0.98405,0.14058 7.82737,0.3236 8.47458,0 0.8933,-0.44665 1.22534,-1.672 2.11864,-2.11865 1.46342,-0.73171 9.84954,0.74369 10.59322,0 0.49937,-0.49937 -0.49937,-1.61927 0,-2.11864 0.57971,-0.57971 7.32524,0.57467 8.47458,0 0.8933,-0.44665 1.22534,-1.672 2.11864,-2.11865 0.64478,-0.32238 5.40179,0 6.35593,0"
     id="path529"
     inkscape:connector-curvature="0" />
  <path
     style="fill:none;stroke:#000000;stroke-width:1px;stroke-linecap:butt;stroke-linejoin:miter;stroke-opacity:1"
     d="m 997.88136,636.80504 c 2.82484,1.41243 5.64974,2.82486 8.47454,4.23728 0,0.70622 -0.4993,1.61928 0,2.11865 0.4994,0.49937 1.6193,-0.49937 2.1187,0 0.4993,0.49937 -0.4994,1.61927 0,2.11864 0.4993,0.49937 1.6193,-0.49937 2.1186,0 0.4994,0.49937 -0.3158,1.48699 0,2.11865 0.4467,0.8933 1.672,1.22534 2.1187,2.11864 0.3158,0.63166 -0.4994,1.61928 0,2.11864 0.4993,0.49937 1.6192,-0.49936 2.1186,0 0.4994,0.49937 -0.3158,1.48699 0,2.11865 0.4467,0.8933 1.672,1.22534 2.1187,2.11864 0.6316,1.26332 -0.9988,3.23855 0,4.23729 0.4993,0.49937 1.6192,-0.49937 2.1186,0 0.096,0.096 0,9.59429 0,10.59322 0,0.70622 0.4994,1.61928 0,2.11865 -0.4994,0.49936 -1.6193,-0.49937 -2.1186,0 -0.4994,0.49936 0.4993,1.61927 0,2.11864 -0.9988,0.99874 -3.2386,-0.99874 -4.2373,0 -0.4994,0.49937 0.4993,1.61927 0,2.11864 -0.4994,0.49937 -1.4125,0 -2.1187,0 -0.7062,0 -1.4124,0 -2.1186,0 -5.6497,0 -11.29946,0 -16.94917,0 -0.77805,0 -8.38932,0.0853 -8.47458,0 -0.49937,-0.49937 0.49937,-1.61927 0,-2.11864 -0.43313,-0.43313 -5.51591,0.42001 -6.35593,0 -0.8933,-0.44665 -1.22535,-1.67199 -2.11865,-2.11864 -0.63165,-0.31583 -1.61927,0.49936 -2.11864,0 -0.49937,-0.49937 0.49937,-1.61928 0,-2.11865 -0.49937,-0.49937 -1.61928,0.49937 -2.11865,0 -0.21186,-0.21186 -0.21186,-6.14407 0,-6.35593 0.49937,-0.49937 1.61928,0.49937 2.11865,0 1.41176,-1.41177 -1.41177,-2.82552 0,-4.23729 0.49937,-0.49937 1.61927,0.49937 2.11864,0 0.49937,-0.49937 -0.49937,-1.61927 0,-2.11864 0.49937,-0.49937 1.61928,0.49937 2.11865,0 0.49937,-0.49937 -0.49937,-1.61928 0,-2.11865 0.49937,-0.49937 1.61927,0.49937 2.11864,0 0.49937,-0.49937 -0.49937,-1.61927 0,-2.11864 0.99874,-0.99874 3.23855,0.99874 4.23729,0 0.49937,-0.49937 -0.49937,-1.61928 0,-2.11865 0.49937,-0.49936 1.61927,0.49937 2.11864,0 0.49937,-0.49936 -0.49937,-1.61927 0,-2.11864 0.99874,-0.99874 3.23855,0.99874 4.23729,0 0.49937,-0.49937 -0.49937,-1.61927 0,-2.11864 0.49937,-0.49937 1.61928,0.49937 2.11865,0 0.49936,-0.49937 -0.49937,-1.61928 0,-2.11865 0.49936,-0.49937 1.69491,0.56497 2.11864,0 1.89497,-2.52663 2.00404,-6.24133 4.23729,-8.47457 3.60104,-3.60101 8.79964,-5.21439 12.71184,-8.47458 0.5426,-0.45211 0,-1.41243 0,-2.11864 0,-0.70622 0.4994,-1.61928 0,-2.11865 -0.9987,-0.99874 -3.2385,0.99874 -4.2373,0 -0.4993,-0.49937 0.4994,-1.61927 0,-2.11864 -0.085,-0.0853 -7.6965,0 -8.47454,0 -0.70622,0 -1.61928,-0.49937 -2.11865,0 -0.49937,0.49937 0.49937,1.61927 0,2.11864 -1.05932,1.05932 -5.29661,-1.05932 -6.35593,0 -2.82486,2.82486 3.53107,2.11865 -2.11864,2.11865"
     id="path531"
     inkscape:connector-curvature="0" />
  <path
     style="fill:none;stroke:#000000;stroke-width:1px;stroke-linecap:butt;stroke-linejoin:miter;stroke-opacity:1"
     d="m 968.22034,424.94063 c -1.41243,2.82486 -3.06433,5.54218 -4.23729,8.47458 -0.26228,0.6557 0,1.41242 0,2.11864 0,0.70621 -0.49937,1.61927 0,2.11864 0.49937,0.49937 1.61928,-0.49937 2.11865,0 0.49937,0.49937 -0.49937,1.61928 0,2.11865 0.49937,0.49937 1.41243,0 2.11864,0 0.70622,0 1.41243,0 2.11864,0 0.51383,0 6.2878,0.0681 6.35594,0 0.49937,-0.49937 -0.49937,-1.61928 0,-2.11865 0.49937,-0.49937 1.61927,0.49937 2.11864,0 0.99874,-0.99873 -0.99874,-3.23855 0,-4.23728 0.49937,-0.49937 1.61928,0.49936 2.11864,0 0.49937,-0.49937 -0.49936,-1.61928 0,-2.11865 0.49937,-0.49937 1.61928,0.49937 2.11865,0 0.99874,-0.99874 -0.99874,-3.23855 0,-4.23729 0.49937,-0.49937 1.61927,0.49937 2.11864,0 0.49937,-0.49937 -0.49937,-1.61927 0,-2.11864 2.82486,-2.82486 2.11865,3.53107 2.11865,-2.11864 0,-5.64972 -0.70622,0.70621 2.11864,-2.11865 0.21187,-0.21186 -0.9887,-7.34463 2.11865,-4.23729 0.0852,0.0853 0,7.69654 0,8.47458 0,5.64972 0.70621,-0.70622 -2.11865,2.11864 -0.49937,0.49937 0,1.41243 0,2.11865 0,0.70621 0,1.41243 0,2.11864 0,7.06215 0,14.1243 0,21.18644 0,4.94351 0,9.88701 0,14.83051 0,0.70622 -0.49937,1.61928 0,2.11864 0.49937,0.49937 1.61928,-0.49936 2.11865,0 1.05932,1.05933 -1.05933,5.29661 0,6.35594 0.49936,0.49937 1.61927,-0.49937 2.11864,0 0.99874,0.99874 -0.99874,3.23855 0,4.23729 0.49937,0.49936 1.61927,-0.49937 2.11864,0 1.05933,1.05932 -1.05932,5.29661 0,6.35593 0.49937,0.49937 1.61928,-0.49937 2.11865,0 1.05932,1.05932 -1.05932,5.29661 0,6.35593 0.49937,0.49937 1.61927,-0.49937 2.11864,0 0.4994,0.49937 0,1.41243 0,2.11864 0,0.70622 0,1.41243 0,2.11865"
     id="path533"
     inkscape:connector-curvature="0" />
  <path
     style="fill:none;stroke:#000000;stroke-width:1px;stroke-linecap:butt;stroke-linejoin:miter;stroke-opacity:1"
     d="m 944.91526,191.88978 c 16.57952,-2.46652 1.5481,7.90404 4.23728,10.59322 0.49937,0.49937 1.61928,-0.49937 2.11865,0 0.43313,0.43313 -0.42001,5.51591 0,6.35593 0.44665,0.8933 1.67199,1.22535 2.11864,2.11865 0.63166,1.26331 -0.99874,3.23855 0,4.23729 0.49937,0.49937 1.61928,-0.49937 2.11865,0 0.99873,0.99873 -0.63166,2.97397 0,4.23728 0.44665,0.8933 1.67199,1.22535 2.11864,2.11865 0.31583,0.63166 -0.31583,1.48698 0,2.11864 0.44665,0.8933 1.67199,1.22535 2.11864,2.11865 1.41243,2.82486 -2.11864,2.11864 2.11865,2.11864"
     id="path535"
     inkscape:connector-curvature="0" />
  <path
     style="fill:none;stroke:#000000;stroke-width:1px;stroke-linecap:butt;stroke-linejoin:miter;stroke-opacity:1"
     d="m 978.81356,208.83893 c -2.82486,0 -5.64972,0 -8.47458,0 0,0.70622 0.49937,1.61928 0,2.11865 -0.49936,0.49937 -1.48698,-0.31583 -2.11864,0 -8.81729,4.40864 2.26491,-0.14626 -2.11864,4.23729 -0.49937,0.49937 -1.61928,-0.49937 -2.11865,0 -0.21186,0.21186 -0.21186,6.14406 0,6.35593 0.49937,0.49937 1.61928,-0.49937 2.11865,0 0.49937,0.49937 -0.49937,1.61927 0,2.11864 0.49937,0.49937 1.61927,-0.49937 2.11864,0 0.49937,0.49937 -0.49937,1.61928 0,2.11865 0.49937,0.49937 1.61928,-0.49937 2.11864,0 0.49937,0.49937 -0.49936,1.61927 0,2.11864 0.99874,0.99874 3.23855,-0.99874 4.23729,0 0.49937,0.49937 -0.49937,1.61928 0,2.11864 0.49937,0.49937 1.41243,0 2.11865,0 0.70621,0 1.61927,0.49937 2.11864,0 0.49937,-0.49936 0,-1.41242 0,-2.11864 0,-0.70621 0,-1.41243 0,-2.11864 0,-5.64972 0,-11.29944 0,-16.94916 z"
     id="path537"
     inkscape:connector-curvature="0" />
  <path
     style="fill:none;stroke:#000000;stroke-width:1px;stroke-linecap:butt;stroke-linejoin:miter;stroke-opacity:1"
     d="m 1241.5254,172.82198 c -2.3165,5.31591 -2.1186,9.51816 -2.1186,14.83051 0,5.64972 0,11.29944 0,16.94916 0,0.70621 0.4994,1.61927 0,2.11864 -0.4994,0.49937 -1.6193,-0.49937 -2.1187,0 -0.085,0.0853 0,7.69653 0,8.47458 0,2.82486 0,5.64971 0,8.47457 0,0.70622 0.7063,2.11865 0,2.11865 -0.7062,0 0,-1.41243 0,-2.11865"
     id="path539"
     inkscape:connector-curvature="0" />
  <path
     style="fill:none;stroke:#000000;stroke-width:1px;stroke-linecap:butt;stroke-linejoin:miter;stroke-opacity:1"
     d="m 1241.5254,172.82198 c 6.3559,3.53108 13.018,6.56004 19.0678,10.59323 0.5876,0.39173 0,1.41242 0,2.11864 0,3.53107 0,7.06215 0,10.59322 0,10.59322 0,21.18644 0,31.77966 0,0.70622 0,1.41243 0,2.11864 0,0.70622 -0.4993,1.61928 0,2.11865 0.4994,0.49937 1.6193,-0.49937 2.1187,0 0.4993,0.49937 0,1.41243 0,2.11864 0,3.53108 0,7.06215 0,10.59322"
     id="path541"
     inkscape:connector-curvature="0" />
  <path
     style="fill:none;stroke:#000000;stroke-width:1px;stroke-linecap:butt;stroke-linejoin:miter;stroke-opacity:1"
     d="m 1188.5593,636.80504 c 0.7062,2.82486 1.5476,5.61932 2.1187,8.47457 0.4711,2.35549 0,5.99852 0,8.47458 0,5.64972 0,11.29943 0,16.94915 0,0.77805 0.085,8.38932 0,8.47458 -0.4994,0.49937 -1.6193,-0.49937 -2.1187,0 -0.4993,0.49937 0,1.41243 0,2.11864 0,0.70622 0,1.41243 0,2.11865 0,7.76836 0,15.53672 0,23.30508 0,0.51383 -0.068,6.2878 0,6.35593 0.4994,0.49937 1.6193,-0.49937 2.1187,0 1.0593,1.05933 -1.0594,5.29661 0,6.35594 0.4993,0.49936 1.4124,0 2.1186,0"
     id="path543"
     inkscape:connector-curvature="0" />
  <path
     style="fill:none;stroke:#000000;stroke-width:1px;stroke-linecap:butt;stroke-linejoin:miter;stroke-opacity:1"
     d="m 1218.2203,649.5169 c 5.8034,-2.46225 11.0024,-2.11864 16.9492,-2.11864 7.0621,0 14.1243,0 21.1864,0 0.999,0 10.4972,-0.096 10.5933,0 0.4993,0.49937 -0.4994,1.61927 0,2.11864 2.8248,2.82486 2.1186,-3.53107 2.1186,2.11864 0,0.70622 0,1.41243 0,2.11865 0,0.70621 0.4994,1.61927 0,2.11864 -0.4994,0.49937 -1.6193,-0.49937 -2.1186,0 -0.4994,0.49937 0.3158,1.48699 0,2.11865 -4.4087,8.81729 0.1462,-2.26491 -4.2373,2.11864 -0.4994,0.49937 0.4993,1.61928 0,2.11865 -0.4994,0.49936 -1.6193,-0.49937 -2.1187,0 -0.4993,0.49936 0.4994,1.61927 0,2.11864 -0.4993,0.49937 -1.6193,-0.49937 -2.1186,0 -0.4994,0.49937 0.4993,1.61927 0,2.11864 -0.4994,0.49937 -1.6193,-0.49937 -2.1187,0 -0.4993,0.49937 0.4994,1.61928 0,2.11865 -0.4993,0.49937 -1.487,-0.31583 -2.1186,0 -0.8933,0.44665 -1.2254,1.67199 -2.1187,2.11864 -0.6316,0.31583 -1.6192,-0.49937 -2.1186,0 -0.4994,0.49937 0.4994,1.61928 0,2.11865 -0.4994,0.49936 -1.6193,-0.49937 -2.1186,0 -0.4994,0.49936 0.4993,1.61927 0,2.11864 -0.4994,0.49937 -1.6193,-0.49937 -2.1187,0 -0.4994,0.49937 0.4994,1.61927 0,2.11864 -0.4994,0.49937 -1.6193,-0.49937 -2.1186,0 -0.4994,0.49937 0.4993,1.61928 0,2.11865 -0.4994,0.49937 -1.6193,-0.49937 -2.1187,0 -0.4993,0.49937 0.4994,1.61927 0,2.11864 -0.4993,0.49937 -1.6192,-0.49937 -2.1186,0 -0.4994,0.49937 0.3158,1.48699 0,2.11865 -0.4467,0.89329 -1.672,1.22534 -2.1187,2.11864 -0.3158,0.63166 0.4994,1.61927 0,2.11864 -0.4993,0.49937 -1.6192,-0.49937 -2.1186,0 -0.4994,0.49937 0.4994,1.61928 0,2.11865 -2.8249,2.82486 -2.1187,-3.53108 -2.1187,2.11864 0,5.64972 0.7063,-0.70621 -2.1186,2.11865 -0.4994,0.49937 0,1.41243 0,2.11864 0,0.70622 0.4994,1.61928 0,2.11864 -0.4994,0.49937 -1.6193,-0.49936 -2.1186,0 -0.9988,0.99874 0.6316,2.97398 0,4.23729 -0.4467,0.8933 -1.672,1.22535 -2.1187,2.11865 -0.3158,0.63165 0,1.41243 0,2.11864 0,0.70622 -0.4994,1.61928 0,2.11864 0.4994,0.49937 1.6193,-0.49936 2.1187,0 0.4993,0.49937 -0.4994,1.61928 0,2.11865 0.4993,0.49937 1.4124,0 2.1186,0 4.2373,0 8.4746,0 12.7119,0 0.7062,0 1.4124,0 2.1186,0 0.7062,0 1.487,0.31583 2.1187,0 0.8933,-0.44665 1.2253,-1.672 2.1186,-2.11865 0.84,-0.42001 5.9228,0.43313 6.3559,0 0.4994,-0.49936 -0.4993,-1.61927 0,-2.11864 0.4332,-0.43313 5.5159,0.42001 6.356,0 0.8933,-0.44665 1.2253,-1.67199 2.1186,-2.11864 0.84,-0.42002 5.9228,0.43312 6.3559,0 0.4994,-0.49937 -0.4993,-1.61928 0,-2.11865 0.5798,-0.57971 7.3253,0.57467 8.4746,0 0.8933,-0.44665 1.2254,-1.67199 2.1187,-2.11864 0.557,-0.27854 7.3667,0 8.4745,0 5.6498,0 11.2995,0 16.9492,0 1.1079,0 7.9175,0.27854 8.4746,0 0.8933,-0.44665 1.2253,-1.672 2.1186,-2.11865 0.6317,-0.31582 1.4124,0 2.1187,0 0.7062,0 1.4124,0 2.1186,0"
     id="path545"
     inkscape:connector-curvature="0" />
  <path
     style="fill:none;stroke:#000000;stroke-width:1px;stroke-linecap:butt;stroke-linejoin:miter;stroke-opacity:1"
     d="m 1629.2373,624.09317 c 0,4.9435 0,9.88701 0,14.83051 0,0.70622 0,1.41243 0,2.11864 0,0.70622 -0.3158,1.48699 0,2.11865 0.4466,0.8933 1.672,1.22534 2.1186,2.11864 0.3224,0.64478 0,5.40179 0,6.35593 0,4.23729 0,8.47458 0,12.71187 0,0.99894 -0.096,10.4972 0,10.59322 2.8249,2.82486 2.1187,-3.53107 2.1187,2.11864 0,4.94351 0,9.88701 0,14.83051 0,0.95415 -0.3224,5.71116 0,6.35593 0.4466,0.8933 1.672,1.22535 2.1186,2.11865 0.2739,0.54778 0,11.21016 0,12.71186"
     id="path547"
     inkscape:connector-curvature="0" />
  <path
     style="fill:none;stroke:#000000;stroke-width:1px;stroke-linecap:butt;stroke-linejoin:miter;stroke-opacity:1"
     d="m 1629.2373,624.09317 c 14.8143,2.45908 29.6067,2.11865 44.4915,2.11865 0.7062,0 1.6193,0.49937 2.1187,0 0.4993,-0.49937 -0.4994,-1.61928 0,-2.11865 0.4993,-0.49937 1.6192,-0.49937 2.1186,0 0.4994,0.49937 0.4994,1.61928 0,2.11865 -0.4994,0.49937 -1.6193,-0.49937 -2.1186,0 -0.4994,0.49937 0.4993,1.61927 0,2.11864 -3.1174,0 -1.6193,-0.49937 -4.2373,2.11864 -0.7062,0.70622 -1.2254,1.672 -2.1187,2.11865 -0.6316,0.31583 -1.6192,-0.49937 -2.1186,0 -0.9988,0.99874 0.9987,3.23855 0,4.23729 -0.4994,0.49937 -1.6193,-0.49937 -2.1187,0 -0.4993,0.49937 0,1.41243 0,2.11864 0,0.70622 0.4994,1.61928 0,2.11864 -0.4993,0.49937 -1.6192,-0.49936 -2.1186,0 -0.068,0.0681 0,5.84211 0,6.35594 0,0.51382 -0.068,6.28779 0,6.35593 0.4994,0.49937 1.487,-0.31583 2.1186,0 8.8173,4.40864 -2.2649,-0.14626 2.1187,4.23729 0.4994,0.49937 1.6193,-0.49937 2.1186,0 0.4994,0.49937 -0.4993,1.61927 0,2.11864 0.4994,0.49937 1.487,-0.31583 2.1187,0 8.8173,4.40865 -2.2649,-0.14626 2.1186,4.23729 0.4994,0.49937 1.6193,-0.49937 2.1187,0 0.4993,0.49937 -0.4994,1.61927 0,2.11864 0.4993,0.49937 1.6192,-0.49937 2.1186,0 0.4994,0.49937 -0.3158,1.48699 0,2.11865 0.8933,1.7866 3.344,2.45069 4.2373,4.23729 0.3158,0.63165 -0.4994,1.61927 0,2.11864 0.4994,0.49937 1.6193,-0.49937 2.1186,0 0.4994,0.49937 -0.4993,1.61927 0,2.11864 0.4994,0.49937 1.6193,-0.49937 2.1187,0 0.4993,0.49937 -0.3158,1.48699 0,2.11865 0.4466,0.8933 1.672,1.22534 2.1186,2.11864 0.3159,0.63166 -0.4993,1.61928 0,2.11865 0.4994,0.49937 1.6193,-0.49937 2.1187,0 0.4993,0.49937 -0.3159,1.48698 0,2.11864 7.0266,7.02666 -0.9988,-1.99748 2.1186,4.23729 0.4467,0.8933 1.672,1.22534 2.1187,2.11864 0.383,0.76617 0,9.11962 0,10.59322 0,0.70622 0.4993,1.61928 0,2.11865 -0.4994,0.49937 -1.6193,-0.49937 -2.1187,0 -0.4994,0.49937 0.4994,1.61927 0,2.11864 -0.4994,0.49937 -1.6193,-0.49937 -2.1186,0 -0.4994,0.49937 0.4993,1.61928 0,2.11864 -0.4994,0.49937 -1.6193,-0.49936 -2.1187,0 -0.4993,0.49937 0.4994,1.61928 0,2.11865 -0.4993,0.49937 -1.6193,-0.49937 -2.1186,0 -0.4994,0.49937 0.3158,1.48699 0,2.11864 -0.8933,1.7866 -3.344,2.45069 -4.2373,4.23729 -0.3158,0.63166 0.4994,1.61928 0,2.11865 -0.4994,0.49936 -1.6193,-0.49937 -2.1187,0 -0.4993,0.49936 0.4994,1.61927 0,2.11864 -0.4993,0.49937 -1.6192,-0.49937 -2.1186,0 -0.4994,0.49937 0.4994,1.61927 0,2.11864 -0.4994,0.49937 -1.6193,0.49937 -2.1186,0 -0.4994,-0.49937 0.4993,-1.61927 0,-2.11864 -0.4994,-0.49937 -1.6193,0.49937 -2.1187,0 -0.4994,-0.49937 0.4994,-1.61928 0,-2.11864 -0.4994,-0.49937 -1.6193,0.49936 -2.1186,0 -1.4144,-1.41437 1.4143,-2.82293 0,-4.23729 -0.4994,-0.49937 -1.6193,0.49937 -2.1187,0 -0.4993,-0.49937 0.4994,-1.61928 0,-2.11865 -2.8248,-2.82486 -2.1186,3.53108 -2.1186,-2.11864"
     id="path549"
     inkscape:connector-curvature="0" />
  <path
     style="fill:none;stroke:#000000;stroke-width:1px;stroke-linecap:butt;stroke-linejoin:miter;stroke-opacity:1"
     d="m 1576.2712,310.53385 c 16.5795,-2.46652 1.5481,7.90403 4.2373,10.59322 0.4993,0.49937 1.6193,-0.49937 2.1186,0 0.4994,0.49937 -0.3158,1.48699 0,2.11864 0.4467,0.8933 1.672,1.22535 2.1187,2.11865 0.6316,1.26331 -0.9988,3.23855 0,4.23729 0.4993,0.49937 1.6192,-0.49937 2.1186,0 0.5098,0.50981 -0.5098,7.96476 0,8.47457 0.4994,0.49937 1.6193,-0.49937 2.1187,0 0.5098,0.50981 -0.5099,7.96477 0,8.47458 0.4993,0.49937 1.6192,-0.49937 2.1186,0 0.5797,0.57971 -0.5747,7.32524 0,8.47457 0.4466,0.8933 1.672,1.22535 2.1186,2.11865 0.3831,0.76617 0,9.11962 0,10.59322 0,0.70621 -0.4993,1.61927 0,2.11864 2.8249,2.82486 2.1187,-3.53107 2.1187,2.11865"
     id="path551"
     inkscape:connector-curvature="0" />
  <path
     style="fill:none;stroke:#000000;stroke-width:1px;stroke-linecap:butt;stroke-linejoin:miter;stroke-opacity:1"
     d="m 1612.2881,308.41521 c 1.4125,2.82485 2.8249,5.64971 4.2373,8.47457 0.7062,0 1.6193,-0.49937 2.1187,0 0.9987,0.99874 -0.9988,3.23855 0,4.23729 0.4993,0.49937 1.6192,-0.49937 2.1186,0 0.9988,0.99874 -0.9987,3.23855 0,4.23729 0.4994,0.49937 1.6193,-0.49937 2.1187,0 0,5.64972 -0.7063,-0.70622 2.1186,2.11864 0.4994,0.49937 -0.4994,1.61928 0,2.11865 0.4994,0.49937 1.6193,-0.49937 2.1186,0 0.4994,0.49937 -0.4993,1.61927 0,2.11864 0.4994,0.49937 1.4125,0 2.1187,0 0.7062,0 1.4124,0 2.1186,0 0.7062,0 1.4125,0 2.1187,0 0.7062,0 1.6193,0.49937 2.1186,0 0.4994,-0.49937 -0.4993,-1.61927 0,-2.11864 0.4994,-0.49937 1.6193,0.49937 2.1187,0 0.9987,-0.99874 -0.9988,-3.23855 0,-4.23729 0.4993,-0.49937 1.6192,0.49937 2.1186,0 0.9987,-0.99874 -0.6316,-2.97397 0,-4.23729 0.4467,-0.8933 1.672,-1.22535 2.1187,-2.11864 0.6316,-1.26332 -0.6317,-2.97398 0,-4.23729 2.618,-5.23603 2.1186,0.73131 2.1186,-4.23729 0,-0.77804 -0.085,-8.38932 0,-8.47458 0.4994,-0.49937 1.6193,0.49937 2.1186,0 0.9988,-0.99874 -1.4124,-4.23728 0,-4.23728 1.4125,0 -0.6316,2.97397 0,4.23728 0.4467,0.8933 1.672,1.22535 2.1187,2.11865 0.2739,0.54777 0,11.21016 0,12.71186 0,0.70622 -0.4994,1.61928 0,2.11865 0.4994,0.49936 1.6193,-0.49937 2.1186,0 0.068,0.0681 0,5.8421 0,6.35593 0,1.4736 -0.3831,9.82705 0,10.59322 0.4467,0.8933 1.672,1.22534 2.1187,2.11864 0.6658,1.33162 -0.6658,7.14296 0,8.47458 0.4466,0.8933 1.672,1.22534 2.1186,2.11864 0.42,0.84003 -0.4331,5.92281 0,6.35593 0.4994,0.49937 1.6193,-0.49936 2.1187,0 0.9987,0.99874 -0.9988,3.23855 0,4.23729 0.4993,0.49937 1.6192,-0.49937 2.1186,0 0.4994,0.49937 0,1.41243 0,2.11865 0,0.70621 0,1.41243 0,2.11864"
     id="path553"
     inkscape:connector-curvature="0" />
</svg>
