<?xml version="1.0" encoding="UTF-8" standalone="no"?>
<!-- Created with Inkscape (http://www.inkscape.org/) -->

<svg
   xmlns:dc="http://purl.org/dc/elements/1.1/"
   xmlns:cc="http://creativecommons.org/ns#"
   xmlns:rdf="http://www.w3.org/1999/02/22-rdf-syntax-ns#"
   xmlns:svg="http://www.w3.org/2000/svg"
   xmlns="http://www.w3.org/2000/svg"
   xmlns:sodipodi="http://sodipodi.sourceforge.net/DTD/sodipodi-0.dtd"
   xmlns:inkscape="http://www.inkscape.org/namespaces/inkscape"
   version="1.1"
   id="svg1087"
   xml:space="preserve"
   width="83.653946"
   height="70.341118"
   viewBox="0 0 83.653947 70.341121"
   sodipodi:docname="separation-cor-diagram-cropped.svg"
   inkscape:version="0.92.4 5da689c313, 2019-01-14"><metadata
     id="metadata1093"><rdf:RDF><cc:Work
         rdf:about=""><dc:format>image/svg+xml</dc:format><dc:type
           rdf:resource="http://purl.org/dc/dcmitype/StillImage" /><dc:title></dc:title></cc:Work></rdf:RDF></metadata><defs
     id="defs1091"><inkscape:path-effect
       effect="simplify"
       id="path-effect5889"
       is_visible="true"
       steps="1"
       threshold="0.000408163"
       smooth_angles="360"
       helper_size="0"
       simplify_individual_paths="false"
       simplify_just_coalesce="false"
       simplifyindividualpaths="false"
       simplifyJustCoalesce="false" /><inkscape:path-effect
       effect="simplify"
       id="path-effect5876"
       is_visible="true"
       steps="1"
       threshold="0.000408163"
       smooth_angles="360"
       helper_size="0"
       simplify_individual_paths="false"
       simplify_just_coalesce="false"
       simplifyindividualpaths="false"
       simplifyJustCoalesce="false" /><inkscape:path-effect
       effect="simplify"
       id="path-effect1950"
       is_visible="true"
       steps="1"
       threshold="0.000408163"
       smooth_angles="360"
       helper_size="0"
       simplify_individual_paths="false"
       simplify_just_coalesce="false"
       simplifyindividualpaths="false"
       simplifyJustCoalesce="false" /><inkscape:path-effect
       effect="simplify"
       id="path-effect1946"
       is_visible="true"
       steps="1"
       threshold="0.000408163"
       smooth_angles="360"
       helper_size="0"
       simplify_individual_paths="false"
       simplify_just_coalesce="false"
       simplifyindividualpaths="false"
       simplifyJustCoalesce="false" /><inkscape:path-effect
       effect="simplify"
       id="path-effect1942"
       is_visible="true"
       steps="1"
       threshold="0.000408163"
       smooth_angles="360"
       helper_size="0"
       simplify_individual_paths="false"
       simplify_just_coalesce="false"
       simplifyindividualpaths="false"
       simplifyJustCoalesce="false" /><inkscape:path-effect
       effect="simplify"
       id="path-effect1887"
       is_visible="true"
       steps="1"
       threshold="0.000408163"
       smooth_angles="360"
       helper_size="0"
       simplify_individual_paths="false"
       simplify_just_coalesce="false"
       simplifyindividualpaths="false"
       simplifyJustCoalesce="false" /><inkscape:path-effect
       effect="simplify"
       id="path-effect1865"
       is_visible="true"
       steps="1"
       threshold="0.000408163"
       smooth_angles="360"
       helper_size="0"
       simplify_individual_paths="false"
       simplify_just_coalesce="false"
       simplifyindividualpaths="false"
       simplifyJustCoalesce="false" /><inkscape:path-effect
       effect="simplify"
       id="path-effect1861"
       is_visible="true"
       steps="1"
       threshold="0.000408163"
       smooth_angles="360"
       helper_size="0"
       simplify_individual_paths="false"
       simplify_just_coalesce="false"
       simplifyindividualpaths="false"
       simplifyJustCoalesce="false" /><inkscape:path-effect
       effect="simplify"
       id="path-effect1841"
       is_visible="true"
       steps="1"
       threshold="0.000408163"
       smooth_angles="360"
       helper_size="0"
       simplify_individual_paths="false"
       simplify_just_coalesce="false"
       simplifyindividualpaths="false"
       simplifyJustCoalesce="false" /><inkscape:path-effect
       effect="simplify"
       id="path-effect1832"
       is_visible="true"
       steps="1"
       threshold="0.000408163"
       smooth_angles="360"
       helper_size="0"
       simplify_individual_paths="false"
       simplify_just_coalesce="false"
       simplifyindividualpaths="false"
       simplifyJustCoalesce="false" /><inkscape:path-effect
       effect="simplify"
       id="path-effect1794"
       is_visible="true"
       steps="1"
       threshold="0.000408163"
       smooth_angles="360"
       helper_size="0"
       simplify_individual_paths="false"
       simplify_just_coalesce="false"
       simplifyindividualpaths="false"
       simplifyJustCoalesce="false" /><inkscape:path-effect
       effect="simplify"
       id="path-effect1790"
       is_visible="true"
       steps="1"
       threshold="0.000408163"
       smooth_angles="360"
       helper_size="0"
       simplify_individual_paths="false"
       simplify_just_coalesce="false"
       simplifyindividualpaths="false"
       simplifyJustCoalesce="false" /><inkscape:path-effect
       effect="simplify"
       id="path-effect1777"
       is_visible="true"
       steps="1"
       threshold="0.000408163"
       smooth_angles="360"
       helper_size="0"
       simplify_individual_paths="false"
       simplify_just_coalesce="false"
       simplifyindividualpaths="false"
       simplifyJustCoalesce="false" /><inkscape:path-effect
       effect="simplify"
       id="path-effect1753"
       is_visible="true"
       steps="1"
       threshold="0.000408163"
       smooth_angles="360"
       helper_size="0"
       simplify_individual_paths="false"
       simplify_just_coalesce="false"
       simplifyindividualpaths="false"
       simplifyJustCoalesce="false" /><inkscape:path-effect
       effect="simplify"
       id="path-effect1749"
       is_visible="true"
       steps="1"
       threshold="0.000408163"
       smooth_angles="360"
       helper_size="0"
       simplify_individual_paths="false"
       simplify_just_coalesce="false"
       simplifyindividualpaths="false"
       simplifyJustCoalesce="false" /><inkscape:path-effect
       effect="simplify"
       id="path-effect1741"
       is_visible="true"
       steps="1"
       threshold="0.000408163"
       smooth_angles="360"
       helper_size="0"
       simplify_individual_paths="false"
       simplify_just_coalesce="false"
       simplifyindividualpaths="false"
       simplifyJustCoalesce="false" /><inkscape:path-effect
       effect="simplify"
       id="path-effect1729"
       is_visible="true"
       steps="1"
       threshold="0.000408163"
       smooth_angles="360"
       helper_size="0"
       simplify_individual_paths="false"
       simplify_just_coalesce="false"
       simplifyindividualpaths="false"
       simplifyJustCoalesce="false" /><inkscape:path-effect
       effect="simplify"
       id="path-effect1683"
       is_visible="true"
       steps="1"
       threshold="0.000408163"
       smooth_angles="360"
       helper_size="0"
       simplify_individual_paths="false"
       simplify_just_coalesce="false"
       simplifyindividualpaths="false"
       simplifyJustCoalesce="false" /><inkscape:path-effect
       effect="simplify"
       id="path-effect1676"
       is_visible="true"
       steps="1"
       threshold="0.000408163"
       smooth_angles="360"
       helper_size="0"
       simplify_individual_paths="false"
       simplify_just_coalesce="false"
       simplifyindividualpaths="false"
       simplifyJustCoalesce="false" /><inkscape:path-effect
       effect="simplify"
       id="path-effect1676-2"
       is_visible="true"
       steps="1"
       threshold="0.000408163"
       smooth_angles="360"
       helper_size="0"
       simplify_individual_paths="false"
       simplify_just_coalesce="false"
       simplifyindividualpaths="false"
       simplifyJustCoalesce="false" /><inkscape:path-effect
       effect="simplify"
       id="path-effect1942-2"
       is_visible="true"
       steps="1"
       threshold="0.000408163"
       smooth_angles="360"
       helper_size="0"
       simplify_individual_paths="false"
       simplify_just_coalesce="false"
       simplifyindividualpaths="false"
       simplifyJustCoalesce="false" /><inkscape:path-effect
       effect="simplify"
       id="path-effect1794-2"
       is_visible="true"
       steps="1"
       threshold="0.000408163"
       smooth_angles="360"
       helper_size="0"
       simplify_individual_paths="false"
       simplify_just_coalesce="false"
       simplifyindividualpaths="false"
       simplifyJustCoalesce="false" /><inkscape:path-effect
       effect="simplify"
       id="path-effect1861-6"
       is_visible="true"
       steps="1"
       threshold="0.000408163"
       smooth_angles="360"
       helper_size="0"
       simplify_individual_paths="false"
       simplify_just_coalesce="false"
       simplifyindividualpaths="false"
       simplifyJustCoalesce="false" /><inkscape:path-effect
       effect="simplify"
       id="path-effect1741-1"
       is_visible="true"
       steps="1"
       threshold="0.000408163"
       smooth_angles="360"
       helper_size="0"
       simplify_individual_paths="false"
       simplify_just_coalesce="false"
       simplifyindividualpaths="false"
       simplifyJustCoalesce="false" /><inkscape:path-effect
       effect="simplify"
       id="path-effect1676-0"
       is_visible="true"
       steps="1"
       threshold="0.000408163"
       smooth_angles="360"
       helper_size="0"
       simplify_individual_paths="false"
       simplify_just_coalesce="false"
       simplifyindividualpaths="false"
       simplifyJustCoalesce="false" /><inkscape:path-effect
       effect="simplify"
       id="path-effect1676-9"
       is_visible="true"
       steps="1"
       threshold="0.000408163"
       smooth_angles="360"
       helper_size="0"
       simplify_individual_paths="false"
       simplify_just_coalesce="false"
       simplifyindividualpaths="false"
       simplifyJustCoalesce="false" /><inkscape:path-effect
       effect="simplify"
       id="path-effect1676-91"
       is_visible="true"
       steps="1"
       threshold="0.000408163"
       smooth_angles="360"
       helper_size="0"
       simplify_individual_paths="false"
       simplify_just_coalesce="false"
       simplifyindividualpaths="false"
       simplifyJustCoalesce="false" /><inkscape:path-effect
       effect="simplify"
       id="path-effect1683-7"
       is_visible="true"
       steps="1"
       threshold="0.000408163"
       smooth_angles="360"
       helper_size="0"
       simplify_individual_paths="false"
       simplify_just_coalesce="false"
       simplifyindividualpaths="false"
       simplifyJustCoalesce="false" /></defs><sodipodi:namedview
     pagecolor="#ffffff"
     bordercolor="#666666"
     borderopacity="1"
     objecttolerance="10"
     gridtolerance="10"
     guidetolerance="10"
     inkscape:pageopacity="0"
     inkscape:pageshadow="2"
     inkscape:window-width="1910"
     inkscape:window-height="1026"
     id="namedview1089"
     showgrid="false"
     inkscape:zoom="7.2419293"
     inkscape:cx="36.569823"
     inkscape:cy="42.005273"
     inkscape:window-x="3"
     inkscape:window-y="47"
     inkscape:window-maximized="0"
     inkscape:current-layer="g1095" /><g
     id="g1095"
     inkscape:groupmode="layer"
     inkscape:label="separation-cor-diagram"
     transform="matrix(1.3333333,0,0,-1.3333333,-73.320678,129.38636)"><g
       id="g1097"
       transform="translate(-45.592,115.512)"><g
         id="g1099"><g
           id="g1101"><g
             id="g1103"><path
               d="m 111.07312,-43.54184 v 0 c 0.91614,1.59259 2.05197,3.05888 3.36518,4.34528 v 0 c 1.44294,1.41266 3.09351,2.59869 4.83058,3.62033 v 0 c 2.09954,1.23533 4.31845,2.25091 6.54777,3.22673 v 0 c 0.38925,0.17042 0.77855,0.33912 1.16869,0.50781"
               style="fill:none;stroke:#000000;stroke-width:0.3985;stroke-linecap:butt;stroke-linejoin:miter;stroke-miterlimit:10;stroke-dasharray:none;stroke-opacity:1"
               id="path1105"
               inkscape:connector-curvature="0" /></g><g
             id="g1107"><path
               d="m 141.15157,-27.532237 c 3.49099,1.97673 12.69172,5.648747 22.1673,5.453691 m -62.70423,2.935316 c 7.31683,1.19551 13.56325,0.06573 20.38957,-2.75011 v 0 c 9.0435,-3.73193 16.93732,-10.30043 22.07501,-18.63977 v 0 c 1.77513,-2.88069 3.5001,-5.89896 4.21639,-9.20787 v 0 c 0.71973,-3.32623 0.55536,-6.88341 -0.74831,-10.05392 v 0 c -1.36506,-3.32104 -3.96896,-6.03388 -7.0469,-7.83672 v 0 c -3.23105,-1.89107 -6.96299,-2.85648 -10.69146,-2.99056"
               style="fill:none;stroke:#000000;stroke-width:0.3985;stroke-linecap:butt;stroke-linejoin:miter;stroke-miterlimit:10;stroke-dasharray:none;stroke-opacity:1"
               id="path1109"
               inkscape:connector-curvature="0"
               sodipodi:nodetypes="cccccccccccccc" /></g><g
             id="g1111"><g
               id="g1113"><path
                 d="m 128.80894,-70.62218 v 0 c -1.88674,-0.12803 -3.79597,0.0571 -5.61695,0.56922 v 0 c -1.89626,0.53289 -3.68435,1.42564 -5.27524,2.58313 v 0 c -2.03551,1.48011 -3.75011,3.37811 -5.10135,5.49665 v 0 c -1.31665,2.06322 -2.30629,4.3375 -2.90581,6.71129 v 0 c -0.46193,1.82877 -0.69983,3.72153 -0.61592,5.60828 v 0 c 0.0666,1.50783 0.33824,3.01653 0.90489,4.41882 v 0 c 0.23787,0.58997 0.52768,1.15919 0.87456,1.69295"
                 style="fill:none;stroke:#ff4c4c;stroke-width:0.3985;stroke-linecap:butt;stroke-linejoin:miter;stroke-miterlimit:10;stroke-dasharray:none;stroke-opacity:1"
                 id="path1115"
                 inkscape:connector-curvature="0" /></g><g
               id="g1117"><path
                 d="m 123.38837,-70.10747 v 0 c -1.79679,0.48099 -3.50269,1.28377 -5.03821,2.33225 v 0 c -1.84176,1.25697 -3.43781,2.85734 -4.75101,4.65585 v 0 c -1.41698,1.9395 -2.51909,4.10736 -3.26478,6.39031 v 0 c -0.59519,1.82618 -0.96976,3.73107 -1.04328,5.6524 v 0 c -0.0502,1.29071 0.0363,2.59004 0.30538,3.8548"
                 style="fill:none;stroke:#fff766;stroke-width:0.3985;stroke-linecap:butt;stroke-linejoin:miter;stroke-miterlimit:10;stroke-dasharray:none;stroke-opacity:1"
                 id="path1119"
                 inkscape:connector-curvature="0" /></g><g
               id="g1121"><path
                 d="m 118.74289,-68.03648 v 0 c -1.69901,1.09433 -3.20163,2.48106 -4.47415,4.04856 v 0 c -1.4196,1.74832 -2.56325,3.71723 -3.4041,5.80552 v 0 c -0.71193,1.76997 -1.21282,3.62812 -1.44553,5.52351 v 0 c -0.045,0.36768 -0.0796,0.73618 -0.10382,1.10559"
                 style="fill:none;stroke:#66ff66;stroke-width:0.3985;stroke-linecap:butt;stroke-linejoin:miter;stroke-miterlimit:10;stroke-dasharray:none;stroke-opacity:1"
                 id="path1123"
                 inkscape:connector-curvature="0" /></g><g
               id="g1125"><path
                 d="m 114.94348,-64.77773 v 0 c -1.29329,1.43949 -2.38327,3.05803 -3.25702,4.78386 v 0 c -0.62112,1.22667 -1.13324,2.50787 -1.52686,3.82537"
                 style="fill:none;stroke:#8080ff;stroke-width:0.3985;stroke-linecap:butt;stroke-linejoin:miter;stroke-miterlimit:10;stroke-dasharray:none;stroke-opacity:1"
                 id="path1127"
                 inkscape:connector-curvature="0" /></g></g></g></g></g><g
       id="g5868"><path
         transform="matrix(1.0618128,0,0,1.0294742,-3.8775319,-1.7720593)"
         sodipodi:nodetypes="cccccccccccccccc"
         inkscape:connector-curvature="0"
         d="m 70.740638,52.35982 c -0.501126,0.669899 -1.026674,1.317143 -1.53616,1.984531 -0.320777,0.420193 -0.649844,0.837566 -0.905703,1.302093 -0.227948,0.413853 -0.422149,0.846335 -0.57658,1.293088 -0.204472,0.591514 -0.279939,1.218284 -0.453066,1.819249 -0.078,0.270763 -0.12488,0.560046 -0.287679,0.797042 -0.09258,0.134771 -0.247742,0.203642 -0.407919,0.240968 -0.426138,0.0993 -0.869739,0.120239 -1.303536,0.06131 -0.498555,-0.06772 -1.006091,-0.152113 -1.460469,-0.364937 -0.231864,-0.108602 -0.465614,-0.230519 -0.643676,-0.419882 -0.110438,-0.117447 -0.125908,-0.303903 -0.250149,-0.404476 -0.05692,-0.04608 -0.07097,-0.09679 -0.0719,-0.175084 -0.009,-0.758029 0.174635,-1.503229 0.420522,-2.215573 0.229555,-0.66503 0.428052,-1.345703 0.741401,-1.975519 0.329244,-0.661765 0.685321,-1.309923 1.065728,-1.943876 0.181843,-0.303044 0.376501,-0.598141 0.560622,-0.899743 0.189594,-0.310567 0.34326,-0.645724 0.577286,-0.926838 0.121552,-0.146009 0.387232,-0.554183 0.430376,-0.369272 0.09037,0.387332 0.30275,0.736971 0.561455,1.034271 0.244538,0.281019 0.528318,0.540439 0.868783,0.696777 0.510511,0.234422 1.03194,0.463984 1.587098,0.565686 0.315761,0.05785 0.65723,0.08764 0.958763,-0.03952 0.06431,-0.02712 0.125888,-0.05919 0.175148,-0.112447 0.101209,-0.109431 0.14113,-0.265256 0.115148,-0.412538 -0.03325,-0.188497 -0.105365,-0.366925 -0.204708,-0.527978 -0.04675,-0.07579 -0.114356,-0.142177 -0.174506,-0.209733 -0.33066,-0.371374 -0.703096,-0.733784 -1.174239,-0.913058 -0.535598,-0.2038 -1.084757,-0.404674 -1.661406,-0.440894 -0.253679,-0.01593 -0.516213,-0.01704 -0.758229,0.06298 -0.1355,0.0448 -0.276431,0.143303 -0.293307,0.296446"
         id="path1674"
         inkscape:original-d="m 70.740638,52.35982 c -0.504133,0.673525 -1.096602,1.269571 -1.53616,1.984531 -0.550033,0.720964 -0.826252,1.055048 -1.252109,2.001168 -0.309338,0.712341 -0.543463,1.562126 -0.680539,2.403881 -0.115562,0.398711 -0.19007,0.995072 -0.698299,1.047391 -0.906954,0.204993 -1.593822,0.06676 -2.764005,-0.303624 -0.902653,-0.410185 -0.671117,-0.64912 -0.963647,-0.892952 -0.04624,-1.51998 0.628753,-2.803708 1.159849,-4.297582 0.470781,-0.939161 0.815244,-1.569141 1.53827,-2.699623 0.415391,-0.66305 0.546597,-1.103076 1.095742,-1.440106 0.160381,0.713405 0.855481,1.46548 1.444052,1.737511 0.799184,0.368719 1.974806,0.852729 2.656846,0.459405 0.393827,-0.370305 0.0066,-0.753581 -0.04172,-1.00452 -0.401147,-0.471476 -0.843409,-0.937297 -1.443253,-1.147702 -0.723449,-0.273209 -1.518392,-0.531401 -2.295274,-0.349663 -0.145347,0.0419 -0.301582,0.140487 -0.320651,0.304969"
         inkscape:path-effect="#path-effect1676"
         style="fill:none;stroke:#000000;stroke-width:0.28693897;stroke-linecap:butt;stroke-linejoin:miter;stroke-miterlimit:4;stroke-dasharray:none;stroke-opacity:1" /><path
         sodipodi:nodetypes="cccc"
         inkscape:connector-curvature="0"
         d="m 62.811303,58.616974 c 0.17601,-0.09077 0.375907,-0.122387 0.571649,-0.131306 0.331062,-0.01508 0.661884,0.02507 0.987578,0.08085 0.2183,0.03739 0.4363,0.07743 0.652125,0.127047 0.450139,0.103483 0.880529,0.282319 1.284802,0.503852 0.168233,0.09219 0.306225,0.24823 0.490994,0.299819 0.04684,0.01308 0.09827,0.03611 0.116948,0.08526 0.0074,0.01952 0.01015,0.04046 0.01121,0.06121"
         id="path1681"
         inkscape:original-d="m 62.811303,58.616974 c 0.539645,-0.282776 1.587727,-0.05017 2.159912,0.06527 0.62636,0.1332 1.280013,0.44434 1.827236,0.814994 0.08988,0.02625 0.123964,0.06056 0.128153,0.146461"
         inkscape:path-effect="#path-effect1683"
         style="fill:none;stroke:#000000;stroke-width:0.39825001;stroke-linecap:butt;stroke-linejoin:miter;stroke-miterlimit:4;stroke-dasharray:none;stroke-opacity:1" /></g><g
       id="g2099"><path
         sodipodi:nodetypes="cccccc"
         inkscape:connector-curvature="0"
         d="m 63.72329,63.9587 c -0.180483,-0.01478 -0.362411,-0.03686 -0.533933,-0.09791 -0.155563,-0.05537 -0.299167,-0.14098 -0.455566,-0.193428 -0.03701,-0.01241 -0.06636,-0.03859 -0.09506,-0.06397 -0.08882,-0.07857 -0.175274,-0.163096 -0.237024,-0.26472 -0.02638,-0.04341 -0.05567,-0.0913 -0.05106,-0.143867 0.0044,-0.0499 0.05974,-0.06862 0.102558,-0.06945 0.092,-0.0018 0.183912,-0.0079 0.275862,-0.0121 0.392559,-0.01776 0.787322,-0.02077 1.178054,0.02787 0.190875,0.02376 0.379305,0.06328 0.566636,0.106647 0.12617,0.02921 0.256625,0.05027 0.373309,0.109413 0.07609,0.03856 0.13979,0.102123 0.173979,0.181035 0.02038,0.04704 0.06684,0.107872 0.03601,0.148646 -0.06797,0.08987 -0.172126,0.143648 -0.27621,0.180136 -0.170723,0.05985 -0.351634,0.08453 -0.531452,0.09577 -0.175175,0.01095 -0.351074,0.0084 -0.526096,-0.0041 z"
         id="path1727"
         inkscape:original-d="m 63.72329,63.9587 c -0.465527,-0.03833 -0.548408,-0.09738 -1.022177,-0.305747 -0.15106,-0.105987 -0.567899,-0.541066 -0.209385,-0.528092 0.715637,-0.03748 1.267521,-0.05176 1.955112,0.116766 0.287087,0.06668 0.576772,0.09306 0.610208,0.445238 -0.188615,0.25426 -0.801109,0.310288 -1.333758,0.271835 z"
         inkscape:path-effect="#path-effect1729"
         style="fill:none;stroke:#000000;stroke-width:0.375;stroke-linecap:butt;stroke-linejoin:miter;stroke-miterlimit:4;stroke-dasharray:none;stroke-opacity:1" /><path
         sodipodi:nodetypes="ccccccccc"
         inkscape:connector-curvature="0"
         d="m 62.326959,63.225553 c 0.152737,-0.703187 0.282704,-1.411163 0.445384,-2.112259 0.110036,-0.474218 0.189791,-0.957962 0.349701,-1.417842 0.07799,-0.224303 0.170575,-0.442846 0.267164,-0.659787 0.01473,-0.03309 -0.0027,-0.104495 0.02424,-0.107955 0.449133,-0.05774 0.912174,-0.05828 1.352207,0.05806 0.148233,0.03919 0.292631,0.09127 0.43714,0.142133 0.266354,0.09375 0.537652,0.197894 0.753003,0.384776 0.02377,0.02063 0.08808,0.06373 0.07892,0.07195 -0.03068,0.02752 -0.01731,0.0843 -0.03061,0.124908 -0.03973,0.12132 -0.07295,0.244889 -0.108712,0.367526 -0.09823,0.336908 -0.200576,0.672934 -0.278413,1.015364 -0.03948,0.173708 -0.08451,0.346515 -0.113808,0.522194 -0.04449,0.266723 -0.103951,0.530677 -0.162093,0.794669 -0.0912,0.414095 -0.18735,0.827078 -0.279466,1.240967"
         id="path1739"
         inkscape:original-d="m 62.326959,63.225553 c 0.154793,-0.712384 0.266556,-1.347247 0.432801,-2.057279 0.105465,-0.466259 0.261253,-1.008758 0.362284,-1.472822 0.07677,-0.230711 0.313762,-0.695022 0.285561,-0.766984 0.498892,-0.06493 1.022666,-0.0575 1.506695,0.100997 0.496807,0.16681 0.828536,0.277919 1.126236,0.557612 -0.03442,-0.01997 -0.01127,0.0724 -0.04742,0.152977 -0.285845,0.99363 -0.29438,0.954427 -0.487357,1.857462 -0.05113,0.35097 -0.341864,1.588388 -0.44413,2.052731"
         inkscape:path-effect="#path-effect1741"
         style="fill:none;stroke:#000000;stroke-width:0.30000001;stroke-linecap:butt;stroke-linejoin:miter;stroke-miterlimit:4;stroke-dasharray:none;stroke-opacity:1" /></g><path
       style="fill:none;stroke:#000000;stroke-width:0.30000001;stroke-linecap:butt;stroke-linejoin:miter;stroke-miterlimit:4;stroke-dasharray:none;stroke-opacity:1"
       inkscape:path-effect="#path-effect1794"
       inkscape:original-d="m 71.924888,46.953139 c 0.588131,-0.114251 0.915459,0.156192 1.281574,0.789636 0.181249,0.3868 0.673732,1.751021 -0.0371,1.560759 -0.654059,-0.382029 -1.543853,-1.826938 -1.244477,-2.350395 -0.623163,0.205115 -1.352925,0.874084 -1.622558,1.085222 -0.708364,0.63614 -0.504049,0.412163 -1.041306,0.963497 -0.330673,0.340858 -0.40209,0.365221 -0.645881,0.678203 -0.243792,0.312982 -0.830157,0.573412 -0.707565,1.089256 0.145508,0.518105 0.284923,0.483676 0.768928,0.733566 0.258819,0.154763 0.810444,0.308046 1.08545,0.358139 0.361328,0.06582 0.714716,-0.253606 0.953932,-0.47666 0.791884,-0.590701 1.862483,-1.450779 2.658852,-2.06215"
       id="path1792"
       d="m 71.924888,46.953139 c 0.196106,-0.03926 0.406489,-0.03759 0.59272,0.04308 0.204465,0.08857 0.362059,0.256253 0.489273,0.434508 0.07469,0.104656 0.153558,0.208722 0.206079,0.326045 0.113814,0.25424 0.210113,0.517649 0.27121,0.789471 0.03857,0.171616 0.07388,0.349245 0.05071,0.525369 -0.0114,0.08665 -0.04566,0.182286 -0.128141,0.224647 -0.0734,0.0377 -0.169173,0.04824 -0.237376,0.0073 -0.214852,-0.129049 -0.393699,-0.309876 -0.552344,-0.501697 -0.246755,-0.298357 -0.461323,-0.627418 -0.606957,-0.986668 -0.07956,-0.196251 -0.149619,-0.403958 -0.144722,-0.617915 0.0019,-0.0842 0.140142,-0.271337 0.05955,-0.244115 -0.28229,0.09535 -0.538252,0.253555 -0.781477,0.422891 -0.278827,0.194123 -0.536736,0.41572 -0.800189,0.629717 -0.09986,0.08111 -0.194216,0.16881 -0.290188,0.254506 -0.181421,0.161996 -0.370412,0.315572 -0.542546,0.487897 -0.184243,0.184447 -0.362558,0.374863 -0.553049,0.552998 -0.12679,0.118566 -0.23777,0.252251 -0.348072,0.386239 -0.132016,0.160364 -0.303261,0.280949 -0.45065,0.426004 -0.118049,0.116179 -0.226404,0.254617 -0.258873,0.421299 -0.02016,0.103514 -0.0015,0.209637 0.0299,0.309392 0.04475,0.142107 0.103987,0.289965 0.22484,0.384304 0.115541,0.09019 0.252932,0.145029 0.384748,0.20628 0.07389,0.03434 0.143888,0.07626 0.217218,0.111621 0.226738,0.109337 0.467639,0.187299 0.711337,0.247885 0.11399,0.02834 0.227586,0.06383 0.344817,0.07362 0.189669,0.01584 0.37099,-0.06767 0.525065,-0.170637 0.136326,-0.0911 0.247186,-0.214689 0.378119,-0.312789 0.897669,-0.672565 1.769568,-1.378678 2.658852,-2.06215"
       inkscape:connector-curvature="0"
       sodipodi:nodetypes="ccccccsccscc"
       transform="matrix(1.0648494,0,0,1.1762702,-4.2623488,-9.1534697)" /><path
       style="fill:none;stroke:#000000;stroke-width:0;stroke-linecap:butt;stroke-linejoin:miter;stroke-miterlimit:4;stroke-dasharray:none;stroke-opacity:1"
       inkscape:path-effect="#path-effect1832"
       inkscape:original-d="m 68.177595,49.998119 c 0.863368,0.09984 1.63646,0.570804 2.311091,1.092484 0.475026,0.280602 0.03095,0.825262 -0.398441,0.552382 -0.66461,-0.168842 -1.357403,-0.426018 -1.775382,-1.00413 -0.171588,-0.193584 -0.32798,-0.4759 -0.19218,-0.73229"
       id="path1830"
       d="m 68.177595,49.998119 c 0.428976,0.04924 0.84254,0.193284 1.226322,0.388052 0.385335,0.195556 0.712651,0.486016 1.084769,0.704432 0.08479,0.04977 0.161191,0.122915 0.192195,0.218806 0.02995,0.09263 0.0027,0.196188 -0.05728,0.271318 -0.08285,0.103728 -0.223515,0.151982 -0.353934,0.131886 -0.06396,-0.0099 -0.116886,-0.0537 -0.179424,-0.06963 -0.364946,-0.09297 -0.727484,-0.208859 -1.059011,-0.390388 -0.263044,-0.144031 -0.515067,-0.32614 -0.686533,-0.573619 -0.02479,-0.03578 -0.05459,-0.06749 -0.08136,-0.101731 -0.08787,-0.112416 -0.161943,-0.241019 -0.18578,-0.383442 -0.01631,-0.09743 -0.0021,-0.199974 0.04512,-0.28724"
       inkscape:connector-curvature="0" /><g
       id="g5895"><path
         sodipodi:nodetypes="ccccccccc"
         inkscape:connector-curvature="0"
         d="m 63.01843,63.536244 c -0.05955,1.058987 -0.117993,2.122275 -0.03494,3.181844 0.02268,0.289341 0.0818,0.574965 0.102212,0.864407 0.0163,0.231147 0.07574,0.464589 0.204387,0.65977 0.08976,0.136196 0.223846,0.247947 0.384106,0.289342 0.124518,0.03216 0.251535,-0.02808 0.378704,-0.01815 0.127664,0.01 0.265178,-0.01396 0.364411,-0.100561 0.107493,-0.09381 0.151517,-0.238372 0.162958,-0.376401 0.01524,-0.183802 -0.04281,-0.363198 -0.06253,-0.545548 -0.04317,-0.399124 -0.114961,-0.794614 -0.15765,-1.193727 -0.0078,-0.073 -0.02499,-0.145926 -0.02226,-0.219224 0.01466,-0.393073 0.0071,-0.784871 0.01919,-1.180579 0.0078,-0.256282 0.05479,-0.511775 0.03316,-0.768575 -0.01198,-0.142237 -0.04705,-0.290983 -0.144159,-0.400491 -0.07505,-0.08464 -0.18317,-0.141247 -0.294748,-0.150364 -0.321042,-0.02623 -0.641448,-0.09179 -0.963287,-0.07714 -0.03223,0.0015 -0.127847,-0.007 -0.100396,0.0046 0.04332,0.01839 0.09405,0.01412 0.136577,0.03323 0.220749,0.09918 0.437109,0.208274 0.661204,0.299921 0.163801,0.06699 0.329159,0.136724 0.504288,0.166473 0.05156,0.0088 0.104706,0.01514 0.156739,0.0066"
         id="path1859"
         inkscape:original-d="m 63.01843,63.536244 c -0.07667,1.36716 -0.151507,2.673558 0.06682,4.039317 0.03722,0.591993 0.377208,1.120459 0.967647,0.937891 0.523964,0.03724 0.618222,-0.45493 0.464838,-1.02251 -0.06141,-0.550508 -0.134694,-0.933479 -0.180268,-1.403303 0.01504,-0.411902 0.06965,-0.789957 0.01955,-1.190227 0.0086,-0.436412 0.208618,-1.206291 -0.395091,-1.318621 -0.211039,-0.01557 -1.482014,-0.14027 -0.943496,-0.04255 0.240167,0.101937 1.045653,0.524929 1.327963,0.47544"
         inkscape:path-effect="#path-effect1861"
         style="fill:none;stroke:#000000;stroke-width:0.30000001;stroke-linecap:butt;stroke-linejoin:miter;stroke-miterlimit:4;stroke-dasharray:none;stroke-opacity:1" /><path
         sodipodi:nodetypes="cc"
         inkscape:connector-curvature="0"
         d="m 63.277339,68.403731 c 0.04994,-0.10068 0.127254,-0.186927 0.22032,-0.249777 0.117097,-0.07908 0.254131,-0.123172 0.392023,-0.148944 0.22577,-0.0422 0.456576,-0.04058 0.685336,-0.04267"
         id="path1863"
         inkscape:original-d="m 63.277339,68.403731 c 0.226594,-0.451068 0.838411,-0.437153 1.297679,-0.441395"
         inkscape:path-effect="#path-effect1865"
         style="fill:none;stroke:#000000;stroke-width:0.30000001;stroke-linecap:butt;stroke-linejoin:miter;stroke-miterlimit:4;stroke-dasharray:none;stroke-opacity:1" /></g><path
       style="fill:none;stroke:#000000;stroke-width:0.375;stroke-linecap:butt;stroke-linejoin:miter;stroke-miterlimit:4;stroke-dasharray:none;stroke-opacity:1"
       inkscape:path-effect="#path-effect1887"
       inkscape:original-d="m 68.012827,50.254426 c 1.336681,-0.203425 2.278917,0.274253 2.5265,1.464742"
       id="path1885"
       d="m 68.012827,50.254426 c 0.373068,-0.05634 0.757436,-0.06799 1.128417,0.0098 0.290623,0.06094 0.570594,0.184947 0.799103,0.376798 0.220948,0.185503 0.384194,0.433171 0.488534,0.70096 0.04763,0.122232 0.08374,0.248799 0.110446,0.377185"
       inkscape:connector-curvature="0"
       sodipodi:nodetypes="cc" /><g
       id="g2095"><path
         sodipodi:nodetypes="cccscccc"
         inkscape:connector-curvature="0"
         d="m 73.621624,48.078959 c 0.194597,-0.107217 0.403865,-0.183854 0.613786,-0.255097 0.167531,-0.05686 0.327181,-0.133307 0.490131,-0.202965 0.337188,-0.144142 0.665965,-0.307804 1.008874,-0.438587 0.495557,-0.189002 1.033572,-0.265502 1.511314,-0.495203 0.134146,-0.0645 0.292607,-0.05458 0.424805,-0.120878 0.06683,-0.03352 0.129259,-0.0759 0.187697,-0.122929 0.03375,-0.02716 0.05809,-0.08081 0.01932,-0.115874 -0.05534,-0.05004 -0.12743,-0.0749 -0.193517,-0.107143 -0.09476,-0.04623 -0.195424,-0.09611 -0.257607,-0.183963 -0.150194,-0.212198 -0.243675,-0.467656 -0.2463,-0.729238 -0.0018,-0.17996 -0.03627,-0.423034 0.112883,-0.523051 0.1042,-0.06987 0.235339,-0.104985 0.359779,-0.07736 0.151818,0.0337 0.276447,0.139881 0.370063,0.259502 0.131487,0.168012 0.227586,0.366497 0.265441,0.5765 0.04118,0.228455 -0.0265,0.466837 -0.15429,0.657225 -0.105442,0.157091 -0.255752,0.288459 -0.435439,0.352474"
         id="path1940"
         inkscape:original-d="m 73.621624,48.078959 c 0.426365,-0.231306 0.712359,-0.251535 1.103917,-0.458062 0.726209,-0.312131 0.825043,-0.428722 2.520188,-0.93379 0.146222,-0.07001 0.339191,-0.07098 0.452832,-0.134733 0.490338,-0.275098 -0.04787,-0.248444 -0.262761,-0.502829 -0.26902,-0.375389 -0.340913,-0.81917 -0.142793,-1.265514 0.484684,-0.315433 0.888091,0.296684 0.983098,0.70419 0.111419,0.419143 -0.174334,0.921159 -0.577544,1.064153"
         inkscape:path-effect="#path-effect1942"
         style="fill:none;stroke:#000000;stroke-width:0.30000001;stroke-linecap:butt;stroke-linejoin:miter;stroke-miterlimit:4;stroke-dasharray:none;stroke-opacity:1" /><path
         sodipodi:nodetypes="ccccc"
         inkscape:connector-curvature="0"
         d="m 77.403821,44.725297 c -0.241761,0.066 -0.477418,0.152099 -0.713132,0.236655 -0.328408,0.117807 -0.659433,0.228271 -0.986765,0.349192 -0.380499,0.140562 -0.767694,0.2618 -1.150343,0.396187 -0.413525,0.145231 -0.812791,0.328156 -1.201416,0.530285 -0.164003,0.0853 -0.451305,0.08253 -0.487817,0.263747 -0.01748,0.08676 -0.007,0.176356 0.0061,0.262858 0.0384,0.253678 0.108375,0.503516 0.214302,0.73712 0.07603,0.167666 0.166404,0.335358 0.304979,0.459566 0.06514,0.05839 0.178173,0.188565 0.231884,0.118052 0.04704,-0.06176 0.05475,-0.143122 0.05523,-0.217945 0.0013,-0.197899 -0.03992,-0.394212 -0.100681,-0.58156 -0.06783,-0.209123 -0.154282,-0.417593 -0.294358,-0.588872 -0.0752,-0.09195 -0.171509,-0.18087 -0.293257,-0.199013 -0.04146,-0.0062 -0.0842,-0.0026 -0.124213,0.0098"
         id="path1944"
         inkscape:original-d="m 77.403821,44.725297 c -0.389169,0.102145 -1.224958,0.434443 -1.686682,0.581021 -1.130807,0.413401 -1.466053,0.420639 -2.852791,1.195045 -0.06391,0.24493 0.238813,1.50251 0.757276,1.577596 0.212562,-0.251478 -0.21767,-1.742926 -0.757276,-1.577596"
         inkscape:path-effect="#path-effect1946"
         style="fill:none;stroke:#000000;stroke-width:0.30000001;stroke-linecap:butt;stroke-linejoin:miter;stroke-miterlimit:4;stroke-dasharray:none;stroke-opacity:1" /></g><g
       id="g5899"><path
         sodipodi:nodetypes="cscsccscsc"
         inkscape:connector-curvature="0"
         d="m 65.609273,72.208159 c -0.341694,-1.488931 -0.90771,-2.943022 -0.959213,-4.485291 -0.04604,-1.378578 0.142393,-2.777521 0.640006,-4.066986 0.168672,-0.43708 0.398325,-0.846883 0.60633,-1.265946 0.517595,-1.042787 1.06437,-2.070542 1.599561,-3.10447 1.00273,-1.937158 1.95211,-3.904201 3.053132,-5.788513 0.570911,-0.977069 1.148279,-1.956841 1.845834,-2.848706 0.817904,-1.045739 1.79035,-1.976258 2.889036,-2.72166 0.826649,-0.560839 1.727225,-1.000938 2.647112,-1.386287 0.664113,-0.278203 1.322676,-0.570619 2.009133,-0.792991 0.918996,-0.297701 1.860346,-0.523607 2.816084,-0.669609 0.221977,-0.03391 0.444285,-0.0656 0.666655,-0.09681"
         id="path5874"
         inkscape:original-d="m 65.609273,72.208159 c -0.344256,-1.486477 -0.858649,-2.820538 -0.94873,-4.278499 -0.09008,-1.457961 0.150774,-3.193866 0.750767,-4.568968 0.525081,-1.045546 1.264492,-2.552236 1.822101,-3.582661 0.557609,-1.030424 0.750339,-1.474738 2.028777,-3.93185 1.278438,-2.457112 2.206565,-3.903881 2.948064,-4.950363 0.843658,-1.170441 2.153268,-2.399232 3.357635,-3.154709 1.204367,-0.755477 1.941017,-1.011749 3.321665,-1.609369 0.5858,-0.25136 1.36059,-0.491087 2.037701,-0.677001 0.835367,-0.229365 1.513541,-0.336094 2.49569,-0.473852"
         inkscape:path-effect="#path-effect5876"
         style="fill:none;stroke:#000000;stroke-width:0.22500001;stroke-linecap:butt;stroke-linejoin:miter;stroke-miterlimit:4;stroke-dasharray:none;stroke-opacity:1" /><path
         sodipodi:nodetypes="cccccccc"
         inkscape:connector-curvature="0"
         d="m 65.609273,72.208159 c -0.990735,-0.902988 -1.586381,-2.132284 -2.133339,-3.335872 -0.125538,-0.276248 -0.22563,-0.561247 -0.316289,-0.851064 -0.397953,-1.272174 -0.759831,-2.564385 -0.895883,-3.894918 -0.04666,-0.456297 -0.07371,-0.913825 -0.06359,-1.373658 0.02197,-0.998324 0.123292,-1.992563 0.258627,-2.981218 0.111495,-0.814499 0.151071,-1.638309 0.315569,-2.445575 0.339083,-1.664031 0.887348,-3.293888 1.692093,-4.790131 0.564699,-1.049931 1.265193,-2.049709 2.197085,-2.812444 0.269728,-0.220767 0.522379,-0.462776 0.790426,-0.686773 1.369624,-1.144547 2.952278,-1.985408 4.488128,-2.87934 0.185754,-0.108117 0.371806,-0.210024 0.575947,-0.284053 1.149807,-0.416965 2.302453,-0.853188 3.514062,-1.05488 0.527176,-0.08776 1.052973,-0.195059 1.585551,-0.241225 1.35785,-0.117703 2.728046,-0.272624 4.088993,-0.110457 0.627186,0.07473 1.24348,0.222588 1.845738,0.410771"
         id="path5887"
         inkscape:original-d="m 65.609273,72.208159 c -1.094659,-0.999185 -1.732576,-2.367808 -2.331934,-3.804428 -0.569874,-1.853108 -0.973105,-3.107313 -1.088147,-5.204069 0.04265,-2.234144 0.222438,-2.762165 0.40242,-4.619303 0.212692,-2.541293 1.785182,-7.189546 4.154919,-8.919078 1.76674,-1.663352 3.597948,-2.56513 5.534985,-3.701682 2.59341,-0.949448 2.890581,-1.025221 5.13525,-1.363756 2.895339,-0.272817 4.145137,-0.338377 6.135628,0.281479"
         inkscape:path-effect="#path-effect5889"
         style="fill:none;stroke:#000000;stroke-width:0.22500001;stroke-linecap:butt;stroke-linejoin:miter;stroke-miterlimit:4;stroke-dasharray:none;stroke-opacity:1" /></g></g></svg>