<?xml version="1.0" encoding="UTF-8" standalone="no"?>
<svg
   xmlns:dc="http://purl.org/dc/elements/1.1/"
   xmlns:cc="http://creativecommons.org/ns#"
   xmlns:rdf="http://www.w3.org/1999/02/22-rdf-syntax-ns#"
   xmlns:svg="http://www.w3.org/2000/svg"
   xmlns="http://www.w3.org/2000/svg"
   version="1.1"
   id="svg3969"
   xml:space="preserve"
   width="322.03601"
   height="322.32401"
   viewBox="0 0 322.03601 322.32401"><metadata
     id="metadata3975"><rdf:RDF><cc:Work
         rdf:about=""><dc:format>image/svg+xml</dc:format><dc:type
           rdf:resource="http://purl.org/dc/dcmitype/StillImage" /><dc:title></dc:title></cc:Work></rdf:RDF></metadata><defs
     id="defs3973"><clipPath
       clipPathUnits="userSpaceOnUse"
       id="clipPath4031"><path
         d="M 113.38724,0 C 113.38724,62.62283 62.62283,113.38724 0,113.38724 -62.62283,113.38724 -113.38724,62.62283 -113.38724,0 c 0,-62.62283 50.76441,-113.38724 113.38724,-113.38724 62.62283,0 113.38724,50.76441 113.38724,113.38724 z"
         id="path4029" /></clipPath><clipPath
       clipPathUnits="userSpaceOnUse"
       id="clipPath4045"><path
         d="M 0,0 H 100 V 100 H 0 Z"
         id="path4043" /></clipPath><radialGradient
       fx="40.000519"
       fy="60.000759"
       cx="50.000641"
       cy="50.000641"
       r="50.000641"
       gradientUnits="userSpaceOnUse"
       id="radialGradient4057"><stop
         style="stop-opacity:1;stop-color:#ffffff"
         offset="0"
         id="stop4047" /><stop
         style="stop-opacity:1;stop-color:#ffffff"
         offset="9.00009"
         id="stop4049" /><stop
         style="stop-opacity:1;stop-color:#b3b3b3"
         offset="18.00021"
         id="stop4051" /><stop
         style="stop-opacity:1;stop-color:#808080"
         offset="25.00032"
         id="stop4053" /><stop
         style="stop-opacity:1;stop-color:#000000"
         offset="50.00064"
         id="stop4055" /></radialGradient></defs><g
     id="g3977"
     transform="matrix(1.3333333,0,0,-1.3333333,0,322.324)"><g
       id="g3979"
       transform="translate(120.764,120.871)"><g
         id="g3981"><g
           id="g3983"><g
             id="g3985"><g
               id="g3987"><path
                 d="m -111.64375,0 c 0,0.9629 -0.78057,1.74348 -1.74349,1.74348 -0.9629,0 -1.74348,-0.78058 -1.74348,-1.74348 0,-0.9629 0.78058,-1.74348 1.74348,-1.74348 0.96292,0 1.74349,0.78058 1.74349,1.74348 z"
                 style="fill:#000000;fill-opacity:1;fill-rule:nonzero;stroke:none"
                 id="path3989" /></g><g
               id="g3991"
               transform="translate(-113.386)"><g
                 id="g3993" /><g
                 id="g3995"
                 transform="translate(113.386)" /></g></g><g
             id="g3997"><g
               id="g3999"><path
                 d="m 115.13072,0 c 0,0.9629 -0.78058,1.74348 -1.74348,1.74348 -0.96292,0 -1.74349,-0.78058 -1.74349,-1.74348 0,-0.9629 0.78057,-1.74348 1.74349,-1.74348 0.9629,0 1.74348,0.78058 1.74348,1.74348 z"
                 style="fill:#000000;fill-opacity:1;fill-rule:nonzero;stroke:none"
                 id="path4001" /></g><g
               id="g4003"
               transform="translate(113.386)"><g
                 id="g4005" /><g
                 id="g4007"
                 transform="translate(-113.386)" /></g></g><g
             id="g4009"><g
               id="g4011"><path
                 d="m 1.74348,-102.76408 c 0,0.9629 -0.78058,1.74348 -1.74348,1.74348 -0.9629,0 -1.74348,-0.78058 -1.74348,-1.74348 0,-0.96292 0.78058,-1.74349 1.74348,-1.74349 0.9629,0 1.74348,0.78057 1.74348,1.74349 z"
                 style="fill:#000000;fill-opacity:1;fill-rule:nonzero;stroke:none"
                 id="path4013" /></g><g
               id="g4015"
               transform="translate(0,-102.762)"><g
                 id="g4017" /><g
                 id="g4019"
                 transform="translate(0,102.762)" /></g></g><g
             id="g4021"><path
               d="M 113.38724,0 C 113.38724,62.62283 62.62283,113.38724 0,113.38724 -62.62283,113.38724 -113.38724,62.62283 -113.38724,0 c 0,-62.62283 50.76441,-113.38724 113.38724,-113.38724 62.62283,0 113.38724,50.76441 113.38724,113.38724 z"
               style="fill:#000000;fill-opacity:0.025;fill-rule:nonzero;stroke:none"
               id="path4023" /><g
               id="g4025"><g
                 id="g4027"
                 clip-path="url(#clipPath4031)"><g
                   id="g4033"
                   transform="scale(4.53604)"><g
                     id="g4035"><g
                       id="g4037"
                       transform="translate(-50,-50)"><g
                         id="g4039"><g
                           id="g4041"
                           clip-path="url(#clipPath4045)"><path
                             d="M 0,0 H 100 V 100 H 0 Z"
                             style="fill:url(#radialGradient4057);stroke:none"
                             id="path4059" /></g></g></g></g></g></g></g></g><g
             id="g4061" /><g
             id="g4063"><g
               id="g4065"><path
                 d="m 0,-109.52374 c -10.87411,0 -19.6891,3.72506 -19.6891,8.32028 0,4.59523 8.81499,8.3203 19.6891,8.3203 10.87411,0 19.6891,-3.72507 19.6891,-8.3203 0,-4.59522 -8.81499,-8.32028 -19.6891,-8.32028"
                 style="fill:none;stroke:#bfbfbf;stroke-width:0.09962;stroke-linecap:butt;stroke-linejoin:miter;stroke-miterlimit:10;stroke-dasharray:2.98883, 2.98883;stroke-dashoffset:0;stroke-opacity:1"
                 id="path4067" /></g><g
               id="g4069"><path
                 d="m 0,-109.52374 c 0,0 0,0 0,0"
                 style="fill:none;stroke:#bfbfbf;stroke-width:0.09962;stroke-linecap:butt;stroke-linejoin:miter;stroke-miterlimit:10;stroke-dasharray:none;stroke-opacity:1"
                 id="path4071" /></g><g
               id="g4073"><path
                 d="m -33.43085,-108.34499 c -25.28703,7.80272 -30.81831,22.79111 -12.35501,33.47757 18.4633,10.68648 53.92967,13.02405 79.21671,5.22133 16.35511,-5.04655 25.0993,-13.4006 22.93576,-21.90964 -1.70593,-6.71035 -10.03836,-12.80947 -22.93576,-16.78926"
                 style="fill:none;stroke:#bfbfbf;stroke-width:0.09962;stroke-linecap:butt;stroke-linejoin:miter;stroke-miterlimit:10;stroke-dasharray:2.98883, 2.98883;stroke-dashoffset:0;stroke-opacity:1"
                 id="path4075" /></g><g
               id="g4077"><path
                 d="m 33.43085,-108.34499 c -19.91231,-6.14405 -46.94939,-6.14405 -66.8617,0"
                 style="fill:none;stroke:#bfbfbf;stroke-width:0.09962;stroke-linecap:butt;stroke-linejoin:miter;stroke-miterlimit:10;stroke-dasharray:none;stroke-opacity:1"
                 id="path4079" /></g><g
               id="g4081"><path
                 d="m -79.93112,-80.41759 c -18.76843,18.6559 1.80115,40.20978 45.94626,48.14138 44.14508,7.93161 95.14759,-0.76119 113.91601,-19.41709 9.23115,-9.1756 9.23115,-19.54869 0,-28.72429"
                 style="fill:none;stroke:#bfbfbf;stroke-width:0.09962;stroke-linecap:butt;stroke-linejoin:miter;stroke-miterlimit:10;stroke-dasharray:2.98883, 2.98883;stroke-dashoffset:0;stroke-opacity:1"
                 id="path4083" /></g><g
               id="g4085"><path
                 d="m 79.93112,-80.41759 c -18.76842,-18.6559 -69.77093,-27.34869 -113.91602,-19.4171 -20.67826,3.71515 -37.15515,10.67838 -45.94625,19.4171"
                 style="fill:none;stroke:#bfbfbf;stroke-width:0.09962;stroke-linecap:butt;stroke-linejoin:miter;stroke-miterlimit:10;stroke-dasharray:none;stroke-opacity:1"
                 id="path4087" /></g><g
               id="g4089"><path
                 d="m -105.00023,-42.78601 c -9.98251,24.50701 28.93308,47.79513 86.92279,52.01382 37.50763,2.72843 75.62332,-3.20801 99.96996,-15.57074 19.94879,-10.12971 28.39818,-23.4544 23.10777,-36.44308"
                 style="fill:none;stroke:#bfbfbf;stroke-width:0.09962;stroke-linecap:butt;stroke-linejoin:miter;stroke-miterlimit:10;stroke-dasharray:2.98883, 2.98883;stroke-dashoffset:0;stroke-opacity:1"
                 id="path4091" /></g><g
               id="g4093"><path
                 d="m 105.00023,-42.78601 c -9.98251,-24.507 -65.08803,-40.95313 -123.07773,-36.73442 -44.445,3.23343 -79.2717,17.95153 -86.92279,36.73442"
                 style="fill:none;stroke:#bfbfbf;stroke-width:0.09962;stroke-linecap:butt;stroke-linejoin:miter;stroke-miterlimit:10;stroke-dasharray:none;stroke-opacity:1"
                 id="path4095" /></g><g
               id="g4097"><path
                 d="M -113.38724,0 C -113.38724,26.46582 -62.62283,47.92 0,47.92 62.62283,47.92 113.38724,26.46582 113.38724,0"
                 style="fill:none;stroke:#bfbfbf;stroke-width:0.09962;stroke-linecap:butt;stroke-linejoin:miter;stroke-miterlimit:10;stroke-dasharray:2.98883, 2.98883;stroke-dashoffset:0;stroke-opacity:1"
                 id="path4099" /></g><g
               id="g4101"><path
                 d="M 113.38724,0 C 113.38724,-26.46582 62.62283,-47.92 0,-47.92 -62.62283,-47.92 -113.38724,-26.46582 -113.38724,0"
                 style="fill:none;stroke:#bfbfbf;stroke-width:0.09962;stroke-linecap:butt;stroke-linejoin:miter;stroke-miterlimit:10;stroke-dasharray:none;stroke-opacity:1"
                 id="path4103" /></g><g
               id="g4105"><path
                 d="M -105.00023,42.78601 C -95.01772,67.29301 -39.9122,83.73914 18.0775,79.52043 62.5225,76.287 97.3492,61.5689 105.00029,42.78601"
                 style="fill:none;stroke:#bfbfbf;stroke-width:0.09962;stroke-linecap:butt;stroke-linejoin:miter;stroke-miterlimit:10;stroke-dasharray:2.98883, 2.98883;stroke-dashoffset:0;stroke-opacity:1"
                 id="path4107" /></g><g
               id="g4109"><path
                 d="M 105.00023,42.78601 C 114.98274,18.279 76.06715,-5.00912 18.07744,-9.22781 c -37.50763,-2.72843 -75.62332,3.20801 -99.96996,15.57074 -19.94879,10.12971 -28.39818,23.4544 -23.10777,36.44308"
                 style="fill:none;stroke:#bfbfbf;stroke-width:0.09962;stroke-linecap:butt;stroke-linejoin:miter;stroke-miterlimit:10;stroke-dasharray:none;stroke-opacity:1"
                 id="path4111" /></g><g
               id="g4113"><path
                 d="m -79.93112,80.41759 c 18.76842,18.6559 69.77093,27.34869 113.91602,19.4171 20.67826,-3.71515 37.15515,-10.67838 45.94625,-19.4171"
                 style="fill:none;stroke:#bfbfbf;stroke-width:0.09962;stroke-linecap:butt;stroke-linejoin:miter;stroke-miterlimit:10;stroke-dasharray:2.98883, 2.98883;stroke-dashoffset:0;stroke-opacity:1"
                 id="path4115" /></g><g
               id="g4117"><path
                 d="M 79.93112,80.41759 C 98.69955,61.76169 78.12997,40.20781 33.98486,32.27621 -10.16022,24.3446 -61.16273,33.0374 -79.93115,51.6933 c -9.23115,9.1756 -9.23115,19.54869 0,28.72429"
                 style="fill:none;stroke:#bfbfbf;stroke-width:0.09962;stroke-linecap:butt;stroke-linejoin:miter;stroke-miterlimit:10;stroke-dasharray:none;stroke-opacity:1"
                 id="path4119" /></g><g
               id="g4121"><path
                 d="m -33.43085,108.34499 c 19.91231,6.14405 46.94939,6.14405 66.8617,0"
                 style="fill:none;stroke:#bfbfbf;stroke-width:0.09962;stroke-linecap:butt;stroke-linejoin:miter;stroke-miterlimit:10;stroke-dasharray:2.98883, 2.98883;stroke-dashoffset:0;stroke-opacity:1"
                 id="path4123" /></g><g
               id="g4125"><path
                 d="M 33.43085,108.34499 C 58.71788,100.54227 64.24916,85.55388 45.78586,74.86742 27.32256,64.18094 -8.14381,61.84337 -33.43085,69.64609 c -16.35511,5.04655 -25.0993,13.4006 -22.93576,21.90964 1.70593,6.71035 10.03836,12.80947 22.93576,16.78926"
                 style="fill:none;stroke:#bfbfbf;stroke-width:0.09962;stroke-linecap:butt;stroke-linejoin:miter;stroke-miterlimit:10;stroke-dasharray:none;stroke-opacity:1"
                 id="path4127" /></g><g
               id="g4129"><path
                 d="m 0,109.52374 c 0,0 0,0 0,0"
                 style="fill:none;stroke:#bfbfbf;stroke-width:0.09962;stroke-linecap:butt;stroke-linejoin:miter;stroke-miterlimit:10;stroke-dasharray:2.98883, 2.98883;stroke-dashoffset:0;stroke-opacity:1"
                 id="path4131" /></g><g
               id="g4133"><path
                 d="m 0,109.52374 c 10.87411,0 19.6891,-3.72506 19.6891,-8.32028 0,-4.59523 -8.81499,-8.3203 -19.6891,-8.3203 -10.87411,0 -19.6891,3.72507 -19.6891,8.3203 0,4.59522 8.81499,8.32028 19.6891,8.32028"
                 style="fill:none;stroke:#bfbfbf;stroke-width:0.09962;stroke-linecap:butt;stroke-linejoin:miter;stroke-miterlimit:10;stroke-dasharray:none;stroke-opacity:1"
                 id="path4135" /></g><g
               id="g4137"><path
                 d="m -85.91472,-73.98868 c 34.80065,-40.41058 101.4771,-40.04396 148.92662,0.81906 47.44953,40.86301 57.70355,106.74784 22.90291,147.15842"
                 style="fill:none;stroke:#bfbfbf;stroke-width:0.09962;stroke-linecap:butt;stroke-linejoin:miter;stroke-miterlimit:10;stroke-dasharray:2.98883, 2.98883;stroke-dashoffset:0;stroke-opacity:1"
                 id="path4139" /></g><g
               id="g4141"><path
                 d="M 85.91472,73.98868 C 51.11407,114.39926 -15.56238,114.03264 -63.0119,73.16962 -110.46143,32.30661 -120.71545,-33.57822 -85.91481,-73.9888"
                 style="fill:none;stroke:#bfbfbf;stroke-width:0.09962;stroke-linecap:butt;stroke-linejoin:miter;stroke-miterlimit:10;stroke-dasharray:none;stroke-opacity:1"
                 id="path4143" /></g><g
               id="g4145"><path
                 d="m -51.0078,-101.26271 c 38.82643,-19.56038 93.13834,9.91875 121.30887,65.84476 C 98.4716,20.50804 89.83423,81.70242 51.0078,101.2628"
                 style="fill:none;stroke:#bfbfbf;stroke-width:0.09962;stroke-linecap:butt;stroke-linejoin:miter;stroke-miterlimit:10;stroke-dasharray:2.98883, 2.98883;stroke-dashoffset:0;stroke-opacity:1"
                 id="path4147" /></g><g
               id="g4149"><path
                 d="M 51.0078,101.26271 C 12.18137,120.82309 -42.13054,91.34396 -70.30107,35.41795 -98.4716,-20.50804 -89.83423,-81.70242 -51.0078,-101.2628"
                 style="fill:none;stroke:#bfbfbf;stroke-width:0.09962;stroke-linecap:butt;stroke-linejoin:miter;stroke-miterlimit:10;stroke-dasharray:none;stroke-opacity:1"
                 id="path4151" /></g><g
               id="g4153"><path
                 d="m -26.87877,-110.14877 c 27.5665,-6.7293 61.94721,37.12999 76.7919,97.96388 14.84471,60.83388 4.53214,115.60437 -23.03436,122.33366"
                 style="fill:none;stroke:#bfbfbf;stroke-width:0.09962;stroke-linecap:butt;stroke-linejoin:miter;stroke-miterlimit:10;stroke-dasharray:2.98883, 2.98883;stroke-dashoffset:0;stroke-opacity:1"
                 id="path4155" /></g><g
               id="g4157"><path
                 d="m 26.87877,110.14877 c -27.5665,6.7293 -61.94721,-37.12999 -76.7919,-97.96388 -14.84471,-60.83388 -4.53214,-115.60437 23.03436,-122.33366"
                 style="fill:none;stroke:#bfbfbf;stroke-width:0.09962;stroke-linecap:butt;stroke-linejoin:miter;stroke-miterlimit:10;stroke-dasharray:none;stroke-opacity:1"
                 id="path4159" /></g><g
               id="g4161"><path
                 d="m -8.42682,-113.06891 c 9.82712,-0.73669 21.5665,49.2892 26.22049,111.73515 4.65398,62.44594 0.46023,113.66602 -9.36688,114.40273"
                 style="fill:none;stroke:#bfbfbf;stroke-width:0.09962;stroke-linecap:butt;stroke-linejoin:miter;stroke-miterlimit:10;stroke-dasharray:2.98883, 2.98883;stroke-dashoffset:0;stroke-opacity:1"
                 id="path4163" /></g><g
               id="g4165"><path
                 d="M 8.42682,113.06891 C -1.4003,113.8056 -13.13968,63.77971 -17.79367,1.33376 -22.44765,-61.11218 -18.2539,-112.33226 -8.42679,-113.06897"
                 style="fill:none;stroke:#bfbfbf;stroke-width:0.09962;stroke-linecap:butt;stroke-linejoin:miter;stroke-miterlimit:10;stroke-dasharray:none;stroke-opacity:1"
                 id="path4167" /></g><g
               id="g4169"><path
                 d="m 8.42682,-113.06891 c -9.82712,-0.73669 -21.5665,49.2892 -26.22049,111.73515 -4.65398,62.44594 -0.46023,113.66602 9.36688,114.40273"
                 style="fill:none;stroke:#bfbfbf;stroke-width:0.09962;stroke-linecap:butt;stroke-linejoin:miter;stroke-miterlimit:10;stroke-dasharray:2.98883, 2.98883;stroke-dashoffset:0;stroke-opacity:1"
                 id="path4171" /></g><g
               id="g4173"><path
                 d="M -8.42682,113.06891 C 1.4003,113.8056 13.13968,63.77971 17.79367,1.33376 22.44765,-61.11218 18.2539,-112.33226 8.42679,-113.06897"
                 style="fill:none;stroke:#bfbfbf;stroke-width:0.09962;stroke-linecap:butt;stroke-linejoin:miter;stroke-miterlimit:10;stroke-dasharray:none;stroke-opacity:1"
                 id="path4175" /></g><g
               id="g4177"><path
                 d="m 26.87877,-110.14877 c -27.5665,-6.7293 -61.94721,37.12999 -76.7919,97.96388 -14.84471,60.83388 -4.53214,115.60437 23.03436,122.33366"
                 style="fill:none;stroke:#bfbfbf;stroke-width:0.09962;stroke-linecap:butt;stroke-linejoin:miter;stroke-miterlimit:10;stroke-dasharray:2.98883, 2.98883;stroke-dashoffset:0;stroke-opacity:1"
                 id="path4179" /></g><g
               id="g4181"><path
                 d="m -26.87877,110.14877 c 27.5665,6.7293 61.94721,-37.12999 76.7919,-97.96388 14.84471,-60.83388 4.53214,-115.60437 -23.03436,-122.33366"
                 style="fill:none;stroke:#bfbfbf;stroke-width:0.09962;stroke-linecap:butt;stroke-linejoin:miter;stroke-miterlimit:10;stroke-dasharray:none;stroke-opacity:1"
                 id="path4183" /></g><g
               id="g4185"><path
                 d="M 51.0078,-101.26271 C 12.18137,-120.82309 -42.13054,-91.34396 -70.30107,-35.41795 -98.4716,20.50804 -89.83423,81.70242 -51.0078,101.2628"
                 style="fill:none;stroke:#bfbfbf;stroke-width:0.09962;stroke-linecap:butt;stroke-linejoin:miter;stroke-miterlimit:10;stroke-dasharray:2.98883, 2.98883;stroke-dashoffset:0;stroke-opacity:1"
                 id="path4187" /></g><g
               id="g4189"><path
                 d="M -51.0078,101.26271 C -12.18137,120.82309 42.13054,91.34396 70.30107,35.41795 98.4716,-20.50804 89.83423,-81.70242 51.0078,-101.2628"
                 style="fill:none;stroke:#bfbfbf;stroke-width:0.09962;stroke-linecap:butt;stroke-linejoin:miter;stroke-miterlimit:10;stroke-dasharray:none;stroke-opacity:1"
                 id="path4191" /></g><g
               id="g4193"><path
                 d="m 85.91472,-73.98868 c -34.80065,-40.41058 -101.4771,-40.04396 -148.92662,0.81906 -47.44953,40.86301 -57.70355,106.74784 -22.90291,147.15842"
                 style="fill:none;stroke:#bfbfbf;stroke-width:0.09962;stroke-linecap:butt;stroke-linejoin:miter;stroke-miterlimit:10;stroke-dasharray:2.98883, 2.98883;stroke-dashoffset:0;stroke-opacity:1"
                 id="path4195" /></g><g
               id="g4197"><path
                 d="M -85.91472,73.98868 C -51.11407,114.39926 15.56238,114.03264 63.0119,73.16962 110.46143,32.30661 120.71545,-33.57822 85.91481,-73.9888"
                 style="fill:none;stroke:#bfbfbf;stroke-width:0.09962;stroke-linecap:butt;stroke-linejoin:miter;stroke-miterlimit:10;stroke-dasharray:none;stroke-opacity:1"
                 id="path4199" /></g><g
               id="g4201"><path
                 d="M 113.38724,0 C 113.38724,-56.75575 62.62283,-102.76408 0,-102.76408 -62.62283,-102.76408 -113.38724,-56.75575 -113.38724,0"
                 style="fill:none;stroke:#bfbfbf;stroke-width:0.09962;stroke-linecap:butt;stroke-linejoin:miter;stroke-miterlimit:10;stroke-dasharray:2.98883, 2.98883;stroke-dashoffset:0;stroke-opacity:1"
                 id="path4203" /></g><g
               id="g4205"><path
                 d="M -113.38724,0 C -113.38724,56.75575 -62.62283,102.76408 0,102.76408 62.62283,102.76408 113.38724,56.75575 113.38724,0"
                 style="fill:none;stroke:#bfbfbf;stroke-width:0.09962;stroke-linecap:butt;stroke-linejoin:miter;stroke-miterlimit:10;stroke-dasharray:none;stroke-opacity:1"
                 id="path4207" /></g></g><g
             id="g4209" /><g
             id="g4211" /><g
             id="g4213" /><g
             id="g4215" /><g
             id="g4217" /><g
             id="g4219"><g
               id="g4221"><path
                 d="m 1.74348,102.76408 c 0,0.96292 -0.78058,1.74349 -1.74348,1.74349 -0.9629,0 -1.74348,-0.78057 -1.74348,-1.74349 0,-0.9629 0.78058,-1.74348 1.74348,-1.74348 0.9629,0 1.74348,0.78058 1.74348,1.74348 z"
                 style="fill:#000000;fill-opacity:1;fill-rule:nonzero;stroke:none"
                 id="path4223" /></g><g
               id="g4225"
               transform="translate(0,102.763)"><g
                 id="g4227" /><g
                 id="g4229"
                 transform="translate(0,-102.763)" /></g></g></g></g></g><path
       style="fill:none;stroke:#000000;stroke-width:0.75px;stroke-linecap:butt;stroke-linejoin:miter;stroke-opacity:1"
       d="m 120.59829,223.81305 c -8.99139,-7.36336 -22.013063,-12.43909 -24.8521,-24.93851 -2.632034,-10.31657 5.8933,-18.99298 14.78005,-22.51128 9.22963,-4.40649 16.66514,-15.54776 11.41699,-25.61018 -3.58415,-9.10824 -18.60514,-8.71326 -14.86725,-19.85682 3.63384,-8.35562 15.04184,-10.09951 22.72432,-6.62083 17.36329,6.71202 25.72469,27.74066 44.99534,30.65569 10.53725,1.90711 18.31076,-8.4615 19.98679,-17.79122 1.27081,-8.76514 4.01457,-19.53264 -3.55927,-26.35589 -4.77828,-5.78522 -17.7935,-7.15289 -15.61116,-16.72755 4.1155,-7.315076 18.15152,-9.878812 14.07587,-20.677566 -4.01616,-12.103951 -19.00359,-14.740883 -30.04413,-12.448513 -15.7,2.770332 -24.10036,17.64641 -35.20946,27.384712 -6.08209,5.37479 -14.70143,11.035147 -23.04465,8.123645 C 91.810952,90.657675 93.749941,77.691952 96.490664,68.565818 101.93223,51.102241 118.21741,38.77888 120.85665,20.191346 l 0.70514,-1.133098 0.94569,-0.951324"
       id="path4235" /><path
       style="fill:none;stroke:#000000;stroke-width:0.75px;stroke-linecap:butt;stroke-linejoin:miter;stroke-opacity:1"
       d="m 7.37676,120.871 c 7.022202,2.56377 17.336656,4.95827 22.190918,-2.5669 7.072738,-14.3626 -0.480472,-30.152129 4.058853,-45.716434 1.34105,-7.965448 13.879142,-7.922703 19.734211,-8.422137 8.605589,0.0062 7.994825,-7.871466 5.336177,-13.455657 -3.277472,-9.563513 3.884284,-16.289277 9.256234,-22.322226 5.583416,-4.990857 15.703282,-9.890444 23.620933,-7.398357 6.684387,2.554576 5.837267,10.630641 3.666291,16.231734 -1.672934,7.197521 -8.517172,12.587907 -11.634352,19.453404 -3.885593,6.279673 -5.412616,13.610096 -5.434726,20.902664 -0.876975,6.191023 -5.982592,13.132098 -1.361238,18.944819 4.754719,4.33138 13.122411,4.34165 15.650148,11.36034 3.050456,9.41619 -8.408227,13.302 -15.793976,12.87108 -7.300938,0.37002 -15.200364,-0.70034 -18.805168,-8.01777 -5.650205,-5.36261 -10.4442,4.27303 -13.296852,8.28218 -3.631062,5.58802 -5.686306,14.6659 0.846644,19.04203 7.543064,5.90714 18.126109,4.96907 27.487409,0.3617 8.319612,-3.87958 13.537175,-11.87051 19.846385,-18.16041 5.409894,-6.91087 13.199329,-11.49178 21.226089,-14.74991 12.32982,-3.96084 20.7885,-0.25738 30.71698,-3.35642 7.99762,-2.02989 16.04463,-13.050398 24.6207,-11.08032"
       id="path4248" /><path
       style="fill:none;stroke:#000000;stroke-width:0.75px;stroke-linecap:butt;stroke-linejoin:miter;stroke-opacity:1"
       d="m 181.2596,95.971616 c 5.14155,2.161653 12.63625,6.947284 18.29406,8.517534 4.47398,0.63808 10.03007,-1.4019 13.77082,1.18146 4.50662,3.26353 8.22448,7.43256 12.51037,10.95861 2.23103,2.28699 5.12881,4.54361 8.52336,4.17276 l -0.10883,0.0363 -0.0981,0.0327"
       id="path4250" /></g></svg>