<?xml version="1.0" encoding="UTF-8" standalone="no"?>
<!-- Created with Inkscape (http://www.inkscape.org/) -->

<svg
   xmlns:dc="http://purl.org/dc/elements/1.1/"
   xmlns:cc="http://creativecommons.org/ns#"
   xmlns:rdf="http://www.w3.org/1999/02/22-rdf-syntax-ns#"
   xmlns:svg="http://www.w3.org/2000/svg"
   xmlns="http://www.w3.org/2000/svg"
   xmlns:sodipodi="http://sodipodi.sourceforge.net/DTD/sodipodi-0.dtd"
   xmlns:inkscape="http://www.inkscape.org/namespaces/inkscape"
   width="64.282463mm"
   height="27.149862mm"
   viewBox="0 0 64.282463 27.149862"
   version="1.1"
   id="svg6468"
   inkscape:version="0.92.4 5da689c313, 2019-01-14"
   sodipodi:docname="rope-knot-6.svg">
  <defs
     id="defs6462" />
  <sodipodi:namedview
     id="base"
     pagecolor="#ffffff"
     bordercolor="#666666"
     borderopacity="1.0"
     inkscape:pageopacity="0.0"
     inkscape:pageshadow="2"
     inkscape:zoom="0.35"
     inkscape:cx="-563.67636"
     inkscape:cy="57.159385"
     inkscape:document-units="mm"
     inkscape:current-layer="layer1"
     showgrid="false"
     inkscape:window-width="1421"
     inkscape:window-height="859"
     inkscape:window-x="1445"
     inkscape:window-y="54"
     inkscape:window-maximized="1" />
  <metadata
     id="metadata6465">
    <rdf:RDF>
      <cc:Work
         rdf:about="">
        <dc:format>image/svg+xml</dc:format>
        <dc:type
           rdf:resource="http://purl.org/dc/dcmitype/StillImage" />
        <dc:title />
      </cc:Work>
    </rdf:RDF>
  </metadata>
  <g
     inkscape:label="Layer 1"
     inkscape:groupmode="layer"
     id="layer1"
     transform="translate(-24.785205,-136.80689)">
    <path
       inkscape:connector-curvature="0"
       style="fill:none;stroke:#000000;stroke-width:0.16175815px;stroke-linecap:butt;stroke-linejoin:miter;stroke-opacity:1"
       d="m 35.560728,150.90624 c 2.636749,5.94841 -6.519117,5.5196 -7.096088,0.8259"
       id="path1448-1-0" />
    <path
       inkscape:connector-curvature="0"
       id="path2960"
       style="fill:none;stroke:#000000;stroke-width:0.16175815px;stroke-linecap:butt;stroke-linejoin:miter;stroke-opacity:1"
       d="m 45.540791,148.82806 c 0.279779,0.25093 0.55956,0.50188 0.839339,0.75283 m -18.956068,-0.91272 c -2.057722,-8.24823 11.15648,-13.55166 15.680293,-6.57488 1.342894,2.05409 0.516382,4.97384 2.436436,6.73477" />
    <path
       inkscape:connector-curvature="0"
       style="fill:none;stroke:#000000;stroke-width:0.16175815px;stroke-linecap:butt;stroke-linejoin:miter;stroke-opacity:1"
       d="m 47.329747,150.15684 c 5.982142,4.47376 10.855233,-7.84707 2.783824,-7.86669 -1.273128,0.1079 -2.437886,0.82182 -3.264684,1.77136"
       id="path1450-2-9" />
    <path
       inkscape:connector-curvature="0"
       id="path2952"
       style="fill:none;stroke:#000000;stroke-width:0.16175815px;stroke-linecap:butt;stroke-linejoin:miter;stroke-opacity:1"
       d="m 43.762229,150.90872 c -0.0139,0.26385 -0.02781,0.52771 -0.04171,0.79158 m 0.184132,-1.57095 c -0.04747,0.25978 -0.09495,0.51957 -0.142421,0.77937 m 0.390557,-1.53669 c -0.08271,0.25243 -0.165424,0.50487 -0.248136,0.75732" />
    <path
       inkscape:connector-curvature="0"
       id="path1452-7-3"
       style="fill:none;stroke:#000000;stroke-width:0.16175815px;stroke-linecap:butt;stroke-linejoin:miter;stroke-opacity:1"
       d="m 50.069708,158.62789 c 6.021545,-0.86389 10.835451,-6.33083 17.191674,-5.42119 3.311866,0.85452 5.627166,4.04323 9.218054,4.14797 5.23938,0.652 11.011553,-2.60618 12.459861,-7.79904 0.521513,-4.84689 -3.335938,-9.20145 -7.863702,-10.39893 -4.079841,-1.17907 -8.94429,-2.03609 -12.659,0.59652 -2.119964,1.30552 -4.016436,2.99063 -6.323235,3.97869 m -12.836507,14.84049 0.406429,0.0277 0.406426,0.0278 m -1.589955,-0.22659 c 0.259033,0.057 0.518067,0.11405 0.7771,0.17109 m -1.51345,-0.44799 c 0.245451,0.0923 0.4909,0.1846 0.73635,0.2769 m -1.426954,-0.64974 c 0.230202,0.12429 0.460403,0.24857 0.690604,0.37284 m -1.330462,-0.83183 c 0.213288,0.15301 0.426573,0.306 0.639858,0.45899 m -1.223976,-0.99425 c 0.194706,0.17842 0.389413,0.35685 0.584118,0.53526 m -1.107495,-1.13698 c 0.174457,0.20057 0.348915,0.40114 0.523377,0.60172 m -0.981021,-1.26008 c 0.152549,0.21945 0.305095,0.43891 0.457644,0.65836 m -0.844554,-1.36351 c 0.128969,0.23506 0.257941,0.47011 0.38691,0.70515 m -0.69809,-1.44725 c 0.103726,0.24737 0.207453,0.49475 0.31118,0.7421 m -0.31118,-0.7421 c 0.0605,0.2578 -0.09042,-0.25827 0,0 z" />
    <path
       inkscape:connector-curvature="0"
       style="fill:none;stroke:#000000;stroke-width:0.16175815px;stroke-linecap:butt;stroke-linejoin:miter;stroke-opacity:1"
       d="m 59.519803,144.42633 c -1.005531,0.30162 -1.820865,1.05904 -2.866962,1.24972"
       id="path1651-6" />
    <path
       inkscape:connector-curvature="0"
       style="fill:none;stroke:#000000;stroke-width:0.16175815px;stroke-linecap:butt;stroke-linejoin:miter;stroke-opacity:1"
       d="m 52.377794,146.25363 c -6.139872,1.08596 -7.54135,9.70856 -14.789319,8.78116"
       id="path1655-0" />
    <path
       inkscape:connector-curvature="0"
       style="fill:none;stroke:#000000;stroke-width:0.16175815px;stroke-linecap:butt;stroke-linejoin:miter;stroke-opacity:1"
       d="m 34.295539,153.82161 c -1.98651,-5.25504 5.476272,-7.07626 7.105773,-11.03426"
       id="path1659-2" />
    <path
       inkscape:connector-curvature="0"
       style="fill:none;stroke:#000000;stroke-width:0.16175815px;stroke-linecap:butt;stroke-linejoin:miter;stroke-opacity:1"
       d="m 44.289887,140.07217 c 5.543766,-5.07437 15.255467,-4.54728 16.625159,4.96685 0.360505,2.13019 0.894181,4.23544 1.572601,6.29851"
       id="path1661-6" />
    <path
       inkscape:connector-curvature="0"
       style="fill:none;stroke:#000000;stroke-width:0.16175815px;stroke-linecap:butt;stroke-linejoin:miter;stroke-opacity:1"
       d="m 63.354242,154.86148 c -0.416687,4.56256 -3.703695,8.79384 -8.510487,9.01448"
       id="path2918" />
    <path
       inkscape:connector-curvature="0"
       style="fill:none;stroke:#000000;stroke-width:0.16175815px;stroke-linecap:butt;stroke-linejoin:miter;stroke-opacity:1"
       d="m 24.961863,155.40575 c -0.871805,-4.30607 4.379091,-7.1186 8.04013,-6.16449"
       id="path1663-1" />
  </g>
</svg>
