<?xml version="1.0" encoding="UTF-8" standalone="no"?>
<!-- Created with Inkscape (http://www.inkscape.org/) -->

<svg
   xmlns:dc="http://purl.org/dc/elements/1.1/"
   xmlns:cc="http://creativecommons.org/ns#"
   xmlns:rdf="http://www.w3.org/1999/02/22-rdf-syntax-ns#"
   xmlns:svg="http://www.w3.org/2000/svg"
   xmlns="http://www.w3.org/2000/svg"
   xmlns:sodipodi="http://sodipodi.sourceforge.net/DTD/sodipodi-0.dtd"
   xmlns:inkscape="http://www.inkscape.org/namespaces/inkscape"
   width="64.229729mm"
   height="20.838667mm"
   viewBox="0 0 64.229729 20.838667"
   version="1.1"
   id="svg5804"
   inkscape:version="0.92.4 5da689c313, 2019-01-14"
   sodipodi:docname="rope-knot-5.svg">
  <defs
     id="defs5798" />
  <sodipodi:namedview
     id="base"
     pagecolor="#ffffff"
     bordercolor="#666666"
     borderopacity="1.0"
     inkscape:pageopacity="0.0"
     inkscape:pageshadow="2"
     inkscape:zoom="0.35"
     inkscape:cx="271.4248"
     inkscape:cy="-227.687"
     inkscape:document-units="mm"
     inkscape:current-layer="layer1"
     showgrid="false"
     inkscape:window-width="1421"
     inkscape:window-height="859"
     inkscape:window-x="1445"
     inkscape:window-y="54"
     inkscape:window-maximized="1" />
  <metadata
     id="metadata5801">
    <rdf:RDF>
      <cc:Work
         rdf:about="">
        <dc:format>image/svg+xml</dc:format>
        <dc:type
           rdf:resource="http://purl.org/dc/dcmitype/StillImage" />
        <dc:title />
      </cc:Work>
    </rdf:RDF>
  </metadata>
  <g
     inkscape:label="Layer 1"
     inkscape:groupmode="layer"
     id="layer1"
     transform="translate(-34.018854,-67.75248)">
    <path
       style="fill:none;stroke:#000000;stroke-width:0.16175815px;stroke-linecap:butt;stroke-linejoin:miter;stroke-opacity:1"
       d="m 44.79715,80.788808 c 2.636749,5.94841 -6.519116,5.51961 -7.096086,0.82588"
       id="path1448-1-0-8"
       inkscape:connector-curvature="0" />
    <path
       inkscape:connector-curvature="0"
       id="path2831"
       style="fill:none;stroke:#000000;stroke-width:0.16175815px;stroke-linecap:butt;stroke-linejoin:miter;stroke-opacity:1"
       d="m 54.777214,78.710608 c 0.279779,0.25095 0.55956,0.5019 0.839338,0.75283 m -18.956067,-0.91272 c -2.057722,-8.248206 11.156479,-13.551636 15.680292,-6.57487 1.342893,2.05408 0.516382,4.97384 2.436437,6.73476" />
    <path
       inkscape:connector-curvature="0"
       style="fill:none;stroke:#000000;stroke-width:0.16175815px;stroke-linecap:butt;stroke-linejoin:miter;stroke-opacity:1"
       d="m 56.566168,80.039418 c 5.982146,4.47373 10.855234,-7.84709 2.783826,-7.8667 -2.051482,0.0481 -3.584641,1.88457 -4.304558,3.56224"
       id="path1450-2-9-7" />
    <path
       inkscape:connector-curvature="0"
       id="path2859"
       style="fill:none;stroke:#000000;stroke-width:0.16175815px;stroke-linecap:butt;stroke-linejoin:miter;stroke-opacity:1"
       d="m 52.998651,80.791278 -0.04171,0.79158 m 0.184131,-1.57095 -0.142421,0.77937 m 0.390556,-1.53669 -0.248135,0.75732" />
    <path
       inkscape:connector-curvature="0"
       id="path1452-7-3-9"
       style="fill:none;stroke:#000000;stroke-width:0.16175815px;stroke-linecap:butt;stroke-linejoin:miter;stroke-opacity:1"
       d="m 59.306132,88.510458 c 6.16256,-0.84921 11.193673,-6.75677 17.731318,-5.20226 3.787132,1.5477 7.160117,5.04089 11.617166,3.90885 4.751441,-0.59907 9.804334,-4.52254 9.499995,-9.6783 -0.71061,-5.48801 -6.182614,-8.889096 -11.332425,-9.373506 -4.794805,-1.21248 -9.257929,1.07946 -12.920228,3.929516 -2.537767,1.43927 -6.086221,2.52916 -8.821489,3.52167 m -6.587193,12.83853 c 0.270956,0.0185 0.541907,0.0369 0.812856,0.0555 m -1.589957,-0.22659 0.777101,0.17109 m -1.513451,-0.44797 0.73635,0.27688 m -1.426954,-0.64974 0.690604,0.37286 m -1.330462,-0.83184 0.639858,0.45898 m -1.223974,-0.99424 0.584116,0.53526 m -1.107494,-1.137 0.523378,0.60174 m -0.981021,-1.26009 0.457643,0.65835 m -0.844555,-1.36349 0.386912,0.70514 m -0.698092,-1.44724 c 0.103727,0.24736 0.207453,0.49473 0.31118,0.7421 m -0.31118,-0.7421 c 0.0449,0.24214 -0.08868,-0.29377 0,0 z" />
    <path
       style="fill:none;stroke:#000000;stroke-width:0.16175815px;stroke-linecap:butt;stroke-linejoin:miter;stroke-opacity:1"
       d="m 61.614218,76.136188 c -6.139872,1.08596 -8.580786,9.70858 -15.828757,8.78117"
       id="path1655-0-0"
       inkscape:connector-curvature="0"
       sodipodi:nodetypes="cc" />
    <path
       style="fill:none;stroke:#000000;stroke-width:0.16175815px;stroke-linecap:butt;stroke-linejoin:miter;stroke-opacity:1"
       d="m 43.531963,83.704158 c -1.986511,-5.25504 3.112161,-5.96697 4.741663,-9.92498"
       id="path1659-2-2"
       inkscape:connector-curvature="0"
       sodipodi:nodetypes="cc" />
    <path
       style="fill:none;stroke:#000000;stroke-width:0.16175815px;stroke-linecap:butt;stroke-linejoin:miter;stroke-opacity:1"
       d="m 34.198286,85.288308 c -0.88628,-4.30832 4.378973,-7.10068 8.04013,-6.16447"
       id="path1663-1-7"
       inkscape:connector-curvature="0"
       sodipodi:nodetypes="cc" />
  </g>
</svg>
