<?xml version="1.0" encoding="UTF-8" standalone="no"?>
<!-- Created with Inkscape (http://www.inkscape.org/) -->

<svg
   xmlns:dc="http://purl.org/dc/elements/1.1/"
   xmlns:cc="http://creativecommons.org/ns#"
   xmlns:rdf="http://www.w3.org/1999/02/22-rdf-syntax-ns#"
   xmlns:svg="http://www.w3.org/2000/svg"
   xmlns="http://www.w3.org/2000/svg"
   xmlns:sodipodi="http://sodipodi.sourceforge.net/DTD/sodipodi-0.dtd"
   xmlns:inkscape="http://www.inkscape.org/namespaces/inkscape"
   width="64.217583mm"
   height="20.838676mm"
   viewBox="0 0 64.217583 20.838676"
   version="1.1"
   id="svg5120"
   inkscape:version="0.92.4 5da689c313, 2019-01-14"
   sodipodi:docname="rope-knot-4.svg">
  <defs
     id="defs5114" />
  <sodipodi:namedview
     id="base"
     pagecolor="#ffffff"
     bordercolor="#666666"
     borderopacity="1.0"
     inkscape:pageopacity="0.0"
     inkscape:pageshadow="2"
     inkscape:zoom="2.8"
     inkscape:cx="246.52965"
     inkscape:cy="-43.111262"
     inkscape:document-units="mm"
     inkscape:current-layer="layer1"
     showgrid="false"
     inkscape:window-width="2856"
     inkscape:window-height="1732"
     inkscape:window-x="10"
     inkscape:window-y="54"
     inkscape:window-maximized="1" />
  <metadata
     id="metadata5117">
    <rdf:RDF>
      <cc:Work
         rdf:about="">
        <dc:format>image/svg+xml</dc:format>
        <dc:type
           rdf:resource="http://purl.org/dc/dcmitype/StillImage" />
        <dc:title></dc:title>
      </cc:Work>
    </rdf:RDF>
  </metadata>
  <g
     inkscape:label="Layer 1"
     inkscape:groupmode="layer"
     id="layer1"
     transform="translate(-40.605696,-59.891707)">
    <path
       inkscape:connector-curvature="0"
       style="fill:none;stroke:#000000;stroke-width:0.16175815px;stroke-linecap:butt;stroke-linejoin:miter;stroke-opacity:1"
       d="m 43.235192,70.689954 c -2.057722,-8.24822 11.156479,-13.55164 15.680292,-6.57487 1.342893,2.05408 0.516382,4.97384 2.436436,6.73476"
       id="path2827" />
    <path
       inkscape:connector-curvature="0"
       style="fill:none;stroke:#000000;stroke-width:0.16175815px;stroke-linecap:butt;stroke-linejoin:miter;stroke-opacity:1"
       d="m 63.896828,72.556624 c 5.982143,4.47374 10.099281,-8.22506 2.027873,-8.24468 -2.051482,0.0481 -3.584641,1.88458 -4.304559,3.56225"
       id="path1450-2-9-7-1" />
    <path
       inkscape:connector-curvature="0"
       id="path2817"
       style="fill:none;stroke:#000000;stroke-width:0.16175815px;stroke-linecap:butt;stroke-linejoin:miter;stroke-opacity:1"
       d="m 59.573358,72.930514 -0.04171,0.79158 m 0.184131,-1.57095 -0.142421,0.77937 m 0.390556,-1.53669 -0.248135,0.75732" />
    <path
       inkscape:connector-curvature="0"
       id="path1452-7-3-9-2"
       style="fill:none;stroke:#000000;stroke-width:0.16175815px;stroke-linecap:butt;stroke-linejoin:miter;stroke-opacity:1"
       d="m 65.880839,80.649694 c 6.16256,-0.84921 11.193673,-6.75678 17.731318,-5.20226 3.787132,1.54769 7.160117,5.04089 11.617169,3.90885 4.751433,-0.59907 9.804334,-4.52254 9.499984,-9.6783 -0.7106,-5.48801 -6.182604,-8.8891 -11.332411,-9.37352 -4.794811,-1.21247 -9.257935,1.07947 -12.920234,3.92953 -2.537767,1.43926 -6.086224,2.52916 -8.821488,3.52167 m -6.587193,12.83853 c 0.270955,0.0185 0.541905,0.0369 0.812855,0.0555 m -1.589957,-0.22659 0.777102,0.17108 m -1.513452,-0.44797 0.73635,0.27689 m -1.426954,-0.64974 0.690604,0.37285 m -1.330462,-0.83183 0.639858,0.45898 m -1.223974,-0.99425 0.584116,0.53527 m -1.107495,-1.13701 0.523379,0.60174 m -0.98102,-1.26009 0.457641,0.65835 m -0.844554,-1.36348 0.386913,0.70513 m -0.698092,-1.44725 c 0.103726,0.24737 0.207452,0.49475 0.311179,0.74212 m -0.311179,-0.74212 c 0.0449,0.24215 -0.08868,-0.29375 0,0 z" />
    <path
       style="fill:none;stroke:#000000;stroke-width:0.16175815px;stroke-linecap:butt;stroke-linejoin:miter;stroke-opacity:1"
       d="m 68.188924,68.275424 c -6.139871,1.08596 -4.423046,7.6297 -11.671016,6.70229"
       id="path1655-0-0-9"
       inkscape:connector-curvature="0"
       sodipodi:nodetypes="cc" />
    <path
       style="fill:none;stroke:#000000;stroke-width:0.16175815px;stroke-linecap:butt;stroke-linejoin:miter;stroke-opacity:1"
       d="m 40.772993,77.427544 c -0.696977,-2.97735 2.98306,-5.37453 5.045018,-5.84408 2.327231,-0.6911 5.54856,0.49141 5.249089,3.37453 -0.162404,2.73264 -3.733888,2.82116 -5.339443,1.28697 -0.7675,-0.61284 -1.336335,-1.50472 -1.451887,-2.49106"
       id="path1663-1-7-1"
       inkscape:connector-curvature="0"
       sodipodi:nodetypes="ccccc" />
  </g>
</svg>
