<?xml version="1.0" encoding="UTF-8" standalone="no"?>
<!-- Created with Inkscape (http://www.inkscape.org/) -->

<svg
   xmlns:dc="http://purl.org/dc/elements/1.1/"
   xmlns:cc="http://creativecommons.org/ns#"
   xmlns:rdf="http://www.w3.org/1999/02/22-rdf-syntax-ns#"
   xmlns:svg="http://www.w3.org/2000/svg"
   xmlns="http://www.w3.org/2000/svg"
   xmlns:sodipodi="http://sodipodi.sourceforge.net/DTD/sodipodi-0.dtd"
   xmlns:inkscape="http://www.inkscape.org/namespaces/inkscape"
   width="63.814556mm"
   height="27.672235mm"
   viewBox="0 0 63.814556 27.672235"
   version="1.1"
   id="svg7105"
   inkscape:version="0.92.4 5da689c313, 2019-01-14"
   sodipodi:docname="rope-knot-7.svg">
  <defs
     id="defs7099" />
  <sodipodi:namedview
     id="base"
     pagecolor="#ffffff"
     bordercolor="#666666"
     borderopacity="1.0"
     inkscape:pageopacity="0.0"
     inkscape:pageshadow="2"
     inkscape:zoom="0.35"
     inkscape:cx="-263.69128"
     inkscape:cy="69.436863"
     inkscape:document-units="mm"
     inkscape:current-layer="layer1"
     showgrid="false"
     inkscape:window-width="1421"
     inkscape:window-height="1732"
     inkscape:window-x="1445"
     inkscape:window-y="54"
     inkscape:window-maximized="1" />
  <metadata
     id="metadata7102">
    <rdf:RDF>
      <cc:Work
         rdf:about="">
        <dc:format>image/svg+xml</dc:format>
        <dc:type
           rdf:resource="http://purl.org/dc/dcmitype/StillImage" />
        <dc:title />
      </cc:Work>
    </rdf:RDF>
  </metadata>
  <g
     inkscape:label="Layer 1"
     inkscape:groupmode="layer"
     id="layer1"
     transform="translate(-54.271294,-139.53293)">
    <path
       inkscape:connector-curvature="0"
       style="fill:none;stroke:#000000;stroke-width:0.16175815px;stroke-linecap:butt;stroke-linejoin:miter;stroke-opacity:1"
       d="m 64.57891,153.65647 c 2.636748,5.94841 -6.519118,5.5196 -7.096089,0.82589"
       id="path1448-1-0-5" />
    <path
       inkscape:connector-curvature="0"
       style="fill:none;stroke:#000000;stroke-width:0.16175815px;stroke-linecap:butt;stroke-linejoin:miter;stroke-opacity:1"
       d="m 56.442243,151.41838 c -2.057722,-8.24821 11.156479,-13.55164 15.680292,-6.57487 1.342894,2.05409 0.516382,4.97384 2.436438,6.73477"
       id="path2912" />
    <path
       inkscape:connector-curvature="0"
       style="fill:none;stroke:#000000;stroke-width:0.16175815px;stroke-linecap:butt;stroke-linejoin:miter;stroke-opacity:1"
       d="m 74.558973,151.57828 c 0.27978,0.25093 0.559561,0.50189 0.839339,0.75282"
       id="path2910" />
    <path
       inkscape:connector-curvature="0"
       style="fill:none;stroke:#000000;stroke-width:0.16175815px;stroke-linecap:butt;stroke-linejoin:miter;stroke-opacity:1"
       d="m 76.347928,152.90707 c 5.982143,4.47375 10.855237,-7.84709 2.783825,-7.86669 -1.273129,0.10789 -2.437887,0.82182 -3.264685,1.77134"
       id="path1450-2-9-9" />
    <path
       inkscape:connector-curvature="0"
       id="path2902"
       style="fill:none;stroke:#000000;stroke-width:0.16175815px;stroke-linecap:butt;stroke-linejoin:miter;stroke-opacity:1"
       d="m 72.780409,153.65893 c -0.0139,0.26387 -0.02781,0.52772 -0.04171,0.79159 m 0.184132,-1.57096 c -0.04747,0.25979 -0.09495,0.51959 -0.142422,0.77937 m 0.390556,-1.53668 c -0.08271,0.25243 -0.165422,0.50488 -0.248134,0.75731" />
    <path
       inkscape:connector-curvature="0"
       id="path1452-7-3-2"
       style="fill:none;stroke:#000000;stroke-width:0.16175815px;stroke-linecap:butt;stroke-linejoin:miter;stroke-opacity:1"
       d="m 79.087893,161.37812 c 6.021542,-0.86392 10.835452,-6.33084 17.191672,-5.42119 3.31186,0.85449 5.627165,4.04322 9.218055,4.14797 5.23938,0.652 11.01155,-2.60618 12.45986,-7.79905 0.52151,-4.84689 -3.33593,-9.20145 -7.8637,-10.39893 -4.07984,-1.17909 -8.94429,-2.03609 -12.659005,0.5965 -2.11996,1.30552 -4.01643,2.99063 -6.32323,3.97871 m -12.83651,14.84048 0.406429,0.0277 0.406429,0.0278 m -1.58996,-0.2266 c 0.259035,0.057 0.518068,0.11406 0.777102,0.17109 m -1.513451,-0.44797 c 0.245449,0.0923 0.490901,0.18458 0.736349,0.27688 m -1.426952,-0.64974 c 0.2302,0.1243 0.460402,0.24858 0.690603,0.37286 m -1.330461,-0.83184 c 0.213286,0.153 0.426573,0.30599 0.639858,0.45898 m -1.223975,-0.99424 c 0.194706,0.17843 0.389411,0.35685 0.584117,0.53526 m -1.107496,-1.13698 c 0.174457,0.20058 0.348917,0.40115 0.523379,0.60172 m -0.981023,-1.26007 c 0.152549,0.21944 0.305094,0.43889 0.457644,0.65835 m -0.844555,-1.36351 c 0.128971,0.23505 0.257942,0.47011 0.386911,0.70516 m -0.698092,-1.44725 c 0.103727,0.24737 0.207454,0.49474 0.311181,0.74209 m -0.311181,-0.74209 c 0.0605,0.2578 -0.09042,-0.25827 0,0 z" />
    <path
       inkscape:connector-curvature="0"
       style="fill:none;stroke:#000000;stroke-width:0.16175815px;stroke-linecap:butt;stroke-linejoin:miter;stroke-opacity:1"
       d="m 88.537985,147.17655 c -1.00553,0.30162 -1.82087,1.05905 -2.86697,1.24971"
       id="path1651-6-2" />
    <path
       inkscape:connector-curvature="0"
       style="fill:none;stroke:#000000;stroke-width:0.16175815px;stroke-linecap:butt;stroke-linejoin:miter;stroke-opacity:1"
       d="m 81.395975,149.00386 c -6.13987,1.08595 -7.54135,9.70856 -14.789319,8.78115"
       id="path1655-0-8" />
    <path
       inkscape:connector-curvature="0"
       style="fill:none;stroke:#000000;stroke-width:0.16175815px;stroke-linecap:butt;stroke-linejoin:miter;stroke-opacity:1"
       d="m 63.31372,156.57183 c -1.98651,-5.25505 5.476271,-7.07625 7.105772,-11.03426"
       id="path1659-2-9" />
    <path
       inkscape:connector-curvature="0"
       style="fill:none;stroke:#000000;stroke-width:0.16175815px;stroke-linecap:butt;stroke-linejoin:miter;stroke-opacity:1"
       d="m 73.308066,142.82237 c 5.543771,-5.07434 17.126359,-4.61409 16.959249,4.90006 0.3605,2.13019 0.56009,4.30225 1.23851,6.36533"
       id="path1661-6-7" />
    <path
       inkscape:connector-curvature="0"
       style="fill:none;stroke:#000000;stroke-width:0.16175815px;stroke-linecap:butt;stroke-linejoin:miter;stroke-opacity:1"
       d="m 92.372425,157.6117 c -1.91329,6.7353 -9.865967,7.77436 -15.70552,8.9983 -7.634498,1.39841 -17.156832,0.20494 -21.695829,-6.84148 -2.378122,-4.38286 2.55003,-9.40121 7.049098,-7.77707"
       id="path1663-1-3" />
  </g>
</svg>
