<?xml version="1.0" encoding="UTF-8" standalone="no"?>
<!-- Created with Inkscape (http://www.inkscape.org/) -->

<svg
   xmlns:dc="http://purl.org/dc/elements/1.1/"
   xmlns:cc="http://creativecommons.org/ns#"
   xmlns:rdf="http://www.w3.org/1999/02/22-rdf-syntax-ns#"
   xmlns:svg="http://www.w3.org/2000/svg"
   xmlns="http://www.w3.org/2000/svg"
   xmlns:sodipodi="http://sodipodi.sourceforge.net/DTD/sodipodi-0.dtd"
   xmlns:inkscape="http://www.inkscape.org/namespaces/inkscape"
   width="210mm"
   height="297mm"
   viewBox="0 0 210 297"
   version="1.1"
   id="svg8"
   inkscape:version="0.92.4 5da689c313, 2019-01-14"
   sodipodi:docname="rope-knot-1.svg">
  <defs
     id="defs2" />
  <sodipodi:namedview
     id="base"
     pagecolor="#ffffff"
     bordercolor="#666666"
     borderopacity="1.0"
     inkscape:pageopacity="0.0"
     inkscape:pageshadow="2"
     inkscape:zoom="5.6"
     inkscape:cx="183.50032"
     inkscape:cy="202.53284"
     inkscape:document-units="mm"
     inkscape:current-layer="layer1"
     showgrid="false"
     inkscape:window-width="2856"
     inkscape:window-height="1732"
     inkscape:window-x="10"
     inkscape:window-y="54"
     inkscape:window-maximized="1" />
  <metadata
     id="metadata5">
    <rdf:RDF>
      <cc:Work
         rdf:about="">
        <dc:format>image/svg+xml</dc:format>
        <dc:type
           rdf:resource="http://purl.org/dc/dcmitype/StillImage" />
        <dc:title></dc:title>
      </cc:Work>
    </rdf:RDF>
  </metadata>
  <g
     inkscape:label="Layer 1"
     inkscape:groupmode="layer"
     id="layer1">
    <path
       style="fill:none;stroke:#000000;stroke-width:0.16175815px;stroke-linecap:butt;stroke-linejoin:miter;stroke-opacity:1"
       d="m 84.531644,31.950849 c -21.514388,0 -43.028776,0 -64.543164,0"
       id="path860"
       inkscape:connector-curvature="0" />
    <path
       style="fill:none;stroke:#000000;stroke-width:0.16175815px;stroke-linecap:butt;stroke-linejoin:miter;stroke-opacity:1"
       d="m 18.762975,64.794335 c 1.111933,-8.346281 11.056283,-10.496376 18.114738,-10.244638 11.536983,0.61677 20.179399,9.235885 30.074044,14.035618 5.340117,2.01495 11.889266,0.756148 15.619084,-3.709281"
       id="path1437"
       inkscape:connector-curvature="0" />
    <path
       style="fill:none;stroke:#000000;stroke-width:0.16175815px;stroke-linecap:butt;stroke-linejoin:miter;stroke-opacity:1"
       d="m 17.128971,99.271826 c -1.013912,-1.788696 -0.510286,-4.435773 1.42702,-5.37741 2.386031,-1.437263 5.537296,-1.468106 7.987403,-0.179975 1.343979,0.884566 2.138834,3.177556 1.172986,4.350456 -1.243345,1.38529 -3.096076,1.02924 -4.317962,0.417204 -1.820771,-0.823294 -2.772057,-2.659139 -2.772057,-2.659139"
       id="path1448"
       inkscape:connector-curvature="0"
       sodipodi:nodetypes="cccccc" />
    <path
       style="fill:none;stroke:#000000;stroke-width:0.16175815px;stroke-linecap:butt;stroke-linejoin:miter;stroke-opacity:1"
       d="m 18.776993,91.372529 c -0.875307,-3.041612 1.27363,-7.201358 3.95817,-8.611365 3.042659,-1.601684 7.028231,-1.870852 9.949975,0.142363 1.064886,0.743738 1.934518,1.813811 2.176182,3.11483 0.420599,1.591651 0.873046,3.228538 1.944177,4.521701 1.279798,1.859737 3.210289,3.654546 5.602971,3.654962 1.953468,-0.03448 3.797895,-1.619579 4.156405,-3.533361 0.155495,-1.951033 -1.165544,-3.822936 -2.887017,-4.658427 -1.493886,-0.805638 -3.54162,-0.522391 -4.575612,0.889493 -0.116763,0.143422 -1.033217,1.565173 -1.131508,1.721825"
       id="path1450"
       inkscape:connector-curvature="0"
       sodipodi:nodetypes="cccccccccc" />
    <path
       style="fill:none;stroke:#000000;stroke-width:0.16175815px;stroke-linecap:butt;stroke-linejoin:miter;stroke-opacity:1"
       d="m 36.08342,92.654106 c -2.789465,7.029697 6.826835,12.369074 11.943847,7.125596 6.278791,-5.470203 13.460483,-2.796935 19.730233,0.657068 6.299453,1.84826 11.346797,-3.173018 13.75124,-8.436261"
       id="path1452"
       inkscape:connector-curvature="0" />
    <path
       style="fill:none;stroke:#000000;stroke-width:0.16175815px;stroke-linecap:butt;stroke-linejoin:miter;stroke-opacity:1"
       d="m 29.300442,208.44697 c 2.636748,5.94841 -6.519116,5.5196 -7.096087,0.82589"
       id="path1448-1-0" />
    <path
       id="path2960"
       style="fill:none;stroke:#000000;stroke-width:0.16175815px;stroke-linecap:butt;stroke-linejoin:miter;stroke-opacity:1"
       d="m 39.280505,206.36878 c 0.279779,0.25094 0.55956,0.50189 0.839339,0.75283 m -18.956067,-0.91272 c -2.057722,-8.24822 11.156478,-13.55165 15.680291,-6.57488 1.342893,2.05409 0.516382,4.97385 2.436437,6.73477" />
    <path
       style="fill:none;stroke:#000000;stroke-width:0.16175815px;stroke-linecap:butt;stroke-linejoin:miter;stroke-opacity:1"
       d="m 41.06946,207.69757 c 5.982144,4.47375 10.855233,-7.84708 2.783823,-7.86669 -1.273127,0.10789 -2.437885,0.82182 -3.264683,1.77135"
       id="path1450-2-9" />
    <path
       id="path2952"
       style="fill:none;stroke:#000000;stroke-width:0.16175815px;stroke-linecap:butt;stroke-linejoin:miter;stroke-opacity:1"
       d="m 37.501942,208.44944 c -0.0139,0.26386 -0.02781,0.52772 -0.04171,0.79158 m 0.184132,-1.57095 c -0.04747,0.25979 -0.09495,0.51958 -0.142422,0.77937 m 0.390556,-1.53669 c -0.08271,0.25244 -0.165423,0.50488 -0.248134,0.75732" />
    <path
       id="path1452-7-3"
       style="fill:none;stroke:#000000;stroke-width:0.16175815px;stroke-linecap:butt;stroke-linejoin:miter;stroke-opacity:1"
       d="m 43.809422,216.16862 c 6.021542,-0.8639 10.835449,-6.33084 17.191672,-5.42119 3.311867,0.85451 5.627166,4.04323 9.218053,4.14797 5.239381,0.652 11.011552,-2.60618 12.459862,-7.79904 0.521511,-4.84689 -3.335937,-9.20145 -7.863703,-10.39893 -4.079839,-1.17908 -8.944289,-2.03609 -12.659,0.59651 -2.119962,1.30552 -4.016434,2.99063 -6.323235,3.9787 m -12.836504,14.84048 0.406428,0.0277 0.406427,0.0278 m -1.589956,-0.22659 c 0.259033,0.057 0.518067,0.11406 0.777101,0.17109 m -1.513451,-0.44798 c 0.24545,0.0923 0.4909,0.18459 0.73635,0.27689 m -1.426953,-0.64974 c 0.2302,0.12429 0.460402,0.24857 0.690603,0.37285 m -1.330461,-0.83183 c 0.213286,0.153 0.426572,0.30599 0.639858,0.45898 m -1.223975,-0.99424 c 0.194705,0.17842 0.389411,0.35684 0.584117,0.53526 m -1.107496,-1.13699 c 0.174457,0.20058 0.348917,0.40115 0.523379,0.60173 m -0.981022,-1.26008 c 0.152548,0.21945 0.305095,0.4389 0.457643,0.65835 m -0.844553,-1.3635 c 0.12897,0.23505 0.25794,0.4701 0.38691,0.70515 m -0.698091,-1.44725 c 0.103727,0.24737 0.207454,0.49474 0.311181,0.7421 m -0.311181,-0.7421 c 0.0605,0.2578 -0.09042,-0.25827 0,0 z" />
    <path
       style="fill:none;stroke:#000000;stroke-width:0.16175815px;stroke-linecap:butt;stroke-linejoin:miter;stroke-opacity:1"
       d="m 53.259515,201.96705 c -1.00553,0.30162 -1.820866,1.05905 -2.866962,1.24972"
       id="path1651-6" />
    <path
       style="fill:none;stroke:#000000;stroke-width:0.16175815px;stroke-linecap:butt;stroke-linejoin:miter;stroke-opacity:1"
       d="m 46.117507,203.79436 c -6.13987,1.08596 -7.541349,9.70856 -14.789319,8.78116"
       id="path1655-0" />
    <path
       style="fill:none;stroke:#000000;stroke-width:0.16175815px;stroke-linecap:butt;stroke-linejoin:miter;stroke-opacity:1"
       d="m 28.035254,211.36233 c -1.98651,-5.25504 5.47627,-7.07625 7.105771,-11.03426"
       id="path1659-2" />
    <path
       style="fill:none;stroke:#000000;stroke-width:0.16175815px;stroke-linecap:butt;stroke-linejoin:miter;stroke-opacity:1"
       d="m 38.029599,197.61289 c 5.543767,-5.07436 15.255468,-4.54728 16.625159,4.96686 0.360505,2.13019 0.894183,4.23543 1.572601,6.29851"
       id="path1661-6" />
    <path
       style="fill:none;stroke:#000000;stroke-width:0.16175815px;stroke-linecap:butt;stroke-linejoin:miter;stroke-opacity:1"
       d="m 57.093954,212.40221 c -0.416687,4.56256 -3.703695,8.79384 -8.510484,9.01447"
       id="path2918" />
    <path
       style="fill:none;stroke:#000000;stroke-width:0.16175815px;stroke-linecap:butt;stroke-linejoin:miter;stroke-opacity:1"
       d="m 18.701578,212.94648 c -0.871805,-4.30607 4.379091,-7.1186 8.04013,-6.16449"
       id="path1663-1" />
    <path
       style="fill:none;stroke:#000000;stroke-width:0.16175815px;stroke-linecap:butt;stroke-linejoin:miter;stroke-opacity:1"
       d="m 28.115751,169.06084 c 2.636748,5.94841 -6.519116,5.51961 -7.096086,0.82589"
       id="path1448-1-0-8"
       inkscape:connector-curvature="0" />
    <path
       id="path2831"
       style="fill:none;stroke:#000000;stroke-width:0.16175815px;stroke-linecap:butt;stroke-linejoin:miter;stroke-opacity:1"
       d="m 38.095814,166.98265 c 0.27978,0.25095 0.55956,0.50189 0.839339,0.75283 m -18.956067,-0.91272 c -2.057722,-8.24822 11.156478,-13.55164 15.680291,-6.57487 1.342893,2.05408 0.516382,4.97384 2.436437,6.73476" />
    <path
       style="fill:none;stroke:#000000;stroke-width:0.16175815px;stroke-linecap:butt;stroke-linejoin:miter;stroke-opacity:1"
       d="m 39.884769,168.31145 c 5.982144,4.47374 10.855233,-7.84708 2.783825,-7.8667 -2.051482,0.0481 -3.58464,1.88458 -4.304558,3.56225"
       id="path1450-2-9-7" />
    <path
       id="path2859"
       style="fill:none;stroke:#000000;stroke-width:0.16175815px;stroke-linecap:butt;stroke-linejoin:miter;stroke-opacity:1"
       d="m 36.317251,169.06332 -0.04171,0.79158 m 0.184131,-1.57095 -0.142421,0.77937 m 0.390556,-1.53669 -0.248135,0.75732" />
    <path
       id="path1452-7-3-9"
       style="fill:none;stroke:#000000;stroke-width:0.16175815px;stroke-linecap:butt;stroke-linejoin:miter;stroke-opacity:1"
       d="m 42.624731,176.7825 c 6.162562,-0.84921 11.193675,-6.75678 17.731319,-5.20226 3.787131,1.54769 7.160116,5.04089 11.617165,3.90885 4.751441,-0.59907 9.804336,-4.52254 9.49999,-9.6783 -0.710607,-5.48801 -6.182602,-8.8891 -11.332417,-9.37352 -4.794807,-1.21247 -9.25793,1.07947 -12.920229,3.92953 -2.537768,1.43926 -6.086223,2.52916 -8.821489,3.52167 M 41.811876,176.727 c 0.270955,0.0185 0.541906,0.0369 0.812855,0.0555 m -1.589956,-0.22659 0.777101,0.17109 m -1.513451,-0.44798 0.73635,0.27689 m -1.426953,-0.64974 0.690603,0.37285 m -1.330461,-0.83183 0.639858,0.45898 m -1.223975,-0.99425 0.584117,0.53527 m -1.107495,-1.137 0.523378,0.60173 m -0.981021,-1.26008 0.457643,0.65835 m -0.844555,-1.36349 0.386912,0.70514 m -0.698092,-1.44725 c 0.103727,0.24737 0.207453,0.49474 0.31118,0.74211 m -0.31118,-0.74211 c 0.0449,0.24215 -0.08868,-0.29376 0,0 z" />
    <path
       style="fill:none;stroke:#000000;stroke-width:0.16175815px;stroke-linecap:butt;stroke-linejoin:miter;stroke-opacity:1"
       d="m 44.932816,164.40823 c -6.139869,1.08596 -8.580784,9.70857 -15.828754,8.78116"
       id="path1655-0-0"
       inkscape:connector-curvature="0"
       sodipodi:nodetypes="cc" />
    <path
       style="fill:none;stroke:#000000;stroke-width:0.16175815px;stroke-linecap:butt;stroke-linejoin:miter;stroke-opacity:1"
       d="m 26.850564,171.9762 c -1.986511,-5.25504 3.11216,-5.96697 4.741662,-9.92499"
       id="path1659-2-2"
       inkscape:connector-curvature="0"
       sodipodi:nodetypes="cc" />
    <path
       style="fill:none;stroke:#000000;stroke-width:0.16175815px;stroke-linecap:butt;stroke-linejoin:miter;stroke-opacity:1"
       d="m 17.516887,173.56035 c -0.88628,-4.30832 4.378973,-7.10068 8.04013,-6.16448"
       id="path1663-1-7"
       inkscape:connector-curvature="0"
       sodipodi:nodetypes="cc" />
    <path
       style="fill:none;stroke:#000000;stroke-width:0.16175815px;stroke-linecap:butt;stroke-linejoin:miter;stroke-opacity:1"
       d="m 30.352334,251.72085 c 2.636748,5.94841 -6.519116,5.5196 -7.096087,0.82589"
       id="path1448-1-0-5" />
    <path
       style="fill:none;stroke:#000000;stroke-width:0.16175815px;stroke-linecap:butt;stroke-linejoin:miter;stroke-opacity:1"
       d="m 22.215669,249.48277 c -2.057722,-8.24822 11.156478,-13.55165 15.680291,-6.57488 1.342893,2.05409 0.516382,4.97385 2.436437,6.73477"
       id="path2912" />
    <path
       style="fill:none;stroke:#000000;stroke-width:0.16175815px;stroke-linecap:butt;stroke-linejoin:miter;stroke-opacity:1"
       d="m 40.332397,249.64266 c 0.279779,0.25094 0.55956,0.50189 0.839339,0.75283"
       id="path2910" />
    <path
       style="fill:none;stroke:#000000;stroke-width:0.16175815px;stroke-linecap:butt;stroke-linejoin:miter;stroke-opacity:1"
       d="m 42.121352,250.97145 c 5.982143,4.47375 10.855234,-7.84708 2.783823,-7.86669 -1.273127,0.10789 -2.437885,0.82182 -3.264683,1.77135"
       id="path1450-2-9-9" />
    <path
       id="path2902"
       style="fill:none;stroke:#000000;stroke-width:0.16175815px;stroke-linecap:butt;stroke-linejoin:miter;stroke-opacity:1"
       d="m 38.553834,251.72332 c -0.0139,0.26386 -0.02781,0.52772 -0.04171,0.79158 m 0.184132,-1.57095 c -0.04747,0.25979 -0.09495,0.51958 -0.142422,0.77937 m 0.390556,-1.53669 c -0.08271,0.25244 -0.165423,0.50488 -0.248134,0.75732" />
    <path
       id="path1452-7-3-2"
       style="fill:none;stroke:#000000;stroke-width:0.16175815px;stroke-linecap:butt;stroke-linejoin:miter;stroke-opacity:1"
       d="m 44.861314,259.4425 c 6.021542,-0.86391 10.83545,-6.33084 17.191673,-5.42119 3.311867,0.8545 5.627167,4.04322 9.218052,4.14797 5.239382,0.652 11.011554,-2.60618 12.459862,-7.79905 0.521512,-4.84689 -3.335936,-9.20145 -7.863703,-10.39893 -4.079838,-1.17908 -8.944287,-2.03609 -12.659,0.59651 -2.119961,1.30552 -4.016433,2.99063 -6.323235,3.9787 m -12.836504,14.84049 0.406428,0.0277 0.406427,0.0278 m -1.589956,-0.22659 c 0.259033,0.057 0.518067,0.11406 0.777101,0.17109 m -1.513451,-0.44798 c 0.24545,0.0923 0.4909,0.18459 0.73635,0.27689 m -1.426953,-0.64974 c 0.2302,0.12429 0.460402,0.24857 0.690603,0.37285 m -1.330461,-0.83183 c 0.213286,0.153 0.426572,0.30599 0.639858,0.45898 m -1.223975,-0.99424 c 0.194705,0.17842 0.389411,0.35684 0.584117,0.53526 m -1.107496,-1.13699 c 0.174457,0.20058 0.348917,0.40115 0.523379,0.60173 m -0.981022,-1.26008 c 0.152548,0.21945 0.305095,0.4389 0.457643,0.65835 m -0.844553,-1.3635 c 0.12897,0.23505 0.25794,0.4701 0.38691,0.70515 m -0.698091,-1.44725 c 0.103727,0.24737 0.207454,0.49474 0.311181,0.7421 m -0.311181,-0.7421 c 0.0605,0.2578 -0.09042,-0.25827 0,0 z" />
    <path
       style="fill:none;stroke:#000000;stroke-width:0.16175815px;stroke-linecap:butt;stroke-linejoin:miter;stroke-opacity:1"
       d="m 54.311409,245.24093 c -1.005531,0.30162 -1.820868,1.05905 -2.866964,1.24972"
       id="path1651-6-2" />
    <path
       style="fill:none;stroke:#000000;stroke-width:0.16175815px;stroke-linecap:butt;stroke-linejoin:miter;stroke-opacity:1"
       d="m 47.1694,247.06824 c -6.139871,1.08596 -7.54135,9.70856 -14.78932,8.78116"
       id="path1655-0-8" />
    <path
       style="fill:none;stroke:#000000;stroke-width:0.16175815px;stroke-linecap:butt;stroke-linejoin:miter;stroke-opacity:1"
       d="m 29.087146,254.63621 c -1.98651,-5.25504 5.47627,-7.07625 7.105771,-11.03426"
       id="path1659-2-9" />
    <path
       style="fill:none;stroke:#000000;stroke-width:0.16175815px;stroke-linecap:butt;stroke-linejoin:miter;stroke-opacity:1"
       d="m 39.081491,240.88677 c 5.543767,-5.07436 17.126356,-4.6141 16.959248,4.90004 0.360502,2.13019 0.560093,4.30225 1.238512,6.36533"
       id="path1661-6-7" />
    <path
       style="fill:none;stroke:#000000;stroke-width:0.16175815px;stroke-linecap:butt;stroke-linejoin:miter;stroke-opacity:1"
       d="m 58.145846,255.67609 c -1.913289,6.73529 -9.865964,7.77436 -15.705518,8.99829 -7.634497,1.39841 -17.156829,0.20494 -21.695826,-6.84148 -2.378122,-4.38286 2.55003,-9.4012 7.049098,-7.77706"
       id="path1663-1-3" />
    <path
       style="fill:none;stroke:#000000;stroke-width:0.16175815px;stroke-linecap:butt;stroke-linejoin:miter;stroke-opacity:1"
       d="m 20.506173,129.93455 c -2.057722,-8.24822 11.156478,-13.55164 15.680291,-6.57487 1.342893,2.05408 0.516382,4.97384 2.436437,6.73476"
       id="path2827" />
    <path
       style="fill:none;stroke:#000000;stroke-width:0.16175815px;stroke-linecap:butt;stroke-linejoin:miter;stroke-opacity:1"
       d="m 41.167808,131.80122 c 5.982143,4.47374 10.099282,-8.22506 2.027873,-8.24468 -2.051482,0.0481 -3.58464,1.88458 -4.304558,3.56225"
       id="path1450-2-9-7-1" />
    <path
       id="path2817"
       style="fill:none;stroke:#000000;stroke-width:0.16175815px;stroke-linecap:butt;stroke-linejoin:miter;stroke-opacity:1"
       d="m 36.844338,132.17511 -0.04171,0.79158 m 0.184131,-1.57095 -0.142421,0.77937 m 0.390556,-1.53669 -0.248135,0.75732" />
    <path
       id="path1452-7-3-9-2"
       style="fill:none;stroke:#000000;stroke-width:0.16175815px;stroke-linecap:butt;stroke-linejoin:miter;stroke-opacity:1"
       d="m 43.151818,139.89429 c 6.162562,-0.84921 11.193675,-6.75678 17.73132,-5.20226 3.78713,1.54769 7.160115,5.04089 11.617164,3.90885 4.75144,-0.59907 9.804336,-4.52254 9.499991,-9.6783 -0.710607,-5.48801 -6.182603,-8.8891 -11.332419,-9.37352 -4.794805,-1.21247 -9.257929,1.07947 -12.920228,3.92953 -2.537767,1.43926 -6.086224,2.52916 -8.821489,3.52167 m -6.587194,12.83853 c 0.270955,0.0185 0.541906,0.0369 0.812855,0.0555 m -1.589956,-0.22659 0.777101,0.17109 m -1.513451,-0.44798 0.73635,0.27689 m -1.426953,-0.64974 0.690603,0.37285 m -1.330461,-0.83183 0.639858,0.45898 m -1.223975,-0.99425 0.584117,0.53527 m -1.107495,-1.137 0.523378,0.60173 m -0.981021,-1.26008 0.457643,0.65835 m -0.844555,-1.36349 0.386912,0.70514 m -0.698092,-1.44725 c 0.103727,0.24737 0.207453,0.49474 0.31118,0.74211 m -0.31118,-0.74211 c 0.0449,0.24215 -0.08868,-0.29376 0,0 z" />
    <path
       style="fill:none;stroke:#000000;stroke-width:0.16175815px;stroke-linecap:butt;stroke-linejoin:miter;stroke-opacity:1"
       d="m 45.459904,127.52002 c -6.13987,1.08596 -4.423046,7.6297 -11.671016,6.70229"
       id="path1655-0-0-9"
       inkscape:connector-curvature="0"
       sodipodi:nodetypes="cc" />
    <path
       style="fill:none;stroke:#000000;stroke-width:0.16175815px;stroke-linecap:butt;stroke-linejoin:miter;stroke-opacity:1"
       d="m 18.043974,136.67214 c -0.696977,-2.97735 2.98306,-5.37453 5.045018,-5.84408 2.327231,-0.6911 5.54856,0.49141 5.249089,3.37453 -0.162404,2.73264 -3.733888,2.82116 -5.339443,1.28697 -0.7675,-0.61284 -1.336335,-1.50472 -1.451887,-2.49106"
       id="path1663-1-7-1"
       inkscape:connector-curvature="0"
       sodipodi:nodetypes="ccccc" />
  </g>
</svg>
