<?xml version="1.0" encoding="utf-8" ?>
<svg baseProfile="full" height="4000px" version="1.1" width="4000px" xmlns="http://www.w3.org/2000/svg" xmlns:ev="http://www.w3.org/2001/xml-events" xmlns:xlink="http://www.w3.org/1999/xlink"><defs /><rect fill="white" height="100%" width="100%" x="0" y="0" /><line stroke="black" stroke-linecap="round" stroke-width="1" x1="2000.0" x2="2000.0" y1="2000.0" y2="2250.0" /><line stroke="black" stroke-linecap="round" stroke-width="1" x1="2000.0" x2="2000.0" y1="2300.0" y2="2350.0" /><line stroke="black" stroke-linecap="round" stroke-width="1" x1="2000.0" x2="2750.0" y1="2350.0" y2="2350.0" /><line stroke="black" stroke-linecap="round" stroke-width="1" x1="2750.0" x2="2750.0" y1="2350.0" y2="2475.0" /><line stroke="black" stroke-linecap="round" stroke-width="1" x1="2750.0" x2="2750.0" y1="2475.0" y2="2525.0" /><line stroke="black" stroke-linecap="round" stroke-width="1" x1="2750.0" x2="2750.0" y1="2525.0" y2="3225.0" /><line stroke="black" stroke-linecap="round" stroke-width="1" x1="2750.0" x2="2375.0" y1="3225.0" y2="3225.0" /><line stroke="black" stroke-linecap="round" stroke-width="1" x1="2375.0" x2="2325.0" y1="3225.0" y2="3225.0" /><line stroke="black" stroke-linecap="round" stroke-width="1" x1="2325.0" x2="1875.0" y1="3225.0" y2="3225.0" /><line stroke="black" stroke-linecap="round" stroke-width="1" x1="1875.0" x2="1874.9999999999998" y1="3225.0" y2="2300.0" /><line stroke="black" stroke-linecap="round" stroke-width="1" x1="1874.9999999999998" x2="1874.9999999999998" y1="2250.0" y2="2100.0" /><line stroke="black" stroke-linecap="round" stroke-width="1" x1="1874.9999999999998" x2="1699.9999999999998" y1="2100.0" y2="2100.0" /><line stroke="#0000ff" stroke-linecap="round" stroke-width="1" x1="1849.9999999999998" x2="2775.0" y1="1975.0" y2="1975.0" /><line stroke="#0000ff" stroke-linecap="round" stroke-width="1" x1="2775.0" x2="2775.0" y1="1975.0" y2="3250.0" /><line stroke="#0000ff" stroke-linecap="round" stroke-width="1" x1="2775.0" x2="1850.0" y1="3250.0" y2="3250.0" /><line stroke="#0000ff" stroke-linecap="round" stroke-width="1" x1="1850.0" x2="1849.9999999999998" y1="3250.0" y2="1975.0" /><line stroke="#000000" stroke-linecap="round" stroke-width="1" x1="1699.9999999999998" x2="1699.9999999999998" y1="2100.0" y2="2225.0" /><line stroke="#000000" stroke-linecap="round" stroke-width="1" x1="1699.9999999999998" x2="1699.9999999999998" y1="2250.0" y2="2275.0" /><line stroke="#000000" stroke-linecap="round" stroke-width="1" x1="1699.9999999999998" x2="2075.0" y1="2275.0" y2="2275.0" /><line stroke="#000000" stroke-linecap="round" stroke-width="1" x1="2075.0" x2="2075.0" y1="2275.0" y2="2337.5" /><line stroke="#000000" stroke-linecap="round" stroke-width="1" x1="2075.0" x2="2075.0" y1="2362.5" y2="2712.5" /><line stroke="#000000" stroke-linecap="round" stroke-width="1" x1="2075.0" x2="1887.4999999999998" y1="2712.5" y2="2712.5" /><line stroke="#000000" stroke-linecap="round" stroke-width="1" x1="1862.4999999999998" x2="1637.4999999999998" y1="2712.5" y2="2712.5" /><line stroke="#000000" stroke-linecap="round" stroke-width="1" x1="1637.4999999999998" x2="1637.4999999999998" y1="2712.5" y2="2250.0" /><line stroke="#000000" stroke-linecap="round" stroke-width="1" x1="1637.4999999999998" x2="1637.4999999999998" y1="2225.0" y2="2150.0" /><line stroke="#000000" stroke-linecap="round" stroke-width="1" x1="1637.4999999999998" x2="1549.9999999999998" y1="2150.0" y2="2150.0" /><line stroke="#0000ff" stroke-linecap="round" stroke-width="1" x1="1624.9999999999998" x2="2087.5" y1="2087.5" y2="2087.5" /><line stroke="#0000ff" stroke-linecap="round" stroke-width="1" x1="2087.5" x2="2087.5" y1="2087.5" y2="2725.0" /><line stroke="#0000ff" stroke-linecap="round" stroke-width="1" x1="2087.5" x2="1624.9999999999998" y1="2725.0" y2="2725.0" /><line stroke="#0000ff" stroke-linecap="round" stroke-width="1" x1="1624.9999999999998" x2="1624.9999999999998" y1="2725.0" y2="2087.5" /><line stroke="#000000" stroke-linecap="round" stroke-width="1" x1="1549.9999999999998" x2="1549.9999999999998" y1="2150.0" y2="2212.5" /><line stroke="#000000" stroke-linecap="round" stroke-width="1" x1="1549.9999999999998" x2="1549.9999999999998" y1="2225.0" y2="2237.5" /><line stroke="#000000" stroke-linecap="round" stroke-width="1" x1="1549.9999999999998" x2="1737.4999999999998" y1="2237.5" y2="2237.5" /><line stroke="#000000" stroke-linecap="round" stroke-width="1" x1="1737.4999999999998" x2="1737.4999999999998" y1="2237.5" y2="2268.75" /><line stroke="#000000" stroke-linecap="round" stroke-width="1" x1="1737.4999999999998" x2="1737.4999999999998" y1="2281.25" y2="2456.25" /><line stroke="#000000" stroke-linecap="round" stroke-width="1" x1="1737.4999999999998" x2="1643.7499999999998" y1="2456.25" y2="2456.25" /><line stroke="#000000" stroke-linecap="round" stroke-width="1" x1="1631.2499999999998" x2="1518.7499999999998" y1="2456.25" y2="2456.25" /><line stroke="#000000" stroke-linecap="round" stroke-width="1" x1="1518.7499999999998" x2="1518.7499999999995" y1="2456.25" y2="2225.0" /><line stroke="#000000" stroke-linecap="round" stroke-width="1" x1="1518.7499999999995" x2="1518.7499999999995" y1="2212.5" y2="2175.0" /><line stroke="#000000" stroke-linecap="round" stroke-width="1" x1="1518.7499999999995" x2="1474.9999999999995" y1="2175.0" y2="2175.0" /><line stroke="#0000ff" stroke-linecap="round" stroke-width="1" x1="1512.4999999999995" x2="1743.7499999999998" y1="2143.75" y2="2143.75" /><line stroke="#0000ff" stroke-linecap="round" stroke-width="1" x1="1743.7499999999998" x2="1743.7499999999998" y1="2143.75" y2="2462.5" /><line stroke="#0000ff" stroke-linecap="round" stroke-width="1" x1="1743.7499999999998" x2="1512.4999999999998" y1="2462.5" y2="2462.5" /><line stroke="#0000ff" stroke-linecap="round" stroke-width="1" x1="1512.4999999999998" x2="1512.4999999999995" y1="2462.5" y2="2143.75" /><line stroke="#000000" stroke-linecap="round" stroke-width="1" x1="1474.9999999999995" x2="1474.9999999999995" y1="2175.0" y2="2206.25" /><line stroke="#000000" stroke-linecap="round" stroke-width="1" x1="1474.9999999999995" x2="1474.9999999999995" y1="2212.5" y2="2218.75" /><line stroke="#000000" stroke-linecap="round" stroke-width="1" x1="1474.9999999999995" x2="1568.7499999999995" y1="2218.75" y2="2218.75" /><line stroke="#000000" stroke-linecap="round" stroke-width="1" x1="1568.7499999999995" x2="1568.7499999999995" y1="2218.75" y2="2234.375" /><line stroke="#000000" stroke-linecap="round" stroke-width="1" x1="1568.7499999999995" x2="1568.7499999999995" y1="2240.625" y2="2328.125" /><line stroke="#000000" stroke-linecap="round" stroke-width="1" x1="1568.7499999999995" x2="1521.8749999999995" y1="2328.125" y2="2328.125" /><line stroke="#000000" stroke-linecap="round" stroke-width="1" x1="1515.6249999999995" x2="1459.3749999999995" y1="2328.125" y2="2328.125" /><line stroke="#000000" stroke-linecap="round" stroke-width="1" x1="1459.3749999999995" x2="1459.3749999999995" y1="2328.125" y2="2212.5" /><line stroke="#000000" stroke-linecap="round" stroke-width="1" x1="1459.3749999999995" x2="1459.3749999999995" y1="2206.25" y2="2187.5" /><line stroke="#000000" stroke-linecap="round" stroke-width="1" x1="1459.3749999999995" x2="1437.4999999999995" y1="2187.5" y2="2187.5" /><line stroke="#0000ff" stroke-linecap="round" stroke-width="1" x1="1456.2499999999995" x2="1571.8749999999995" y1="2171.875" y2="2171.875" /><line stroke="#0000ff" stroke-linecap="round" stroke-width="1" x1="1571.8749999999995" x2="1571.8749999999995" y1="2171.875" y2="2331.25" /><line stroke="#0000ff" stroke-linecap="round" stroke-width="1" x1="1571.8749999999995" x2="1456.2499999999995" y1="2331.25" y2="2331.25" /><line stroke="#0000ff" stroke-linecap="round" stroke-width="1" x1="1456.2499999999995" x2="1456.2499999999995" y1="2331.25" y2="2171.875" /><line stroke="#000000" stroke-linecap="round" stroke-width="1" x1="1437.4999999999995" x2="1437.4999999999995" y1="2187.5" y2="2203.125" /><line stroke="#000000" stroke-linecap="round" stroke-width="1" x1="1437.4999999999995" x2="1437.4999999999995" y1="2206.25" y2="2209.375" /><line stroke="#000000" stroke-linecap="round" stroke-width="1" x1="1437.4999999999995" x2="1484.3749999999995" y1="2209.375" y2="2209.375" /><line stroke="#000000" stroke-linecap="round" stroke-width="1" x1="1484.3749999999995" x2="1484.3749999999995" y1="2209.375" y2="2217.1875" /><line stroke="#000000" stroke-linecap="round" stroke-width="1" x1="1484.3749999999995" x2="1484.3749999999995" y1="2220.3125" y2="2264.0625" /><line stroke="#000000" stroke-linecap="round" stroke-width="1" x1="1484.3749999999995" x2="1460.9374999999995" y1="2264.0625" y2="2264.0625" /><line stroke="#000000" stroke-linecap="round" stroke-width="1" x1="1457.8124999999995" x2="1429.6874999999995" y1="2264.0625" y2="2264.0625" /><line stroke="#000000" stroke-linecap="round" stroke-width="1" x1="1429.6874999999995" x2="1429.6874999999995" y1="2264.0625" y2="2206.25" /><line stroke="#000000" stroke-linecap="round" stroke-width="1" x1="1429.6874999999995" x2="1429.6874999999995" y1="2203.125" y2="2193.75" /><line stroke="#000000" stroke-linecap="round" stroke-width="1" x1="1429.6874999999995" x2="1418.7499999999995" y1="2193.75" y2="2193.75" /><line stroke="#0000ff" stroke-linecap="round" stroke-width="1" x1="1428.1249999999995" x2="1485.9374999999995" y1="2185.9375" y2="2185.9375" /><line stroke="#0000ff" stroke-linecap="round" stroke-width="1" x1="1485.9374999999995" x2="1485.9374999999995" y1="2185.9375" y2="2265.625" /><line stroke="#0000ff" stroke-linecap="round" stroke-width="1" x1="1485.9374999999995" x2="1428.1249999999995" y1="2265.625" y2="2265.625" /><line stroke="#0000ff" stroke-linecap="round" stroke-width="1" x1="1428.1249999999995" x2="1428.1249999999995" y1="2265.625" y2="2185.9375" /><line stroke="#000000" stroke-linecap="round" stroke-width="1" x1="1418.7499999999995" x2="1418.7499999999995" y1="2193.75" y2="2201.5625" /><line stroke="#000000" stroke-linecap="round" stroke-width="1" x1="1418.7499999999995" x2="1418.7499999999995" y1="2203.125" y2="2204.6875" /><line stroke="#000000" stroke-linecap="round" stroke-width="1" x1="1418.7499999999995" x2="1442.1874999999995" y1="2204.6875" y2="2204.6875" /><line stroke="#000000" stroke-linecap="round" stroke-width="1" x1="1442.1874999999995" x2="1442.1874999999995" y1="2204.6875" y2="2208.59375" /><line stroke="#000000" stroke-linecap="round" stroke-width="1" x1="1442.1874999999995" x2="1442.1874999999995" y1="2210.15625" y2="2232.03125" /><line stroke="#000000" stroke-linecap="round" stroke-width="1" x1="1442.1874999999995" x2="1430.4687499999995" y1="2232.03125" y2="2232.03125" /><line stroke="#000000" stroke-linecap="round" stroke-width="1" x1="1428.9062499999995" x2="1414.8437499999995" y1="2232.03125" y2="2232.03125" /><line stroke="#000000" stroke-linecap="round" stroke-width="1" x1="1414.8437499999995" x2="1414.8437499999995" y1="2232.03125" y2="2203.125" /><line stroke="#000000" stroke-linecap="round" stroke-width="1" x1="1414.8437499999995" x2="1414.8437499999995" y1="2201.5625" y2="2196.875" /><line stroke="#000000" stroke-linecap="round" stroke-width="1" x1="1414.8437499999995" x2="1409.3749999999995" y1="2196.875" y2="2196.875" /><line stroke="#0000ff" stroke-linecap="round" stroke-width="1" x1="1414.0624999999995" x2="1442.9687499999995" y1="2192.96875" y2="2192.96875" /><line stroke="#0000ff" stroke-linecap="round" stroke-width="1" x1="1442.9687499999995" x2="1442.9687499999995" y1="2192.96875" y2="2232.8125" /><line stroke="#0000ff" stroke-linecap="round" stroke-width="1" x1="1442.9687499999995" x2="1414.0624999999995" y1="2232.8125" y2="2232.8125" /><line stroke="#0000ff" stroke-linecap="round" stroke-width="1" x1="1414.0624999999995" x2="1414.0624999999995" y1="2232.8125" y2="2192.96875" /><line stroke="#000000" stroke-linecap="round" stroke-width="1" x1="1409.3749999999995" x2="1409.3749999999995" y1="2196.875" y2="2200.78125" /><line stroke="#000000" stroke-linecap="round" stroke-width="1" x1="1409.3749999999995" x2="1409.3749999999995" y1="2201.5625" y2="2202.34375" /><line stroke="#000000" stroke-linecap="round" stroke-width="1" x1="1409.3749999999995" x2="1421.0937499999995" y1="2202.34375" y2="2202.34375" /><line stroke="#000000" stroke-linecap="round" stroke-width="1" x1="1421.0937499999995" x2="1421.0937499999995" y1="2202.34375" y2="2204.296875" /><line stroke="#000000" stroke-linecap="round" stroke-width="1" x1="1421.0937499999995" x2="1421.0937499999995" y1="2205.078125" y2="2216.015625" /><line stroke="#000000" stroke-linecap="round" stroke-width="1" x1="1421.0937499999995" x2="1415.2343749999995" y1="2216.015625" y2="2216.015625" /><line stroke="#000000" stroke-linecap="round" stroke-width="1" x1="1414.4531249999995" x2="1407.4218749999995" y1="2216.015625" y2="2216.015625" /><line stroke="#000000" stroke-linecap="round" stroke-width="1" x1="1407.4218749999995" x2="1407.4218749999995" y1="2216.015625" y2="2201.5625" /><line stroke="#000000" stroke-linecap="round" stroke-width="1" x1="1407.4218749999995" x2="1407.4218749999995" y1="2200.78125" y2="2198.4375" /><line stroke="#000000" stroke-linecap="round" stroke-width="1" x1="1407.4218749999995" x2="1404.6874999999995" y1="2198.4375" y2="2198.4375" /><line stroke="#0000ff" stroke-linecap="round" stroke-width="1" x1="1407.0312499999995" x2="1421.4843749999995" y1="2196.484375" y2="2196.484375" /><line stroke="#0000ff" stroke-linecap="round" stroke-width="1" x1="1421.4843749999995" x2="1421.4843749999995" y1="2196.484375" y2="2216.40625" /><line stroke="#0000ff" stroke-linecap="round" stroke-width="1" x1="1421.4843749999995" x2="1407.0312499999995" y1="2216.40625" y2="2216.40625" /><line stroke="#0000ff" stroke-linecap="round" stroke-width="1" x1="1407.0312499999995" x2="1407.0312499999995" y1="2216.40625" y2="2196.484375" /><line stroke="#000000" stroke-linecap="round" stroke-width="1" x1="1404.6874999999995" x2="1404.6874999999995" y1="2198.4375" y2="2200.390625" /><line stroke="#000000" stroke-linecap="round" stroke-width="1" x1="1404.6874999999995" x2="1404.6874999999995" y1="2200.78125" y2="2201.171875" /><line stroke="#000000" stroke-linecap="round" stroke-width="1" x1="1404.6874999999995" x2="1410.5468749999995" y1="2201.171875" y2="2201.171875" /><line stroke="#000000" stroke-linecap="round" stroke-width="1" x1="1410.5468749999995" x2="1410.5468749999995" y1="2201.171875" y2="2202.1484375" /><line stroke="#000000" stroke-linecap="round" stroke-width="1" x1="1410.5468749999995" x2="1410.5468749999995" y1="2202.5390625" y2="2208.0078125" /><line stroke="#000000" stroke-linecap="round" stroke-width="1" x1="1410.5468749999995" x2="1407.6171874999995" y1="2208.0078125" y2="2208.0078125" /><line stroke="#000000" stroke-linecap="round" stroke-width="1" x1="1407.2265624999995" x2="1403.7109374999995" y1="2208.0078125" y2="2208.0078125" /><line stroke="#000000" stroke-linecap="round" stroke-width="1" x1="1403.7109374999995" x2="1403.7109374999995" y1="2208.0078125" y2="2200.78125" /><line stroke="#000000" stroke-linecap="round" stroke-width="1" x1="1403.7109374999995" x2="1403.7109374999995" y1="2200.390625" y2="2199.21875" /><line stroke="#000000" stroke-linecap="round" stroke-width="1" x1="1403.7109374999995" x2="1402.3437499999995" y1="2199.21875" y2="2199.21875" /><line stroke="#0000ff" stroke-linecap="round" stroke-width="1" x1="1403.5156249999995" x2="1410.7421874999995" y1="2198.2421875" y2="2198.2421875" /><line stroke="#0000ff" stroke-linecap="round" stroke-width="1" x1="1410.7421874999995" x2="1410.7421874999995" y1="2198.2421875" y2="2208.203125" /><line stroke="#0000ff" stroke-linecap="round" stroke-width="1" x1="1410.7421874999995" x2="1403.5156249999995" y1="2208.203125" y2="2208.203125" /><line stroke="#0000ff" stroke-linecap="round" stroke-width="1" x1="1403.5156249999995" x2="1403.5156249999995" y1="2208.203125" y2="2198.2421875" /><line stroke="#000000" stroke-linecap="round" stroke-width="1" x1="1402.3437499999995" x2="1402.3437499999995" y1="2199.21875" y2="2200.1953125" /><line stroke="#000000" stroke-linecap="round" stroke-width="1" x1="1402.3437499999995" x2="1402.3437499999995" y1="2200.390625" y2="2200.5859375" /><line stroke="#000000" stroke-linecap="round" stroke-width="1" x1="1402.3437499999995" x2="1405.2734374999995" y1="2200.5859375" y2="2200.5859375" /><line stroke="#000000" stroke-linecap="round" stroke-width="1" x1="1405.2734374999995" x2="1405.2734374999995" y1="2200.5859375" y2="2201.07421875" /><line stroke="#000000" stroke-linecap="round" stroke-width="1" x1="1405.2734374999995" x2="1405.2734374999995" y1="2201.26953125" y2="2204.00390625" /><line stroke="#000000" stroke-linecap="round" stroke-width="1" x1="1405.2734374999995" x2="1403.8085937499995" y1="2204.00390625" y2="2204.00390625" /><line stroke="#000000" stroke-linecap="round" stroke-width="1" x1="1403.6132812499995" x2="1401.8554687499995" y1="2204.00390625" y2="2204.00390625" /><line stroke="#000000" stroke-linecap="round" stroke-width="1" x1="1401.8554687499995" x2="1401.8554687499995" y1="2204.00390625" y2="2200.390625" /><line stroke="#000000" stroke-linecap="round" stroke-width="1" x1="1401.8554687499995" x2="1401.8554687499995" y1="2200.1953125" y2="2199.609375" /><line stroke="#000000" stroke-linecap="round" stroke-width="1" x1="1401.8554687499995" x2="1401.1718749999995" y1="2199.609375" y2="2199.609375" /><line stroke="#0000ff" stroke-linecap="round" stroke-width="1" x1="1401.7578124999995" x2="1405.3710937499995" y1="2199.12109375" y2="2199.12109375" /><line stroke="#0000ff" stroke-linecap="round" stroke-width="1" x1="1405.3710937499995" x2="1405.3710937499995" y1="2199.12109375" y2="2204.1015625" /><line stroke="#0000ff" stroke-linecap="round" stroke-width="1" x1="1405.3710937499995" x2="1401.7578124999995" y1="2204.1015625" y2="2204.1015625" /><line stroke="#0000ff" stroke-linecap="round" stroke-width="1" x1="1401.7578124999995" x2="1401.7578124999995" y1="2204.1015625" y2="2199.12109375" /><line stroke="#000000" stroke-linecap="round" stroke-width="1" x1="1401.1718749999995" x2="1401.1718749999995" y1="2199.609375" y2="2200.09765625" /><line stroke="#000000" stroke-linecap="round" stroke-width="1" x1="1401.1718749999995" x2="1401.1718749999995" y1="2200.1953125" y2="2200.29296875" /><line stroke="#000000" stroke-linecap="round" stroke-width="1" x1="1401.1718749999995" x2="1402.6367187499995" y1="2200.29296875" y2="2200.29296875" /><line stroke="#000000" stroke-linecap="round" stroke-width="1" x1="1402.6367187499995" x2="1402.6367187499995" y1="2200.29296875" y2="2200.537109375" /><line stroke="#000000" stroke-linecap="round" stroke-width="1" x1="1402.6367187499995" x2="1402.6367187499995" y1="2200.634765625" y2="2202.001953125" /><line stroke="#000000" stroke-linecap="round" stroke-width="1" x1="1402.6367187499995" x2="1401.9042968749995" y1="2202.001953125" y2="2202.001953125" /><line stroke="#000000" stroke-linecap="round" stroke-width="1" x1="1401.8066406249995" x2="1400.9277343749995" y1="2202.001953125" y2="2202.001953125" /><line stroke="#000000" stroke-linecap="round" stroke-width="1" x1="1400.9277343749995" x2="1400.9277343749995" y1="2202.001953125" y2="2200.1953125" /><line stroke="#000000" stroke-linecap="round" stroke-width="1" x1="1400.9277343749995" x2="1400.9277343749995" y1="2200.09765625" y2="2199.8046875" /><line stroke="#000000" stroke-linecap="round" stroke-width="1" x1="1400.9277343749995" x2="1400.5859374999995" y1="2199.8046875" y2="2199.8046875" /><line stroke="#0000ff" stroke-linecap="round" stroke-width="1" x1="1400.8789062499995" x2="1402.6855468749995" y1="2199.560546875" y2="2199.560546875" /><line stroke="#0000ff" stroke-linecap="round" stroke-width="1" x1="1402.6855468749995" x2="1402.6855468749995" y1="2199.560546875" y2="2202.05078125" /><line stroke="#0000ff" stroke-linecap="round" stroke-width="1" x1="1402.6855468749995" x2="1400.8789062499995" y1="2202.05078125" y2="2202.05078125" /><line stroke="#0000ff" stroke-linecap="round" stroke-width="1" x1="1400.8789062499995" x2="1400.8789062499995" y1="2202.05078125" y2="2199.560546875" /><line stroke="#000000" stroke-linecap="round" stroke-width="1" x1="1400.5859374999995" x2="1400.5859374999995" y1="2199.8046875" y2="2200.048828125" /><line stroke="#000000" stroke-linecap="round" stroke-width="1" x1="1400.5859374999995" x2="1400.5859374999995" y1="2200.09765625" y2="2200.146484375" /><line stroke="#000000" stroke-linecap="round" stroke-width="1" x1="1400.5859374999995" x2="1401.3183593749995" y1="2200.146484375" y2="2200.146484375" /><line stroke="#000000" stroke-linecap="round" stroke-width="1" x1="1401.3183593749995" x2="1401.3183593749995" y1="2200.146484375" y2="2200.2685546875" /><line stroke="#000000" stroke-linecap="round" stroke-width="1" x1="1401.3183593749995" x2="1401.3183593749995" y1="2200.3173828125" y2="2201.0009765625" /><line stroke="#000000" stroke-linecap="round" stroke-width="1" x1="1401.3183593749995" x2="1400.9521484374995" y1="2201.0009765625" y2="2201.0009765625" /><line stroke="#000000" stroke-linecap="round" stroke-width="1" x1="1400.9033203124995" x2="1400.4638671874995" y1="2201.0009765625" y2="2201.0009765625" /><line stroke="#000000" stroke-linecap="round" stroke-width="1" x1="1400.4638671874995" x2="1400.4638671874995" y1="2201.0009765625" y2="2200.09765625" /><line stroke="#000000" stroke-linecap="round" stroke-width="1" x1="1400.4638671874995" x2="1400.4638671874995" y1="2200.048828125" y2="2199.90234375" /><line stroke="#000000" stroke-linecap="round" stroke-width="1" x1="1400.4638671874995" x2="1400.2929687499995" y1="2199.90234375" y2="2199.90234375" /><line stroke="#0000ff" stroke-linecap="round" stroke-width="1" x1="1400.4394531249995" x2="1401.3427734374995" y1="2199.7802734375" y2="2199.7802734375" /><line stroke="#0000ff" stroke-linecap="round" stroke-width="1" x1="1401.3427734374995" x2="1401.3427734374995" y1="2199.7802734375" y2="2201.025390625" /><line stroke="#0000ff" stroke-linecap="round" stroke-width="1" x1="1401.3427734374995" x2="1400.4394531249995" y1="2201.025390625" y2="2201.025390625" /><line stroke="#0000ff" stroke-linecap="round" stroke-width="1" x1="1400.4394531249995" x2="1400.4394531249995" y1="2201.025390625" y2="2199.7802734375" /><line stroke="#000000" stroke-linecap="round" stroke-width="1" x1="1400.2929687499995" x2="1400.2929687499995" y1="2199.90234375" y2="2200.0244140625" /><line stroke="#000000" stroke-linecap="round" stroke-width="1" x1="1400.2929687499995" x2="1400.2929687499995" y1="2200.048828125" y2="2200.0732421875" /><line stroke="#000000" stroke-linecap="round" stroke-width="1" x1="1400.2929687499995" x2="1400.6591796874995" y1="2200.0732421875" y2="2200.0732421875" /><line stroke="#000000" stroke-linecap="round" stroke-width="1" x1="1400.6591796874995" x2="1400.6591796874995" y1="2200.0732421875" y2="2200.13427734375" /><line stroke="#000000" stroke-linecap="round" stroke-width="1" x1="1400.6591796874995" x2="1400.6591796874995" y1="2200.15869140625" y2="2200.50048828125" /><line stroke="#000000" stroke-linecap="round" stroke-width="1" x1="1400.6591796874995" x2="1400.4760742187495" y1="2200.50048828125" y2="2200.50048828125" /><line stroke="#000000" stroke-linecap="round" stroke-width="1" x1="1400.4516601562495" x2="1400.2319335937495" y1="2200.50048828125" y2="2200.50048828125" /><line stroke="#000000" stroke-linecap="round" stroke-width="1" x1="1400.2319335937495" x2="1400.2319335937495" y1="2200.50048828125" y2="2200.048828125" /><line stroke="#000000" stroke-linecap="round" stroke-width="1" x1="1400.2319335937495" x2="1400.2319335937495" y1="2200.0244140625" y2="2199.951171875" /><line stroke="#000000" stroke-linecap="round" stroke-width="1" x1="1400.2319335937495" x2="1400.1464843749995" y1="2199.951171875" y2="2199.951171875" /><line stroke="#0000ff" stroke-linecap="round" stroke-width="1" x1="1400.2197265624995" x2="1400.6713867187495" y1="2199.89013671875" y2="2199.89013671875" /><line stroke="#0000ff" stroke-linecap="round" stroke-width="1" x1="1400.6713867187495" x2="1400.6713867187495" y1="2199.89013671875" y2="2200.5126953125" /><line stroke="#0000ff" stroke-linecap="round" stroke-width="1" x1="1400.6713867187495" x2="1400.2197265624995" y1="2200.5126953125" y2="2200.5126953125" /><line stroke="#0000ff" stroke-linecap="round" stroke-width="1" x1="1400.2197265624995" x2="1400.2197265624995" y1="2200.5126953125" y2="2199.89013671875" /><line stroke="#000000" stroke-linecap="round" stroke-width="1" x1="1400.1464843749995" x2="1400.1464843749995" y1="2199.951171875" y2="2200.01220703125" /><line stroke="#000000" stroke-linecap="round" stroke-width="1" x1="1400.1464843749995" x2="1400.1464843749995" y1="2200.0244140625" y2="2200.03662109375" /><line stroke="#000000" stroke-linecap="round" stroke-width="1" x1="1400.1464843749995" x2="1400.3295898437495" y1="2200.03662109375" y2="2200.03662109375" /><line stroke="#000000" stroke-linecap="round" stroke-width="1" x1="1400.3295898437495" x2="1400.3295898437495" y1="2200.03662109375" y2="2200.067138671875" /><line stroke="#000000" stroke-linecap="round" stroke-width="1" x1="1400.3295898437495" x2="1400.3295898437495" y1="2200.079345703125" y2="2200.250244140625" /><line stroke="#000000" stroke-linecap="round" stroke-width="1" x1="1400.3295898437495" x2="1400.2380371093745" y1="2200.250244140625" y2="2200.250244140625" /><line stroke="#000000" stroke-linecap="round" stroke-width="1" x1="1400.2258300781245" x2="1400.1159667968745" y1="2200.250244140625" y2="2200.250244140625" /><line stroke="#000000" stroke-linecap="round" stroke-width="1" x1="1400.1159667968745" x2="1400.1159667968745" y1="2200.250244140625" y2="2200.0244140625" /><line stroke="#000000" stroke-linecap="round" stroke-width="1" x1="1400.1159667968745" x2="1400.1159667968745" y1="2200.01220703125" y2="2199.9755859375" /><line stroke="#000000" stroke-linecap="round" stroke-width="1" x1="1400.1159667968745" x2="1400.0732421874995" y1="2199.9755859375" y2="2199.9755859375" /><line stroke="#0000ff" stroke-linecap="round" stroke-width="1" x1="1400.1098632812495" x2="1400.3356933593745" y1="2199.945068359375" y2="2199.945068359375" /><line stroke="#0000ff" stroke-linecap="round" stroke-width="1" x1="1400.3356933593745" x2="1400.3356933593745" y1="2199.945068359375" y2="2200.25634765625" /><line stroke="#0000ff" stroke-linecap="round" stroke-width="1" x1="1400.3356933593745" x2="1400.1098632812495" y1="2200.25634765625" y2="2200.25634765625" /><line stroke="#0000ff" stroke-linecap="round" stroke-width="1" x1="1400.1098632812495" x2="1400.1098632812495" y1="2200.25634765625" y2="2199.945068359375" /><line stroke="#000000" stroke-linecap="round" stroke-width="1" x1="1400.0732421874995" x2="1400.0732421874995" y1="2199.9755859375" y2="2200.006103515625" /><line stroke="#000000" stroke-linecap="round" stroke-width="1" x1="1400.0732421874995" x2="1400.0732421874995" y1="2200.01220703125" y2="2200.018310546875" /><line stroke="#000000" stroke-linecap="round" stroke-width="1" x1="1400.0732421874995" x2="1400.1647949218745" y1="2200.018310546875" y2="2200.018310546875" /><line stroke="#000000" stroke-linecap="round" stroke-width="1" x1="1400.1647949218745" x2="1400.1647949218745" y1="2200.018310546875" y2="2200.0335693359375" /><line stroke="#000000" stroke-linecap="round" stroke-width="1" x1="1400.1647949218745" x2="1400.1647949218745" y1="2200.0396728515625" y2="2200.1251220703125" /><line stroke="#000000" stroke-linecap="round" stroke-width="1" x1="1400.1647949218745" x2="1400.119018554687" y1="2200.1251220703125" y2="2200.1251220703125" /><line stroke="#000000" stroke-linecap="round" stroke-width="1" x1="1400.112915039062" x2="1400.057983398437" y1="2200.1251220703125" y2="2200.1251220703125" /><line stroke="#000000" stroke-linecap="round" stroke-width="1" x1="1400.057983398437" x2="1400.057983398437" y1="2200.1251220703125" y2="2200.01220703125" /><line stroke="#000000" stroke-linecap="round" stroke-width="1" x1="1400.057983398437" x2="1400.057983398437" y1="2200.006103515625" y2="2199.98779296875" /><line stroke="#000000" stroke-linecap="round" stroke-width="1" x1="1400.057983398437" x2="1400.0366210937495" y1="2199.98779296875" y2="2199.98779296875" /><line stroke="#0000ff" stroke-linecap="round" stroke-width="1" x1="1400.0549316406245" x2="1400.167846679687" y1="2199.9725341796875" y2="2199.9725341796875" /><line stroke="#0000ff" stroke-linecap="round" stroke-width="1" x1="1400.167846679687" x2="1400.167846679687" y1="2199.9725341796875" y2="2200.128173828125" /><line stroke="#0000ff" stroke-linecap="round" stroke-width="1" x1="1400.167846679687" x2="1400.0549316406245" y1="2200.128173828125" y2="2200.128173828125" /><line stroke="#0000ff" stroke-linecap="round" stroke-width="1" x1="1400.0549316406245" x2="1400.0549316406245" y1="2200.128173828125" y2="2199.9725341796875" /><line stroke="#000000" stroke-linecap="round" stroke-width="1" x1="1400.0366210937495" x2="1400.0366210937495" y1="2199.98779296875" y2="2200.0030517578125" /><line stroke="#000000" stroke-linecap="round" stroke-width="1" x1="1400.0366210937495" x2="1400.0366210937495" y1="2200.006103515625" y2="2200.0091552734375" /><line stroke="#000000" stroke-linecap="round" stroke-width="1" x1="1400.0366210937495" x2="1400.082397460937" y1="2200.0091552734375" y2="2200.0091552734375" /><line stroke="#000000" stroke-linecap="round" stroke-width="1" x1="1400.082397460937" x2="1400.082397460937" y1="2200.0091552734375" y2="2200.0167846679688" /><line stroke="#000000" stroke-linecap="round" stroke-width="1" x1="1400.082397460937" x2="1400.082397460937" y1="2200.0198364257812" y2="2200.0625610351562" /><line stroke="#000000" stroke-linecap="round" stroke-width="1" x1="1400.082397460937" x2="1400.0595092773433" y1="2200.0625610351562" y2="2200.0625610351562" /><line stroke="#000000" stroke-linecap="round" stroke-width="1" x1="1400.0564575195308" x2="1400.0289916992183" y1="2200.0625610351562" y2="2200.0625610351562" /><line stroke="#000000" stroke-linecap="round" stroke-width="1" x1="1400.0289916992183" x2="1400.0289916992183" y1="2200.0625610351562" y2="2200.006103515625" /><line stroke="#000000" stroke-linecap="round" stroke-width="1" x1="1400.0289916992183" x2="1400.0289916992183" y1="2200.0030517578125" y2="2199.993896484375" /><line stroke="#000000" stroke-linecap="round" stroke-width="1" x1="1400.0289916992183" x2="1400.0183105468745" y1="2199.993896484375" y2="2199.993896484375" /><line stroke="#0000ff" stroke-linecap="round" stroke-width="1" x1="1400.027465820312" x2="1400.0839233398433" y1="2199.9862670898438" y2="2199.9862670898438" /><line stroke="#0000ff" stroke-linecap="round" stroke-width="1" x1="1400.0839233398433" x2="1400.0839233398433" y1="2199.9862670898438" y2="2200.0640869140625" /><line stroke="#0000ff" stroke-linecap="round" stroke-width="1" x1="1400.0839233398433" x2="1400.027465820312" y1="2200.0640869140625" y2="2200.0640869140625" /><line stroke="#0000ff" stroke-linecap="round" stroke-width="1" x1="1400.027465820312" x2="1400.027465820312" y1="2200.0640869140625" y2="2199.9862670898438" /><line stroke="#000000" stroke-linecap="round" stroke-width="1" x1="1400.0183105468745" x2="1400.0183105468745" y1="2199.993896484375" y2="2200.0015258789062" /><line stroke="#000000" stroke-linecap="round" stroke-width="1" x1="1400.0183105468745" x2="1400.0183105468745" y1="2200.0030517578125" y2="2200.0045776367188" /><line stroke="#000000" stroke-linecap="round" stroke-width="1" x1="1400.0183105468745" x2="1400.0411987304683" y1="2200.0045776367188" y2="2200.0045776367188" /><line stroke="#000000" stroke-linecap="round" stroke-width="1" x1="1400.0411987304683" x2="1400.0411987304683" y1="2200.0045776367188" y2="2200.0083923339844" /><line stroke="#000000" stroke-linecap="round" stroke-width="1" x1="1400.0411987304683" x2="1400.0411987304683" y1="2200.0099182128906" y2="2200.031280517578" /><line stroke="#000000" stroke-linecap="round" stroke-width="1" x1="1400.0411987304683" x2="1400.0297546386714" y1="2200.031280517578" y2="2200.031280517578" /><line stroke="#000000" stroke-linecap="round" stroke-width="1" x1="1400.0282287597652" x2="1400.014495849609" y1="2200.031280517578" y2="2200.031280517578" /><line stroke="#000000" stroke-linecap="round" stroke-width="1" x1="1400.014495849609" x2="1400.014495849609" y1="2200.031280517578" y2="2200.0030517578125" /><line stroke="#000000" stroke-linecap="round" stroke-width="1" x1="1400.014495849609" x2="1400.014495849609" y1="2200.0015258789062" y2="2199.9969482421875" /><line stroke="#000000" stroke-linecap="round" stroke-width="1" x1="1400.014495849609" x2="1400.009155273437" y1="2199.9969482421875" y2="2199.9969482421875" /><line stroke="#0000ff" stroke-linecap="round" stroke-width="1" x1="1400.0137329101558" x2="1400.0419616699214" y1="2199.993133544922" y2="2199.993133544922" /><line stroke="#0000ff" stroke-linecap="round" stroke-width="1" x1="1400.0419616699214" x2="1400.0419616699214" y1="2199.993133544922" y2="2200.0320434570312" /><line stroke="#0000ff" stroke-linecap="round" stroke-width="1" x1="1400.0419616699214" x2="1400.0137329101558" y1="2200.0320434570312" y2="2200.0320434570312" /><line stroke="#0000ff" stroke-linecap="round" stroke-width="1" x1="1400.0137329101558" x2="1400.0137329101558" y1="2200.0320434570312" y2="2199.993133544922" /><line stroke="#000000" stroke-linecap="round" stroke-width="1" x1="1400.009155273437" x2="1400.009155273437" y1="2199.9969482421875" y2="2200.000762939453" /><line stroke="#000000" stroke-linecap="round" stroke-width="1" x1="1400.009155273437" x2="1400.009155273437" y1="2200.0015258789062" y2="2200.0022888183594" /><line stroke="#000000" stroke-linecap="round" stroke-width="1" x1="1400.009155273437" x2="1400.020599365234" y1="2200.0022888183594" y2="2200.0022888183594" /><line stroke="#000000" stroke-linecap="round" stroke-width="1" x1="1400.020599365234" x2="1400.020599365234" y1="2200.0022888183594" y2="2200.004196166992" /><line stroke="#000000" stroke-linecap="round" stroke-width="1" x1="1400.020599365234" x2="1400.020599365234" y1="2200.0049591064453" y2="2200.015640258789" /><line stroke="#000000" stroke-linecap="round" stroke-width="1" x1="1400.020599365234" x2="1400.0148773193355" y1="2200.015640258789" y2="2200.015640258789" /><line stroke="#000000" stroke-linecap="round" stroke-width="1" x1="1400.0141143798824" x2="1400.0072479248042" y1="2200.015640258789" y2="2200.015640258789" /><line stroke="#000000" stroke-linecap="round" stroke-width="1" x1="1400.0072479248042" x2="1400.0072479248042" y1="2200.015640258789" y2="2200.0015258789062" /><line stroke="#000000" stroke-linecap="round" stroke-width="1" x1="1400.0072479248042" x2="1400.0072479248042" y1="2200.000762939453" y2="2199.9984741210938" /><line stroke="#000000" stroke-linecap="round" stroke-width="1" x1="1400.0072479248042" x2="1400.0045776367183" y1="2199.9984741210938" y2="2199.9984741210938" /><line stroke="#0000ff" stroke-linecap="round" stroke-width="1" x1="1400.0068664550777" x2="1400.0209808349605" y1="2199.996566772461" y2="2199.996566772461" /><line stroke="#0000ff" stroke-linecap="round" stroke-width="1" x1="1400.0209808349605" x2="1400.0209808349605" y1="2199.996566772461" y2="2200.0160217285156" /><line stroke="#0000ff" stroke-linecap="round" stroke-width="1" x1="1400.0209808349605" x2="1400.0068664550777" y1="2200.0160217285156" y2="2200.0160217285156" /><line stroke="#0000ff" stroke-linecap="round" stroke-width="1" x1="1400.0068664550777" x2="1400.0068664550777" y1="2200.0160217285156" y2="2199.996566772461" /><line stroke="#000000" stroke-linecap="round" stroke-width="1" x1="1400.0045776367183" x2="1400.0045776367183" y1="2199.9984741210938" y2="2200.0003814697266" /><line stroke="#000000" stroke-linecap="round" stroke-width="1" x1="1400.0045776367183" x2="1400.0045776367183" y1="2200.000762939453" y2="2200.0011444091797" /><line stroke="#000000" stroke-linecap="round" stroke-width="1" x1="1400.0045776367183" x2="1400.0102996826167" y1="2200.0011444091797" y2="2200.0011444091797" /><line stroke="#000000" stroke-linecap="round" stroke-width="1" x1="1400.0102996826167" x2="1400.0102996826167" y1="2200.0011444091797" y2="2200.002098083496" /><line stroke="#000000" stroke-linecap="round" stroke-width="1" x1="1400.0102996826167" x2="1400.0102996826167" y1="2200.0024795532227" y2="2200.0078201293945" /><line stroke="#000000" stroke-linecap="round" stroke-width="1" x1="1400.0102996826167" x2="1400.0074386596675" y1="2200.0078201293945" y2="2200.0078201293945" /><line stroke="#000000" stroke-linecap="round" stroke-width="1" x1="1400.007057189941" x2="1400.003623962402" y1="2200.0078201293945" y2="2200.0078201293945" /><line stroke="#000000" stroke-linecap="round" stroke-width="1" x1="1400.003623962402" x2="1400.003623962402" y1="2200.0078201293945" y2="2200.000762939453" /><line stroke="#000000" stroke-linecap="round" stroke-width="1" x1="1400.003623962402" x2="1400.003623962402" y1="2200.0003814697266" y2="2199.999237060547" /><line stroke="#000000" stroke-linecap="round" stroke-width="1" x1="1400.003623962402" x2="1400.002288818359" y1="2199.999237060547" y2="2199.999237060547" /><line stroke="#0000ff" stroke-linecap="round" stroke-width="1" x1="1400.0034332275386" x2="1400.01049041748" y1="2199.9982833862305" y2="2199.9982833862305" /><line stroke="#0000ff" stroke-linecap="round" stroke-width="1" x1="1400.01049041748" x2="1400.01049041748" y1="2199.9982833862305" y2="2200.008010864258" /><line stroke="#0000ff" stroke-linecap="round" stroke-width="1" x1="1400.01049041748" x2="1400.0034332275386" y1="2200.008010864258" y2="2200.008010864258" /><line stroke="#0000ff" stroke-linecap="round" stroke-width="1" x1="1400.0034332275386" x2="1400.0034332275386" y1="2200.008010864258" y2="2199.9982833862305" /></svg>