<?xml version="1.0" encoding="UTF-8" standalone="no"?>
<!-- Created with Inkscape (http://www.inkscape.org/) -->

<svg
   xmlns:dc="http://purl.org/dc/elements/1.1/"
   xmlns:cc="http://creativecommons.org/ns#"
   xmlns:rdf="http://www.w3.org/1999/02/22-rdf-syntax-ns#"
   xmlns:svg="http://www.w3.org/2000/svg"
   xmlns="http://www.w3.org/2000/svg"
   xmlns:sodipodi="http://sodipodi.sourceforge.net/DTD/sodipodi-0.dtd"
   xmlns:inkscape="http://www.inkscape.org/namespaces/inkscape"
   width="156.27406mm"
   height="118.86738mm"
   viewBox="0 0 156.27406 118.86738"
   version="1.1"
   id="svg8"
   inkscape:version="0.92.4 5da689c313, 2019-01-14"
   sodipodi:docname="blob.svg">
  <defs
     id="defs2" />
  <sodipodi:namedview
     id="base"
     pagecolor="#ffffff"
     bordercolor="#666666"
     borderopacity="1.0"
     inkscape:pageopacity="0.0"
     inkscape:pageshadow="2"
     inkscape:zoom="0.98994949"
     inkscape:cx="-377.23828"
     inkscape:cy="276.10869"
     inkscape:document-units="mm"
     inkscape:current-layer="layer1"
     showgrid="false"
     inkscape:window-width="2856"
     inkscape:window-height="1732"
     inkscape:window-x="10"
     inkscape:window-y="54"
     inkscape:window-maximized="1" />
  <metadata
     id="metadata5">
    <rdf:RDF>
      <cc:Work
         rdf:about="">
        <dc:format>image/svg+xml</dc:format>
        <dc:type
           rdf:resource="http://purl.org/dc/dcmitype/StillImage" />
        <dc:title></dc:title>
      </cc:Work>
    </rdf:RDF>
  </metadata>
  <g
     inkscape:label="Layer 1"
     inkscape:groupmode="layer"
     id="layer1"
     transform="translate(-31.397272,-93.840835)">
    <path
       style="fill:none;stroke:#000000;stroke-width:0.26458332px;stroke-linecap:butt;stroke-linejoin:miter;stroke-opacity:1"
       d="M 31.537804,117.12761 C 31.154351,104.3006 44.212539,95.5542 55.956456,95.046893 c 13.340422,-0.977768 25.353525,6.391387 38.412736,7.784107 9.860218,1.14699 19.834408,0.5525 29.732038,0.59568 10.85812,-0.56639 20.96926,-4.872907 30.82133,-9.021059 11.94303,-2.733801 23.23605,7.932869 24.46121,19.460529 3.66456,10.95583 7.19508,22.06523 7.83645,33.69305 0.55239,9.28448 0.63517,18.8928 -1.83743,27.89741 -6.45202,14.89594 -24.93913,20.71633 -39.94056,17.38267 -15.50376,-1.82652 -27.12314,10.57058 -40.61476,15.76791 -14.881313,3.78197 -31.199141,6.21177 -45.99786,0.8908 -13.148975,-5.34522 -17.616488,-21.04401 -17.054863,-34.07075 -0.201671,-8.35137 3.057804,-16.27299 3.413166,-24.51716 -2.036048,-13.45555 -12.448705,-19.47697 -13.650109,-33.78247 z"
       id="path879"
       inkscape:connector-curvature="0"
       sodipodi:nodetypes="cccccccccccccc" />
  </g>
</svg>
