<?xml version="1.0" encoding="UTF-8" standalone="no"?>
<!-- Created with Inkscape (http://www.inkscape.org/) -->

<svg
   xmlns:dc="http://purl.org/dc/elements/1.1/"
   xmlns:cc="http://creativecommons.org/ns#"
   xmlns:rdf="http://www.w3.org/1999/02/22-rdf-syntax-ns#"
   xmlns:svg="http://www.w3.org/2000/svg"
   xmlns="http://www.w3.org/2000/svg"
   xmlns:sodipodi="http://sodipodi.sourceforge.net/DTD/sodipodi-0.dtd"
   xmlns:inkscape="http://www.inkscape.org/namespaces/inkscape"
   width="210mm"
   height="297mm"
   viewBox="0 0 210 297"
   version="1.1"
   id="svg8"
   inkscape:version="0.92.4 5da689c313, 2019-01-14"
   sodipodi:docname="island-wilson.svg">
  <defs
     id="defs2" />
  <sodipodi:namedview
     id="base"
     pagecolor="#ffffff"
     bordercolor="#666666"
     borderopacity="1.0"
     inkscape:pageopacity="0.0"
     inkscape:pageshadow="2"
     inkscape:zoom="2.8"
     inkscape:cx="405.71429"
     inkscape:cy="760"
     inkscape:document-units="mm"
     inkscape:current-layer="layer1"
     showgrid="false"
     inkscape:window-width="1421"
     inkscape:window-height="1732"
     inkscape:window-x="10"
     inkscape:window-y="54"
     inkscape:window-maximized="1" />
  <metadata
     id="metadata5">
    <rdf:RDF>
      <cc:Work
         rdf:about="">
        <dc:format>image/svg+xml</dc:format>
        <dc:type
           rdf:resource="http://purl.org/dc/dcmitype/StillImage" />
        <dc:title></dc:title>
      </cc:Work>
    </rdf:RDF>
  </metadata>
  <g
     inkscape:label="Layer 1"
     inkscape:groupmode="layer"
     id="layer1">
    <path
       style="fill:none;stroke:#000000;stroke-width:0.26458332px;stroke-linecap:butt;stroke-linejoin:miter;stroke-opacity:1"
       d="m 30.899552,113.30357 c 1.406873,-3.90304 6.628089,-5.07447 10.387973,-5.87599 5.054743,0.0218 10.6059,-0.96138 15.087345,2.03794 4.313096,2.38536 8.586028,4.94683 13.095462,6.91531 4.507598,-0.0248 9.005074,0.76825 13.536434,0.41626 7.443727,0.21333 14.867342,-0.26213 22.259594,-1.03665 4.74212,-0.95256 9.48252,-2.28648 14.39308,-1.98846 3.94077,1.20979 7.10541,5.72739 10.71958,8.24963 3.86447,4.48638 -3.14132,6.63524 -6.17397,8.36229 -10.19607,4.0655 -21.38349,2.58367 -32.088834,3.14729 -6.874371,-0.14849 -13.856864,0.60765 -20.565132,-1.28491 -8.847628,-2.3661 -18.033178,-3.65961 -27.210262,-3.36231 -4.72199,-1.64794 -11.265813,-1.92599 -13.846257,-6.87527 -0.945126,-2.54638 -1.977348,-7.69375 0.404987,-8.70513 z"
       id="path21"
       inkscape:connector-curvature="0" />
    <path
       style="fill:none;stroke:#000000;stroke-width:0.26458332px;stroke-linecap:butt;stroke-linejoin:miter;stroke-opacity:1"
       d="m 44.60119,111.03571 c 0.135985,-3.21796 -0.525655,-6.57313 1.039438,-9.5439 2.198234,-6.987876 6.640323,-12.890605 10.961309,-18.615323 2.212607,-3.039 5.060431,-5.595931 7.181545,-8.693452 1.428596,-1.632807 2.444834,-3.868068 4.63019,-3.968752 0.654674,-0.221375 1.298887,-0.353659 1.984363,-0.37797"
       id="path36"
       inkscape:connector-curvature="0" />
    <path
       style="fill:none;stroke:#000000;stroke-width:0.26458332px;stroke-linecap:butt;stroke-linejoin:miter;stroke-opacity:1"
       d="m 51.782739,111.13021 c 1.831136,0.91228 0.690691,-4.40732 1.889869,-5.76414 0.652755,-2.03148 1.234305,-3.19674 2.078882,-5.0082 0.781635,-2.820274 2.484156,-5.148601 3.434104,-7.805555 0.349385,-1.227442 1.134312,-2.885438 1.763044,-3.911706 1.034751,-1.652334 1.524937,-2.991135 2.645807,-4.63019 1.31251,-2.049475 1.609601,-3.544095 2.929322,-5.57515 0.690848,-1.224127 2.233756,-0.960796 2.834823,-1.984367 0.766137,-1.100481 1.149954,-2.716184 1.889864,-3.496282 0.597193,-0.439895 1.009766,-1.103746 1.511895,-1.228418"
       id="path38"
       inkscape:connector-curvature="0" />
    <path
       style="fill:none;stroke:#000000;stroke-width:0.26458332px;stroke-linecap:butt;stroke-linejoin:miter;stroke-opacity:1"
       d="m 70.398033,69.836312 c -1.691614,-1.333972 -4.228146,-1.063568 -6.395202,-1.133921 -2.294971,-0.240147 -4.43567,0.275853 -6.455957,1.322905 -2.176049,0.85855 -4.627127,2.397816 -6.236595,3.496243 -1.296191,0.909098 0.126785,-2.421677 0.188965,-3.21276 0.423105,-1.138051 0.255769,-3.358043 1.41738,-3.685255 1.811067,0.299524 2.743726,-0.446898 4.157734,-1.417404 1.736201,-1.312934 3.273554,-3.193803 5.102658,-3.59075 1.678093,0.138295 3.52189,-0.270694 5.102675,0.188988 1.164874,0.941615 2.249501,2.245287 3.401754,3.401754 0.402352,-3.581646 -4.051913,-4.967364 -6.897959,-5.291669 -2.690442,-0.09034 -5.460707,-0.263376 -8.126488,0.09449 -1.118832,0.08867 -3.98179,3.780914 -3.968738,1.795383 0.298331,-3.009884 3.715901,-5.069855 6.236607,-6.425595 3.321922,-0.936194 6.886819,-0.69758 10.299851,-0.566956 2.282607,1.429708 3.513663,4.042717 4.252209,6.520089 -0.3626,3.646414 4.361473,-0.196684 6.142121,-0.188997 3.569978,-1.046539 7.262139,-1.249465 10.961309,-1.133913 -4.787689,1.637887 -9.575378,3.275773 -14.363067,4.91366 5.336807,-1.84633 10.241164,-5.756746 16.158454,-5.197158 0.716292,-0.226245 3.163748,1.600814 2.034287,1.417379 -2.885601,-0.147381 -5.543016,1.14477 -8.365419,1.511872 -1.628085,0.538877 -4.29795,1.541987 -4.72469,2.267842 3.877854,0.250654 8.116385,-0.803662 11.576956,1.337906 0.805245,0.570787 2.419261,1.988709 3.636573,2.347335 1.91025,0.714528 -1.160156,0.242628 -1.99319,0.37796 -5.824201,0 -11.648402,0 -17.472603,0"
       id="path40"
       inkscape:connector-curvature="0" />
    <path
       style="fill:none;stroke:#000000;stroke-width:0.26458332px;stroke-linecap:butt;stroke-linejoin:miter;stroke-opacity:1"
       d="m 75.217289,64.922603 c -0.79876,1.537481 -4.259041,2.169804 -3.685297,5.147245 0.707534,2.382858 5.332515,1.23067 7.604076,1.65633 4.141332,0.790019 -0.07902,-3.048278 -1.556455,-3.968739 -0.682831,-1.086328 -2.713199,-1.264506 -2.362324,-2.834836 z"
       id="path42"
       inkscape:connector-curvature="0" />
    <path
       style="fill:none;stroke:#000000;stroke-width:0.26458332px;stroke-linecap:butt;stroke-linejoin:miter;stroke-opacity:1"
       d="m 73.232885,65.962053 c -1.01236,-0.488874 -3.590533,-0.94276 -4.157737,0.661458 -0.325967,1.193398 -1.255306,4.466665 0.919967,4.157727 1.186054,-0.116489 3.434937,0.647961 2.859775,-1.392439 -0.30225,-1.331195 0.683338,-3.451874 -0.661458,-4.182704 -1.146404,-0.693549 -5.128269,-1.182326 -1.512004,1.7e-5"
       id="path44"
       inkscape:connector-curvature="0" />
    <path
       style="fill:none;stroke:#000000;stroke-width:0.26458332px;stroke-linecap:butt;stroke-linejoin:miter;stroke-opacity:1"
       d="m 78.808034,61.993303 c -2.210352,-0.165533 -5.341429,0.08941 -6.142112,2.362345 -0.590932,2.162074 0.860588,3.885439 3.118303,3.685264 1.661813,0.1914 3.863067,0.142204 3.590772,-2.173361 -0.154765,-1.727426 0.568847,-3.800793 -1.039431,-4.535718 -0.918711,-0.373535 -1.860136,-0.419528 -2.834823,-0.37797"
       id="path46"
       inkscape:connector-curvature="0" />
    <path
       style="fill:none;stroke:#000000;stroke-width:0.26458332px;stroke-linecap:butt;stroke-linejoin:miter;stroke-opacity:1"
       d="m 73.516367,116.0439 c -0.179786,-3.01209 1.194985,-4.47239 2.06042,-7.53241 0.904971,-2.3381 1.981201,-5.00256 3.514715,-6.8307 2.534767,1.95838 2.797492,7.00555 4.144104,10.20921 0.171579,0.75136 1.163336,4.78535 1.809015,6.61073"
       id="path48"
       inkscape:connector-curvature="0" />
    <path
       style="fill:none;stroke:#000000;stroke-width:0.26458332px;stroke-linecap:butt;stroke-linejoin:miter;stroke-opacity:1"
       d="m 80.886905,87.695684 c -0.637051,4.0284 -1.968095,8.844003 -2.740323,13.134666 h -0.09449 0.09449"
       id="path50"
       inkscape:connector-curvature="0" />
    <path
       style="fill:none;stroke:#000000;stroke-width:0.26458332px;stroke-linecap:butt;stroke-linejoin:miter;stroke-opacity:1"
       d="m 74.461308,91.947914 c 3.026198,-0.09833 6.020666,0.04051 8.976707,0.710643 3.354764,0.584033 6.757419,0.629837 10.111091,0.895751"
       id="path52"
       inkscape:connector-curvature="0" />
    <path
       style="fill:none;stroke:#000000;stroke-width:0.26458332px;stroke-linecap:butt;stroke-linejoin:miter;stroke-opacity:1"
       d="m 80.886905,87.695682 c 3.618543,-1.50119 8.191987,-1.605321 11.622767,-3.968738 2.0512,-2.178468 2.574236,-5.150621 2.362352,-8.031995 -4.38361,-1.815235 -9.249748,-1.069662 -13.890625,-1.22841 -2.079592,1.211956 -6.431446,1.801768 -6.047618,4.95824 -0.06353,1.674418 -0.296106,3.674591 1.795383,4.113178 0.153471,0.0044 0.421994,0.04401 0.472469,0.18899"
       id="path54"
       inkscape:connector-curvature="0" />
    <path
       style="fill:none;stroke:#000000;stroke-width:0.26458332px;stroke-linecap:butt;stroke-linejoin:miter;stroke-opacity:1"
       d="m 81.359374,77.679314 c -0.22904,1.435007 1.205198,0.249053 0.188989,1.039434"
       id="path56"
       inkscape:connector-curvature="0" />
    <path
       style="fill:none;stroke:#000000;stroke-width:0.26458332px;stroke-linecap:butt;stroke-linejoin:miter;stroke-opacity:1"
       d="m 86.84003,77.395831 c 0.951983,0 1.192154,0 0,0 z"
       id="path58"
       inkscape:connector-curvature="0" />
    <path
       style="fill:none;stroke:#000000;stroke-width:0.26458332px;stroke-linecap:butt;stroke-linejoin:miter;stroke-opacity:1"
       d="m 81.453867,82.309522 c -0.05316,-1.888181 2.465956,-2.823648 4.107799,-2.740311 1.402815,-0.434553 2.125026,0.73136 2.412288,1.606384 0.188349,0.429752 0.432506,0.831402 0.47246,1.322902"
       id="path60"
       inkscape:connector-curvature="0" />
  </g>
</svg>
