<?xml version="1.0" encoding="UTF-8" standalone="no"?>
<svg
   xmlns:dc="http://purl.org/dc/elements/1.1/"
   xmlns:cc="http://creativecommons.org/ns#"
   xmlns:rdf="http://www.w3.org/1999/02/22-rdf-syntax-ns#"
   xmlns:svg="http://www.w3.org/2000/svg"
   xmlns="http://www.w3.org/2000/svg"
   xmlns:sodipodi="http://sodipodi.sourceforge.net/DTD/sodipodi-0.dtd"
   xmlns:inkscape="http://www.inkscape.org/namespaces/inkscape"
   width="449.221771pt"
   height="199.642944pt"
   viewBox="0 0 449.221771 199.642944"
   version="1.2"
   id="svg1976"
   sodipodi:docname="csum-1.svg"
   inkscape:version="0.92.5 (2060ec1f9f, 2020-04-08)">
  <metadata
     id="metadata1980">
    <rdf:RDF>
      <cc:Work
         rdf:about="">
        <dc:format>image/svg+xml</dc:format>
        <dc:type
           rdf:resource="http://purl.org/dc/dcmitype/StillImage" />
        <dc:title></dc:title>
      </cc:Work>
    </rdf:RDF>
  </metadata>
  <sodipodi:namedview
     pagecolor="#ffffff"
     bordercolor="#666666"
     borderopacity="1"
     objecttolerance="10"
     gridtolerance="10"
     guidetolerance="10"
     inkscape:pageopacity="0"
     inkscape:pageshadow="2"
     inkscape:window-width="2092"
     inkscape:window-height="1746"
     id="namedview1978"
     showgrid="false"
     inkscape:zoom="1.7731656"
     inkscape:cx="349.77218"
     inkscape:cy="133.0953"
     inkscape:window-x="781"
     inkscape:window-y="47"
     inkscape:window-maximized="0"
     inkscape:current-layer="svg1976" />
  <defs
     id="defs1959">
    <marker
       inkscape:isstock="true"
       style="overflow:visible"
       id="marker3823"
       refX="0.0"
       refY="0.0"
       orient="auto"
       inkscape:stockid="Arrow2Lstart">
      <path
         transform="scale(1.1) translate(1,0)"
         d="M 8.7185878,4.0337352 L -2.2072895,0.016013256 L 8.7185884,-4.0017078 C 6.9730900,-1.6296469 6.9831476,1.6157441 8.7185878,4.0337352 z "
         style="fill-rule:evenodd;stroke-width:0.625;stroke-linejoin:round;stroke:#000000;stroke-opacity:1;fill:#000000;fill-opacity:1"
         id="path3821" />
    </marker>
    <marker
       inkscape:stockid="Arrow2Lstart"
       orient="auto"
       refY="0.0"
       refX="0.0"
       id="Arrow2Lstart"
       style="overflow:visible"
       inkscape:isstock="true"
       inkscape:collect="always">
      <path
         id="path982"
         style="fill-rule:evenodd;stroke-width:0.625;stroke-linejoin:round;stroke:#000000;stroke-opacity:1;fill:#000000;fill-opacity:1"
         d="M 8.7185878,4.0337352 L -2.2072895,0.016013256 L 8.7185884,-4.0017078 C 6.9730900,-1.6296469 6.9831476,1.6157441 8.7185878,4.0337352 z "
         transform="scale(1.1) translate(1,0)" />
    </marker>
    <marker
       inkscape:stockid="Arrow2Lend"
       orient="auto"
       refY="0.0"
       refX="0.0"
       id="marker3707"
       style="overflow:visible;"
       inkscape:isstock="true">
      <path
         id="path3705"
         style="fill-rule:evenodd;stroke-width:0.625;stroke-linejoin:round;stroke:#000000;stroke-opacity:1;fill:#000000;fill-opacity:1"
         d="M 8.7185878,4.0337352 L -2.2072895,0.016013256 L 8.7185884,-4.0017078 C 6.9730900,-1.6296469 6.9831476,1.6157441 8.7185878,4.0337352 z "
         transform="scale(1.1) rotate(180) translate(1,0)" />
    </marker>
    <marker
       inkscape:isstock="true"
       style="overflow:visible"
       id="marker3309"
       refX="0.0"
       refY="0.0"
       orient="auto"
       inkscape:stockid="Arrow1Lstart">
      <path
         transform="scale(0.8) translate(12.5,0)"
         style="fill-rule:evenodd;stroke:#000000;stroke-width:1pt;stroke-opacity:1;fill:#000000;fill-opacity:1"
         d="M 0.0,0.0 L 5.0,-5.0 L -12.5,0.0 L 5.0,5.0 L 0.0,0.0 z "
         id="path3307" />
    </marker>
    <marker
       inkscape:stockid="Arrow1Lstart"
       orient="auto"
       refY="0.0"
       refX="0.0"
       id="marker3267"
       style="overflow:visible"
       inkscape:isstock="true">
      <path
         id="path3265"
         d="M 0.0,0.0 L 5.0,-5.0 L -12.5,0.0 L 5.0,5.0 L 0.0,0.0 z "
         style="fill-rule:evenodd;stroke:#000000;stroke-width:1pt;stroke-opacity:1;fill:#000000;fill-opacity:1"
         transform="scale(0.8) translate(12.5,0)" />
    </marker>
    <marker
       inkscape:isstock="true"
       style="overflow:visible"
       id="marker2843"
       refX="0.0"
       refY="0.0"
       orient="auto"
       inkscape:stockid="Arrow1Lstart">
      <path
         transform="scale(0.8) translate(12.5,0)"
         style="fill-rule:evenodd;stroke:#000000;stroke-width:1pt;stroke-opacity:1;fill:#000000;fill-opacity:1"
         d="M 0.0,0.0 L 5.0,-5.0 L -12.5,0.0 L 5.0,5.0 L 0.0,0.0 z "
         id="path2841" />
    </marker>
    <marker
       inkscape:isstock="true"
       style="overflow:visible"
       id="marker2785"
       refX="0.0"
       refY="0.0"
       orient="auto"
       inkscape:stockid="Arrow1Lstart">
      <path
         transform="scale(0.8) translate(12.5,0)"
         style="fill-rule:evenodd;stroke:#000000;stroke-width:1pt;stroke-opacity:1;fill:#000000;fill-opacity:1"
         d="M 0.0,0.0 L 5.0,-5.0 L -12.5,0.0 L 5.0,5.0 L 0.0,0.0 z "
         id="path2783" />
    </marker>
    <marker
       inkscape:isstock="true"
       style="overflow:visible;"
       id="marker2633"
       refX="0.0"
       refY="0.0"
       orient="auto"
       inkscape:stockid="Arrow2Lend">
      <path
         transform="scale(1.1) rotate(180) translate(1,0)"
         d="M 8.7185878,4.0337352 L -2.2072895,0.016013256 L 8.7185884,-4.0017078 C 6.9730900,-1.6296469 6.9831476,1.6157441 8.7185878,4.0337352 z "
         style="fill-rule:evenodd;stroke-width:0.625;stroke-linejoin:round;stroke:#000000;stroke-opacity:1;fill:#000000;fill-opacity:1"
         id="path2631" />
    </marker>
    <marker
       inkscape:isstock="true"
       style="overflow:visible;"
       id="marker2599"
       refX="0.0"
       refY="0.0"
       orient="auto"
       inkscape:stockid="Arrow2Lend">
      <path
         transform="scale(1.1) rotate(180) translate(1,0)"
         d="M 8.7185878,4.0337352 L -2.2072895,0.016013256 L 8.7185884,-4.0017078 C 6.9730900,-1.6296469 6.9831476,1.6157441 8.7185878,4.0337352 z "
         style="fill-rule:evenodd;stroke-width:0.625;stroke-linejoin:round;stroke:#000000;stroke-opacity:1;fill:#000000;fill-opacity:1"
         id="path2597" />
    </marker>
    <marker
       inkscape:isstock="true"
       style="overflow:visible;"
       id="marker2547"
       refX="0.0"
       refY="0.0"
       orient="auto"
       inkscape:stockid="Arrow2Lend">
      <path
         transform="scale(1.1) rotate(180) translate(1,0)"
         d="M 8.7185878,4.0337352 L -2.2072895,0.016013256 L 8.7185884,-4.0017078 C 6.9730900,-1.6296469 6.9831476,1.6157441 8.7185878,4.0337352 z "
         style="fill-rule:evenodd;stroke-width:0.625;stroke-linejoin:round;stroke:#000000;stroke-opacity:1;fill:#000000;fill-opacity:1"
         id="path2545" />
    </marker>
    <marker
       inkscape:stockid="Arrow2Lend"
       orient="auto"
       refY="0.0"
       refX="0.0"
       id="Arrow2Lend"
       style="overflow:visible;"
       inkscape:isstock="true"
       inkscape:collect="always">
      <path
         id="path985"
         style="fill-rule:evenodd;stroke-width:0.625;stroke-linejoin:round;stroke:#000000;stroke-opacity:1;fill:#000000;fill-opacity:1"
         d="M 8.7185878,4.0337352 L -2.2072895,0.016013256 L 8.7185884,-4.0017078 C 6.9730900,-1.6296469 6.9831476,1.6157441 8.7185878,4.0337352 z "
         transform="scale(1.1) rotate(180) translate(1,0)" />
    </marker>
    <clipPath
       id="clip1">
      <path
         d="M 4 94 L 117 94 L 117 199.644531 L 4 199.644531 Z M 4 94 "
         id="path1950" />
    </clipPath>
    <clipPath
       id="clip2">
      <path
         d="M 332 94 L 445 94 L 445 199.644531 L 332 199.644531 Z M 332 94 "
         id="path1953" />
    </clipPath>
    <clipPath
       id="clip3">
      <path
         d="M 259 0 L 449.222656 0 L 449.222656 151 L 259 151 Z M 259 0 "
         id="path1956" />
    </clipPath>
  </defs>
  <g
     id="surface106271">
    <g
       clip-path="url(#clip1)"
       clip-rule="nonzero"
       id="g1963">
      <path
         style="fill:none;stroke-width:0.75000003;stroke-linecap:butt;stroke-linejoin:miter;stroke:rgb(0%, 0%, 0%);stroke-opacity:1;stroke-miterlimit:4;stroke-dasharray:none;marker-end:url(#marker2547)"
         d="m 20.332031,99.089844 c -2.058593,3.664066 -3.867187,7.488286 -5.40625,11.429686 -1.535156,3.94141 -2.800781,7.9961 -3.773437,12.11719 -0.972656,4.12109 -1.65625,8.30469 -2.027344,12.5039 -0.371094,4.19922 -0.429688,8.41407 -0.15625,12.59766 0.273438,4.17969 0.878906,8.32813 1.832031,12.39063 0.957031,4.0625 2.265625,8.04296 3.945313,11.88671 1.679687,3.84766 3.730468,7.5586 6.171875,11.08985 10.769531,16.98437 34.539062,19.73047 51.878906,12.19531 18.882813,-7.36328 34.843755,-21.92578 39.855465,-41.41016"
         id="path1961" />
    </g>
    <path
       style="fill:none;stroke-width:0.75000003;stroke-linecap:butt;stroke-linejoin:miter;stroke:rgb(0%, 0%, 0%);stroke-opacity:1;stroke-miterlimit:4;stroke-dasharray:none;marker-end:"
       d="m 115.70313,135.94922 c 2.91796,-15.57422 2.6875,-31.27734 2.45703,-47.335939"
       id="path2595" />
    <path
       style="fill:none;stroke-width:0.75000003;stroke-linecap:butt;stroke-linejoin:miter;stroke:rgb(0%, 0%, 0%);stroke-opacity:1;stroke-miterlimit:4;stroke-dasharray:none;marker-end:"
       d="m 118.16016,88.613281 c -0.75,-29.492187 -15.625,-58.417969 -38.960941,-76.414062 -14.5,-11.277344 -35.058594,-16.15625 -51.9375,-7.128907"
       id="path2593" />
    <path
       style="fill:none;stroke-width:0.75000003;stroke-linecap:butt;stroke-linejoin:miter;stroke:rgb(0%, 0%, 0%);stroke-opacity:1;stroke-miterlimit:4;stroke-dasharray:none;marker-end:url(#Arrow2Lend)"
       d="M 27.261719,5.070312 C 8.308594,17.371094 -2.203125,40.738281 0.921875,63.074219 c 1.386719,12 5.816406,23.59375 12.503906,33.636719"
       id="path2591" />
    <path
       style="fill:none;stroke-width:0.75000003;stroke-linecap:butt;stroke-linejoin:miter;stroke:rgb(0%, 0%, 0%);stroke-opacity:1;stroke-miterlimit:4;stroke-dasharray:none;marker-end:url(#Arrow2Lend)"
       d="m 23.546875,106.86719 c 17.6875,17.3789 40.851563,28.38281 64.460937,35.19922 20.429688,5.37109 42.449218,5.6914 62.867188,0.0977 13.67187,-3.76953 26.34766,-13.19531 30.84766,-27.08984 10.34375,-28.128908 -4.60938,-63.984376 -33.14063,-74.460939 -2.51172,-0.820312 -5.05469,-1.472656 -7.61719,-1.972656 -2.5625,-0.496094 -5.14843,-0.84375 -7.74609,-1.054687 -2.59375,-0.207032 -5.20313,-0.277344 -7.8125,-0.21875 -2.61328,0.05469 -5.22266,0.234374 -7.83203,0.523437 -2.60547,0.289063 -5.20313,0.691406 -7.78516,1.1875"
       id="path2589" />
    <path
       style="fill:none;stroke-width:0.75000003;stroke-linecap:butt;stroke-linejoin:miter;stroke:rgb(0%, 0%, 0%);stroke-opacity:1;stroke-miterlimit:4;stroke-dasharray:none;marker-end:"
       d="m 94.5625,43.09375 c -2.480469,0.824219 -4.925781,1.71875 -7.324219,2.664062 -23.414062,9.636719 -44.054687,25.40625 -60.9375,44.128907 -2.183593,2.933593 -4.175781,6.015625 -5.96875,9.203125"
       id="path1965" />
    <g
       clip-path="url(#clip2)"
       clip-rule="nonzero"
       id="g1969">
      <path
         style="fill:none;stroke-width:0.75;stroke-linecap:butt;stroke-linejoin:miter;stroke:rgb(0%,0%,0%);stroke-opacity:1;stroke-miterlimit:4;"
         d="M -428.890625 99.089844 C -430.949219 102.753906 -432.757812 106.578125 -434.292969 110.519531 C -435.832031 114.460938 -437.097656 118.515625 -438.070312 122.636719 C -439.042969 126.757812 -439.726562 130.941406 -440.09375 135.140625 C -440.464844 139.339844 -440.523438 143.554688 -440.253906 147.738281 C -439.980469 151.917969 -439.375 156.066406 -438.417969 160.128906 C -437.464844 164.191406 -436.15625 168.171875 -434.476562 172.015625 C -432.796875 175.863281 -430.746094 179.574219 -428.304688 183.105469 C -417.535156 200.089844 -393.765625 202.835938 -376.425781 195.300781 C -357.542969 187.9375 -341.578125 173.375 -336.570312 153.890625 "
         transform="matrix(-1,0,0,1,0,0)"
         id="path1967" />
    </g>
    <g
       clip-path="url(#clip3)"
       clip-rule="nonzero"
       id="g1973">
      <path
         style="fill:none;stroke-width:0.75;stroke-linecap:butt;stroke-linejoin:miter;stroke:rgb(0%, 0%, 0%);stroke-opacity:1;stroke-miterlimit:4;marker-end:"
         d="m -333.51953,135.94922 c 2.91797,-15.57422 2.69141,-31.27734 2.45703,-47.335939"
         transform="scale(-1,1)"
         id="path2781" />
      <path
         style="fill:none;stroke:#000000;stroke-width:0.75;stroke-linecap:butt;stroke-linejoin:miter;stroke-miterlimit:4;stroke-opacity:1;marker-end:url(#Arrow2Lstart)"
         d="m -331.0625,88.613281 c -0.0937,-3.686523 -0.4082,-7.364197 -0.9323,-11.012779 -0.52409,-3.648583 -1.25782,-7.268074 -2.19014,-10.838234 -0.93231,-3.57016 -2.0632,-7.090988 -3.3816,-10.542244 -1.31841,-3.451256 -2.82433,-6.832939 -4.5067,-10.124809 -1.68238,-3.29187 -3.5412,-6.493927 -5.56542,-9.58593"
         transform="scale(-1,1)"
         id="path3263" />
      <path
         style="fill:none;stroke:#000000;stroke-width:0.75;stroke-linecap:butt;stroke-linejoin:miter;stroke-miterlimit:4;stroke-opacity:1;marker-end:"
         d="m -347.63866,36.509285 c -2.02421,-3.092003 -4.21382,-6.073952 -6.55775,-8.925606 -2.34394,-2.851654 -4.8422,-5.573013 -7.48372,-8.143837 -2.64153,-2.570823 -5.42632,-4.991111 -8.34331,-7.240623 -1.8125,-1.409668 -3.71967,-2.7193604 -5.70248,-3.9144135 -1.98281,-1.1950531 -4.04126,-2.275467 -6.15635,-3.2265778 -2.11508,-0.9511109 -4.28678,-1.7729188 -6.4961,-2.4507599 -2.20931,-0.6778412 -4.45623,-1.2117158 -6.72173,-1.5869599 -2.2655,-0.37524418 -4.54959,-0.59185797 -6.83324,-0.6351777 -2.28366,-0.0433197 -4.56687,0.0866546 -6.83064,0.40458669 -2.26376,0.31793211 -4.50807,0.82382191 -6.7139,1.53233321 -2.20584,0.7085113 -4.3732,1.619644 -6.48306,2.7480619"
         transform="scale(-1,1)"
         id="path2779" />
      <path
         style="fill:none;stroke-width:0.75;stroke-linecap:butt;stroke-linejoin:miter;stroke:rgb(0%, 0%, 0%);stroke-opacity:1;stroke-miterlimit:4;marker-end:"
         d="m -421.96094,5.070312 c -18.94922,12.300782 -29.46484,35.667969 -26.33984,58.003907 1.38672,12 5.82031,23.59375 12.50391,33.636719"
         transform="scale(-1,1)"
         id="path2777" />
      <path
         style="fill:none;stroke:#000000;stroke-width:0.75;stroke-linecap:butt;stroke-linejoin:miter;stroke-miterlimit:4;stroke-opacity:1;marker-end:url(#marker3707)"
         d="m -336.13083,37.890675 c 2.60547,-0.289063 9.70505,-0.468747 12.31442,-0.523437 2.60938,-0.05859 5.21875,0.01172 7.81641,0.21875 2.59375,0.210937 5.17969,0.558593 7.74219,1.054687 2.5625,0.5 5.10547,1.152344 7.61719,1.972656 28.53125,10.476563 43.48437,46.332031 33.14062,74.460939 -4.5,13.89453 -17.17578,23.32031 -30.84375,27.08984 -2.55273,0.69921 -5.13043,1.30602 -7.72686,1.8221 -2.59643,0.51609 -5.21158,0.94146 -7.83924,1.27779 -2.62765,0.33633 -5.26781,0.58362 -7.91422,0.74357 -2.64642,0.15999 -5.2991,0.23259 -7.95181,0.21949"
         transform="scale(-1,1)"
         id="path3875" />
      <path
         style="fill:none;stroke:#000000;stroke-width:0.75;stroke-linecap:butt;stroke-linejoin:miter;stroke-miterlimit:4;stroke-opacity:1"
         d="m -329.77588,146.22706 c -2.65271,-0.0131 -5.30545,-0.11179 -7.95199,-0.29449 -2.64654,-0.18271 -5.28687,-0.44938 -7.91477,-0.79835 -2.6279,-0.34897 -5.24336,-0.78023 -7.84016,-1.29209 -2.59679,-0.51187 -5.17492,-1.10433 -7.72814,-1.77572 -23.60937,-6.81641 -46.77734,-17.82032 -64.46093,-35.19922"
         transform="scale(-1,1)"
         id="path2775" />
      <path
         style="fill:none;stroke-width:0.75;stroke-linecap:butt;stroke-linejoin:miter;stroke:rgb(0%, 0%, 0%);stroke-opacity:1;stroke-miterlimit:4;marker-end:url(#marker3823)"
         d="m -354.66016,43.09375 c -2.48046,0.824219 -4.92578,1.71875 -7.32421,2.664062 -23.41016,9.636719 -44.05469,25.40625 -60.9375,44.128907 -2.1836,2.933593 -4.17579,6.015625 -5.96875,9.203125"
         transform="scale(-1,1)"
         id="path1971" />
    </g>
  </g>
</svg>
