<?xml version="1.0" encoding="UTF-8" standalone="no"?>
<svg
   xmlns:dc="http://purl.org/dc/elements/1.1/"
   xmlns:cc="http://creativecommons.org/ns#"
   xmlns:rdf="http://www.w3.org/1999/02/22-rdf-syntax-ns#"
   xmlns:svg="http://www.w3.org/2000/svg"
   xmlns="http://www.w3.org/2000/svg"
   viewBox="0 0 412.58801 307.54266"
   height="307.54266"
   width="412.58801"
   xml:space="preserve"
   id="svg1005"
   version="1.1"><metadata
     id="metadata1011"><rdf:RDF><cc:Work
         rdf:about=""><dc:format>image/svg+xml</dc:format><dc:type
           rdf:resource="http://purl.org/dc/dcmitype/StillImage" /><dc:title></dc:title></cc:Work></rdf:RDF></metadata><defs
     id="defs1009"><pattern
       id="pattern1031"
       height="4.98138"
       width="4.98138"
       y="0"
       x="0"
       patternUnits="userSpaceOnUse"
       patternTransform="translate(-167.508,-115.329)"><g
         id="g1029"><path
           id="path1027"
           style="fill:none;stroke:#808080;stroke-opacity:1;stroke-width:0.3985;stroke-linecap:butt;stroke-linejoin:miter;stroke-miterlimit:10;stroke-dasharray:none"
           d="M 0,2.98883 3.08846,-0.09962" /></g></pattern></defs><g
     transform="matrix(1.3333333,0,0,-1.3333333,0,307.54267)"
     id="g1013"><g
       transform="translate(167.508,115.329)"
       id="g1015"><g
         id="g1017"><g
           id="g1019"><g
             id="g1021"><path
               id="path1023"
               style="fill:none;stroke:#000000;stroke-width:0.3985;stroke-linecap:butt;stroke-linejoin:miter;stroke-miterlimit:10;stroke-dasharray:none;stroke-opacity:1"
               d="M 113.38724,0 C 113.38724,62.62283 62.62283,113.38724 0,113.38724 -62.62283,113.38724 -113.38724,62.62283 -113.38724,0 c 0,-62.62283 50.76441,-113.38724 113.38724,-113.38724 62.62283,0 113.38724,50.76441 113.38724,113.38724 z" /></g><g
             id="g1025"><path
               id="path1033"
               style="fill:url(#pattern1031);fill-opacity:0.175;fill-rule:nonzero;stroke:#000000;stroke-width:0.3985;stroke-linecap:butt;stroke-linejoin:miter;stroke-miterlimit:10;stroke-dasharray:none;stroke-opacity:0.175"
               d="M 113.38724,0 C 113.38724,62.62283 62.62283,113.38724 0,113.38724 -62.62283,113.38724 -113.38724,62.62283 -113.38724,0 c 0,-62.62283 50.76441,-113.38724 113.38724,-113.38724 62.62283,0 113.38724,50.76441 113.38724,113.38724 z" /></g><g
             id="g1035" /><g
             id="g1037"><g
               id="g1039"><path
                 id="path1041"
                 style="fill:#ffffff;fill-opacity:1;fill-rule:nonzero;stroke:#000000;stroke-width:0.3985;stroke-linecap:butt;stroke-linejoin:miter;stroke-miterlimit:10;stroke-dasharray:none;stroke-opacity:1"
                 d="m -111.64375,0 c 0,0.9629 -0.78057,1.74348 -1.74349,1.74348 -0.9629,0 -1.74348,-0.78058 -1.74348,-1.74348 0,-0.9629 0.78058,-1.74348 1.74348,-1.74348 0.96292,0 1.74349,0.78058 1.74349,1.74348 z" /></g><g
               transform="translate(-113.386)"
               id="g1043"><g
                 id="g1045" /><g
                 transform="translate(113.386)"
                 id="g1047" /></g></g><g
             id="g1049"><g
               id="g1051"><path
                 id="path1053"
                 style="fill:#ffffff;fill-opacity:1;fill-rule:nonzero;stroke:#000000;stroke-width:0.3985;stroke-linecap:butt;stroke-linejoin:miter;stroke-miterlimit:10;stroke-dasharray:none;stroke-opacity:1"
                 d="m 115.13072,0 c 0,0.9629 -0.78058,1.74348 -1.74348,1.74348 -0.96292,0 -1.74349,-0.78058 -1.74349,-1.74348 0,-0.9629 0.78057,-1.74348 1.74349,-1.74348 0.9629,0 1.74348,0.78058 1.74348,1.74348 z" /></g><g
               transform="translate(113.386)"
               id="g1055"><g
                 id="g1057" /><g
                 transform="translate(-113.386)"
                 id="g1059" /></g></g><g
             id="g1061"><g
               id="g1063"><path
                 id="path1065"
                 style="fill:#ffffff;fill-opacity:1;fill-rule:nonzero;stroke:#000000;stroke-width:0.3985;stroke-linecap:butt;stroke-linejoin:miter;stroke-miterlimit:10;stroke-dasharray:none;stroke-opacity:1"
                 d="m 1.74348,-113.38724 c 0,0.96292 -0.78058,1.74349 -1.74348,1.74349 -0.9629,0 -1.74348,-0.78057 -1.74348,-1.74349 0,-0.9629 0.78058,-1.74348 1.74348,-1.74348 0.9629,0 1.74348,0.78058 1.74348,1.74348 z" /></g><g
               transform="translate(0,-113.386)"
               id="g1067"><g
                 id="g1069" /><g
                 transform="translate(0,113.386)"
                 id="g1071" /></g></g><g
             id="g1073"><g
               id="g1075"><path
                 id="path1077"
                 style="fill:none;stroke:#8080ff;stroke-width:0.20505001;stroke-linecap:butt;stroke-linejoin:miter;stroke-miterlimit:10;stroke-dasharray:none;stroke-opacity:1"
                 d="m 1.16048,-50.50996 v 0 c 0.95122,-3.33054 2.73626,-5.59011 4.17973,-8.83156 v 0 c 2.26067,-4.77175 4.12453,-9.91291 3.86703,-15.14574 v 0 C 9.3465,-78.60501 6.90103,-82.0091 4.39339,-85.14587 v 0 C 1.41011,-89.04735 0.51846,-96.48355 0.08092,-111.64465" /></g><g
               id="g1079"><path
                 id="path1081"
                 style="fill:none;stroke:#8080ff;stroke-width:0.20505001;stroke-linecap:butt;stroke-linejoin:miter;stroke-miterlimit:10;stroke-dasharray:none;stroke-opacity:1"
                 d="m 1.16048,-50.50996 v 0 c -1.07207,5.10308 -10.28464,16.28941 -13.00515,24.9116 v 0 c -1.3699,4.50531 -2.33862,10.90688 2.44897,13.76077 v 0 c 4.17097,1.43775 8.47946,-1.35733 11.51965,-4.01049 v 0 c 5.55311,-4.80809 9.75213,-12.15259 17.60006,-13.52028 v 0 c 5.51897,-1.13152 13.01041,0.17041 15.01796,6.14638 v 0 c 2.03731,5.33145 -4.97853,6.59704 -7.03599,10.20877 v 0 c -1.09047,4.72674 5.41473,5.4015 7.80328,8.25798 v 0 c 3.78647,3.3686 2.41481,8.68451 1.7798,13.01159 v 0 c -0.83824,4.60654 -4.72366,9.72521 -9.99126,8.78398 v 0 C 17.66481,15.60088 13.48506,5.2191 4.80591,1.90498 v 0 C 0.96602,0.1878 -4.73683,1.04857 -6.55342,5.1741 v 0 c -1.86828,5.50188 5.64069,5.30638 7.43185,9.80306 v 0 c 2.62329,4.96814 -1.09309,10.46827 -5.70636,12.64395 v 0 c -4.44252,1.73706 -8.70457,6.02092 -7.38812,11.11362 v 0 c 1.41893,6.17144 7.92765,8.67671 12.4227,12.31262 v 0 c 2.91055,2.67482 -0.83734,7.96304 0.88112,10.1759 v 0 c 2.38328,2.19988 9.40704,-2.24575 12.5576,-2.42306 v 0 c 3.43698,-0.36249 6.01471,1.62371 8.13873,-1.27773 v 0 c 3.10767,-3.30461 6.6042,-6.94832 11.42859,-7.41112 v 0 c 3.14705,-0.1661 5.76421,-0.47406 9.57518,-0.01126 v 0 c 5.54175,0.91182 8.36824,3.48712 12.56984,6.9336 v 0 c 3.23818,2.90664 5.554,8.32637 5.97619,11.49687 v 0 c 1.61953,7.77096 -1.68607,19.24275 -1.85516,27.14435" /></g><g
               id="g1083"><path
                 id="path1085"
                 style="fill:none;stroke:#8080ff;stroke-width:0.25487;stroke-linecap:butt;stroke-linejoin:miter;stroke-miterlimit:10;stroke-dasharray:2.98883, 2.98883;stroke-dashoffset:0;stroke-opacity:1"
                 d="m 59.47874,95.6749 v 0 c -0.03762,4.36865 2.06537,6.82458 -0.28465,8.14038 v 0 c -3.26878,1.65832 -6.77673,0.83996 -9.56203,-2.41271" /></g><g
               id="g1087"><path
                 id="path1089"
                 style="fill:none;stroke:#8080ff;stroke-width:0.20505001;stroke-linecap:butt;stroke-linejoin:miter;stroke-miterlimit:10;stroke-dasharray:none;stroke-opacity:1"
                 d="m 49.63206,101.40257 v 0 C 45.65201,96.6732 61.08777,75.97972 55.92004,68.27794 v 0 c -1.72549,-2.5044 -2.07499,-3.16617 -4.80774,-5.30811 v 0 C 48.24991,60.7267 42.97794,57.89789 38.39267,58.28113 v 0 C 35.5592,58.61852 22.82903,62.71378 14.27864,69.1482 v 0 C 5.72908,75.5835 1.35931,86.416 0.8539,88.25687 v 0 c -1.35407,3.66101 -0.72696,7.58843 -0.99237,11.38786 v 0 c -0.04988,1.48706 0.63063,2.31323 0.16598,13.74251" /></g><g
               id="g1091"><path
                 id="path1093"
                 style="fill:none;stroke:#ff8080;stroke-width:0.20505001;stroke-linecap:butt;stroke-linejoin:miter;stroke-miterlimit:10;stroke-dasharray:none;stroke-opacity:1"
                 d="m -56.38966,0.225 v 0 c 3.51056,1.2656 8.66604,2.44732 11.09224,-1.2673 v 0 c 3.53596,-7.09106 -0.23999,-14.88623 2.02943,-22.5707 v 0 c 0.67004,-3.93264 6.93789,-3.91103 9.86424,-4.15757 v 0 c 4.30147,0.0026 3.99669,-3.88678 2.66795,-6.6429 v 0 c -1.63879,-4.72162 1.94097,-8.04263 4.62642,-11.02107 v 0 c 2.79146,-2.46376 7.84972,-4.88251 11.80785,-3.65237 v 0 c 3.34061,1.26129 2.91759,5.24842 1.83235,8.01321 v 0 c -0.83648,3.55374 -4.25769,6.21469 -5.81587,9.60495 v 0 c -1.94186,3.09955 -2.70564,6.71902 -2.71612,10.31946 v 0 c -0.43885,3.05633 -2.99119,6.48288 -0.68058,9.35322 v 0 c 2.37627,2.13759 6.5595,2.1428 7.82253,5.6083 v 0 c 1.5249,4.64891 -4.2025,6.56675 -7.89435,6.35395 v 0 c -3.64984,0.1834 -7.59833,-0.34517 -9.40091,-3.9577 v 0 c -2.82385,-2.64799 -5.22028,2.10907 -6.64622,4.08832 v 0 c -1.81484,2.75873 -2.84226,7.24069 0.42306,9.40166 v 0 c 3.77069,2.91616 9.06104,2.45248 13.74004,0.1782 v 0 c 4.15869,-1.91526 6.76709,-5.86003 9.92115,-8.96565 v 0 c 2.70388,-3.41185 6.59719,-5.67314 10.60961,-7.28218 v 0 C 3.05678,-8.32626 7.28465,-6.49835 12.24832,-8.02779 v 0 c 3.99758,-1.00264 8.01965,-6.44308 12.30712,-5.47075" /></g><g
               id="g1095"><path
                 id="path1097"
                 style="fill:none;stroke:#ff8080;stroke-width:0.20505001;stroke-linecap:butt;stroke-linejoin:miter;stroke-miterlimit:10;stroke-dasharray:none;stroke-opacity:1"
                 d="m 30.52896,-12.06857 v 0 c 2.56986,1.06752 6.31691,3.43002 9.14516,4.20514 v 0 c 2.2361,0.31575 5.01355,-0.69205 6.88359,0.5839 v 0 c 2.25189,1.61078 4.1105,3.6688 6.25294,5.41021 v 0 c 1.11499,1.12893 2.56372,2.24313 4.2603,2.05973 l -0.0543,0.01815 -0.04906,0.01558" /></g><g
               id="g1099"><path
                 id="path1101"
                 style="fill:none;stroke:#ff8080;stroke-width:0.20505001;stroke-linecap:butt;stroke-linejoin:miter;stroke-miterlimit:10;stroke-dasharray:none;stroke-opacity:1"
                 d="m -56.38966,0.225 v 0 c -10.05692,-2.70593 -5.63894,-10.53054 -2.62152,-18.52818 v 0 c 3.41948,-7.17666 -0.40029,-16.70895 -9.40441,-17.22107 v 0 c -12.7126,-1.12458 -2.25099,12.47353 -5.40158,20.64852 v 0 c -3.43787,8.85405 -9.35271,21.13377 -3.3818,27.27929 v 0 c 6.91163,7.13688 14.44599,5.19738 18.91915,12.34377 v 0 c 3.03058,5.64461 4.61507,17.27297 -5.08627,13.62495 v 0 c -10.76289,-2.66878 -18.07919,5.03301 -21.54068,10.60234 v 0 c -2.19058,3.9361 -5.06087,13.01162 -6.09708,17.91834" /></g><g
               id="g1103"><path
                 id="path1105"
                 style="fill:none;stroke:#ff8080;stroke-width:0.25487;stroke-linecap:butt;stroke-linejoin:miter;stroke-miterlimit:10;stroke-dasharray:2.98883, 2.98883;stroke-dashoffset:0;stroke-opacity:1"
                 d="m -91.00385,66.89296 v 0 c -1.03615,4.90585 -2.79492,14.80662 -4.46701,18.89757 v 0 c -3.47198,7.38342 -12.43319,12.00209 -21.35583,12.92685 v 0 c -8.89903,1.013 -18.11862,0.37458 -24.68515,-7.62564 v 0 c -6.2731,-6.97167 -9.26601,-20.88034 -7.04649,-28.11759 v 0 c 2.49189,-6.41711 9.72233,-13.96924 19.29927,-18.28165 v 0 c 9.46486,-3.52345 15.00572,-11.7581 19.55771,-19.31715" /></g><g
               id="g1107"><path
                 id="path1109"
                 style="fill:none;stroke:#ff8080;stroke-width:0.20505001;stroke-linecap:butt;stroke-linejoin:miter;stroke-miterlimit:10;stroke-dasharray:none;stroke-opacity:1"
                 d="m -109.70135,25.37535 v 0 c 2.96485,-5.11604 8.35504,-13.82216 7.62283,-33.16353 v 0 c -0.73137,-19.3405 -8.36122,-4.565 -9.16179,-2.44642 v 0 c -1.09222,3.55374 -0.75763,3.45942 -1.82799,10.4596" /></g><g
               id="g1111"><path
                 id="path1113"
                 style="fill:none;stroke:#ff8080;stroke-width:0.20505001;stroke-linecap:butt;stroke-linejoin:miter;stroke-miterlimit:10;stroke-dasharray:none;stroke-opacity:1"
                 d="m 57.07095,0.19041 v 0 c 5.57679,0.65657 11.77718,-0.63581 11.41281,7.05123 v 0 c 0.2689,6.93271 -1.44958,14.56787 3.33451,20.46077 v 0 c 6.23544,9.47259 19.41488,17.30499 27.043,25.57425" /></g><g
               id="g1115"><path
                 id="path1117"
                 style="fill:none;stroke:#ff8080;stroke-width:0.25487;stroke-linecap:butt;stroke-linejoin:miter;stroke-miterlimit:10;stroke-dasharray:2.98883, 2.98883;stroke-dashoffset:0;stroke-opacity:1"
                 d="m 98.86127,53.27666 v 0 c 5.93239,6.08235 11.22274,6.54342 19.49899,8.20524 v 0 c 4.57739,1.01041 9.27742,1.19123 13.92224,0.58394 v 0 c 9.52524,-3.90843 4.16922,-13.24864 -4.16574,-12.52977 v 0 c -10.81544,-0.09082 -16.06114,-0.88066 -24.08601,-4.35306" /></g><g
               id="g1119"><path
                 id="path1121"
                 style="fill:none;stroke:#ff8080;stroke-width:0.20505001;stroke-linecap:butt;stroke-linejoin:miter;stroke-miterlimit:10;stroke-dasharray:none;stroke-opacity:1"
                 d="m 104.03075,45.18301 v 0 C 96.23622,42.02808 93.91516,26.16777 102.5111,25.07779 v 0 c 0.83822,-0.10642 1.78066,-0.07182 2.83262,0.12888 v 0 c 1.76489,0.22578 2.13978,0.66697 4.19374,1.76734" /></g><g
               id="g1123"><path
                 id="path1125"
                 style="fill:none;stroke:#ff8080;stroke-width:0.25487;stroke-linecap:butt;stroke-linejoin:miter;stroke-miterlimit:10;stroke-dasharray:2.98883, 2.98883;stroke-dashoffset:0;stroke-opacity:1"
                 d="m 109.53746,26.97401 v 0 c 2.05309,1.10039 5.85178,3.68697 7.91362,4.62905 v 0 c 2.06184,0.94291 4.07462,1.57269 5.93065,1.4239 v 0 c 1.85689,-0.14966 3.55696,-1.07702 4.99429,-3.25009 v 0 c 4.693,-10.47174 -7.24183,-14.47012 -15.76509,-15.52034" /></g><g
               id="g1127"><path
                 id="path1129"
                 style="fill:none;stroke:#ff8080;stroke-width:0.20505001;stroke-linecap:butt;stroke-linejoin:miter;stroke-miterlimit:10;stroke-dasharray:none;stroke-opacity:1"
                 d="m 112.61093,14.25653 v 0 C 103.5464,12.15266 93.79863,13.55237 87.23126,7.16466 v 0 C 81.20078,0.8617 79.28607,-8.77263 77.49489,-17.1656 v 0 c -1.88315,-11.67592 10.92407,-12.5142 12.3719,-22.31809 v 0 c 1.23151,-6.56076 -1.39177,-13.47011 -7.69203,-14.92343 v 0 c -9.19246,-1.47322 -10.14278,7.78136 -10.95647,14.07047 v 0 c -0.7734,9.45959 -9.48147,9.54955 -9.75477,1.11334 v 0 c -0.41339,-8.85492 2.70474,-17.07229 9.61287,-23.73163 v 0 c 5.01709,-5.03821 11.64841,-7.21213 15.98403,-1.29846 v 0 c 5.17215,9.1819 13.13746,17.93301 13.03147,29.07086 v 0 c 1.02916,11.16814 0.64116,24.41331 9.86337,32.48967 v 0 c 1.19295,0.67734 3.07787,2.25957 3.69185,2.91787" /></g></g><g
             id="g1131" /><g
             id="g1133" /><g
             id="g1135"><g
               id="g1137"><path
                 id="path1139"
                 style="fill:#ffffff;fill-opacity:1;fill-rule:nonzero;stroke:#000000;stroke-width:0.3985;stroke-linecap:butt;stroke-linejoin:miter;stroke-miterlimit:10;stroke-dasharray:none;stroke-opacity:1"
                 d="m -111.64375,0 c 0,0.9629 -0.78057,1.74348 -1.74349,1.74348 -0.9629,0 -1.74348,-0.78058 -1.74348,-1.74348 0,-0.9629 0.78058,-1.74348 1.74348,-1.74348 0.96292,0 1.74349,0.78058 1.74349,1.74348 z" /></g><g
               transform="translate(-113.386)"
               id="g1141"><g
                 id="g1143" /><g
                 transform="translate(113.386)"
                 id="g1145" /></g></g><g
             id="g1147"><g
               id="g1149"><path
                 id="path1151"
                 style="fill:#ffffff;fill-opacity:1;fill-rule:nonzero;stroke:#000000;stroke-width:0.3985;stroke-linecap:butt;stroke-linejoin:miter;stroke-miterlimit:10;stroke-dasharray:none;stroke-opacity:1"
                 d="m 115.13072,0 c 0,0.9629 -0.78058,1.74348 -1.74348,1.74348 -0.96292,0 -1.74349,-0.78058 -1.74349,-1.74348 0,-0.9629 0.78057,-1.74348 1.74349,-1.74348 0.9629,0 1.74348,0.78058 1.74348,1.74348 z" /></g><g
               transform="translate(113.386)"
               id="g1153"><g
                 id="g1155" /><g
                 transform="translate(-113.386)"
                 id="g1157" /></g></g><g
             id="g1159"><g
               id="g1161"><path
                 id="path1163"
                 style="fill:#ffffff;fill-opacity:1;fill-rule:nonzero;stroke:#000000;stroke-width:0.3985;stroke-linecap:butt;stroke-linejoin:miter;stroke-miterlimit:10;stroke-dasharray:none;stroke-opacity:1"
                 d="m 1.74348,-113.38724 c 0,0.96292 -0.78058,1.74349 -1.74348,1.74349 -0.9629,0 -1.74348,-0.78057 -1.74348,-1.74349 0,-0.9629 0.78058,-1.74348 1.74348,-1.74348 0.9629,0 1.74348,0.78058 1.74348,1.74348 z" /></g><g
               transform="translate(0,-113.386)"
               id="g1165"><g
                 id="g1167" /><g
                 transform="translate(0,113.386)"
                 id="g1169" /></g></g><g
             id="g1171" /><g
             id="g1173" /><g
             id="g1175" /><g
             id="g1177" /><g
             id="g1179" /><g
             id="g1181"><g
               id="g1183"><path
                 id="path1185"
                 style="fill:#ffffff;fill-opacity:1;fill-rule:nonzero;stroke:#000000;stroke-width:0.3985;stroke-linecap:butt;stroke-linejoin:miter;stroke-miterlimit:10;stroke-dasharray:none;stroke-opacity:1"
                 d="m 1.74348,113.38724 c 0,0.9629 -0.78058,1.74348 -1.74348,1.74348 -0.9629,0 -1.74348,-0.78058 -1.74348,-1.74348 0,-0.96292 0.78058,-1.74349 1.74348,-1.74349 0.9629,0 1.74348,0.78057 1.74348,1.74349 z" /></g><g
               transform="translate(0,113.385)"
               id="g1187"><g
                 id="g1189" /><g
                 transform="translate(0,-113.385)"
                 id="g1191" /></g></g><g
             id="g1193"><g
               id="g1195"><path
                 id="path1197"
                 style="fill:#ffffff;fill-opacity:1;fill-rule:nonzero;stroke:#000000;stroke-width:0.3985;stroke-linecap:butt;stroke-linejoin:miter;stroke-miterlimit:10;stroke-dasharray:none;stroke-opacity:1"
                 d="m 114.25871,14.0142 c 0,0.96291 -0.78058,1.74349 -1.74348,1.74349 -0.96291,0 -1.74349,-0.78058 -1.74349,-1.74349 0,-0.9629 0.78058,-1.74348 1.74349,-1.74348 0.9629,0 1.74348,0.78058 1.74348,1.74348 z" /></g><g
               transform="translate(112.514,14.014)"
               id="g1199"><g
                 id="g1201" /><g
                 transform="translate(-112.514,-14.014)"
                 id="g1203" /></g></g><g
             id="g1205"><g
               id="g1207"><path
                 id="path1209"
                 style="fill:#ffffff;fill-opacity:1;fill-rule:nonzero;stroke:#000000;stroke-width:0.3985;stroke-linecap:butt;stroke-linejoin:miter;stroke-miterlimit:10;stroke-dasharray:none;stroke-opacity:1"
                 d="m 111.76382,27.42982 c 0,0.96291 -0.78057,1.74349 -1.74348,1.74349 -0.96291,0 -1.74348,-0.78058 -1.74348,-1.74349 0,-0.96292 0.78057,-1.74348 1.74348,-1.74348 0.96291,0 1.74348,0.78056 1.74348,1.74348 z" /></g><g
               transform="translate(110.019,27.429)"
               id="g1211"><g
                 id="g1213" /><g
                 transform="translate(-110.019,-27.429)"
                 id="g1215" /></g></g><g
             id="g1217"><g
               id="g1219"><path
                 id="path1221"
                 style="fill:#ffffff;fill-opacity:1;fill-rule:nonzero;stroke:#000000;stroke-width:0.3985;stroke-linecap:butt;stroke-linejoin:miter;stroke-miterlimit:10;stroke-dasharray:none;stroke-opacity:1"
                 d="m 105.72214,45.21059 c 0,0.96291 -0.78058,1.74348 -1.74349,1.74348 -0.9629,0 -1.74348,-0.78057 -1.74348,-1.74348 0,-0.96291 0.78058,-1.74349 1.74348,-1.74349 0.96291,0 1.74349,0.78058 1.74349,1.74349 z" /></g><g
               transform="translate(103.977,45.21)"
               id="g1223"><g
                 id="g1225" /><g
                 transform="translate(-103.977,-45.21)"
                 id="g1227" /></g></g><g
             id="g1229"><g
               id="g1231"><path
                 id="path1233"
                 style="fill:#ffffff;fill-opacity:1;fill-rule:nonzero;stroke:#000000;stroke-width:0.3985;stroke-linecap:butt;stroke-linejoin:miter;stroke-miterlimit:10;stroke-dasharray:none;stroke-opacity:1"
                 d="m 101.47981,53.9271 c 0,0.9629 -0.78058,1.74348 -1.74348,1.74348 -0.96291,0 -1.74349,-0.78058 -1.74349,-1.74348 0,-0.96291 0.78058,-1.74349 1.74349,-1.74349 0.9629,0 1.74348,0.78058 1.74348,1.74349 z" /></g><g
               transform="translate(99.735,53.926)"
               id="g1235"><g
                 id="g1237" /><g
                 transform="translate(-99.735,-53.926)"
                 id="g1239" /></g></g><g
             id="g1241"><g
               id="g1243"><path
                 id="path1245"
                 style="fill:#ffffff;fill-opacity:1;fill-rule:nonzero;stroke:#000000;stroke-width:0.3985;stroke-linecap:butt;stroke-linejoin:miter;stroke-miterlimit:10;stroke-dasharray:none;stroke-opacity:1"
                 d="m 61.40602,96.41443 c 0,0.96292 -0.78056,1.74348 -1.74348,1.74348 -0.96291,0 -1.74349,-0.78056 -1.74349,-1.74348 0,-0.96291 0.78058,-1.74349 1.74349,-1.74349 0.96292,0 1.74348,0.78058 1.74348,1.74349 z" /></g><g
               transform="translate(59.662,96.413)"
               id="g1247"><g
                 id="g1249" /><g
                 transform="translate(-59.662,-96.413)"
                 id="g1251" /></g></g><g
             id="g1253"><g
               id="g1255"><path
                 id="path1257"
                 style="fill:#ffffff;fill-opacity:1;fill-rule:nonzero;stroke:#000000;stroke-width:0.3985;stroke-linecap:butt;stroke-linejoin:miter;stroke-miterlimit:10;stroke-dasharray:none;stroke-opacity:1"
                 d="m 51.80196,101.73293 c 0,0.9629 -0.78058,1.74348 -1.74349,1.74348 -0.96292,0 -1.74348,-0.78058 -1.74348,-1.74348 0,-0.96291 0.78056,-1.74349 1.74348,-1.74349 0.96291,0 1.74349,0.78058 1.74349,1.74349 z" /></g><g
               transform="translate(50.058,101.731)"
               id="g1259"><g
                 id="g1261" /><g
                 transform="translate(-50.058,-101.731)"
                 id="g1263" /></g></g><g
             id="g1265"><g
               id="g1267"><path
                 id="path1269"
                 style="fill:#ffffff;fill-opacity:1;fill-rule:nonzero;stroke:#000000;stroke-width:0.3985;stroke-linecap:butt;stroke-linejoin:miter;stroke-miterlimit:10;stroke-dasharray:none;stroke-opacity:1"
                 d="m -89.34035,67.5209 c 0,0.96291 -0.78058,1.74349 -1.74348,1.74349 -0.96291,0 -1.74349,-0.78058 -1.74349,-1.74349 0,-0.9629 0.78058,-1.74348 1.74349,-1.74348 0.9629,0 1.74348,0.78058 1.74348,1.74348 z" /></g><g
               transform="translate(-91.083,67.52)"
               id="g1271"><g
                 id="g1273" /><g
                 transform="translate(91.083,-67.52)"
                 id="g1275" /></g></g><g
             id="g1277"><g
               id="g1279"><path
                 id="path1281"
                 style="fill:#ffffff;fill-opacity:1;fill-rule:nonzero;stroke:#000000;stroke-width:0.3985;stroke-linecap:butt;stroke-linejoin:miter;stroke-miterlimit:10;stroke-dasharray:none;stroke-opacity:1"
                 d="m -108.59866,26.08203 c 0,0.96291 -0.78058,1.74349 -1.74349,1.74349 -0.96292,0 -1.74348,-0.78058 -1.74348,-1.74349 0,-0.9629 0.78056,-1.74348 1.74348,-1.74348 0.96291,0 1.74349,0.78058 1.74349,1.74348 z" /></g><g
               transform="translate(-110.341,26.081)"
               id="g1283"><g
                 id="g1285" /><g
                 transform="translate(110.341,-26.081)"
                 id="g1287" /></g></g></g></g></g></g></svg>