<?xml version="1.0" encoding="UTF-8" standalone="no"?>
<svg
   xmlns:dc="http://purl.org/dc/elements/1.1/"
   xmlns:cc="http://creativecommons.org/ns#"
   xmlns:rdf="http://www.w3.org/1999/02/22-rdf-syntax-ns#"
   xmlns:svg="http://www.w3.org/2000/svg"
   xmlns="http://www.w3.org/2000/svg"
   version="1.1"
   id="svg834"
   xml:space="preserve"
   width="382.5206"
   height="307.54657"
   viewBox="0 0 382.5206 307.54657"><metadata
     id="metadata840"><rdf:RDF><cc:Work
         rdf:about=""><dc:format>image/svg+xml</dc:format><dc:type
           rdf:resource="http://purl.org/dc/dcmitype/StillImage" /><dc:title></dc:title></cc:Work></rdf:RDF></metadata><defs
     id="defs838"><pattern
       patternTransform="translate(-167.508,-115.329)"
       patternUnits="userSpaceOnUse"
       x="0"
       y="0"
       width="4.98138"
       height="4.98138"
       id="pattern860"><g
         id="g858"><path
           d="M 0,2.98883 3.08846,-0.09962"
           style="fill:none;stroke:#808080;stroke-opacity:1;stroke-width:0.3985;stroke-linecap:butt;stroke-linejoin:miter;stroke-miterlimit:10;stroke-dasharray:none"
           id="path856" /></g></pattern></defs><g
     id="g842"
     transform="matrix(1.3333333,0,0,-1.3333333,-24.123109,307.54529)"><g
       id="g844"
       transform="translate(167.508,115.329)"><g
         id="g846"><g
           id="g848"><g
             id="g850"><path
               d="M 113.38724,0 C 113.38724,62.62283 62.62283,113.38724 0,113.38724 -62.62283,113.38724 -113.38724,62.62283 -113.38724,0 c 0,-62.62283 50.76441,-113.38724 113.38724,-113.38724 62.62283,0 113.38724,50.76441 113.38724,113.38724 z"
               style="fill:none;stroke:#000000;stroke-width:0.3985;stroke-linecap:butt;stroke-linejoin:miter;stroke-miterlimit:10;stroke-dasharray:none;stroke-opacity:1"
               id="path852" /></g><g
             id="g854"><path
               d="M 113.38724,0 C 113.38724,62.62283 62.62283,113.38724 0,113.38724 -62.62283,113.38724 -113.38724,62.62283 -113.38724,0 c 0,-62.62283 50.76441,-113.38724 113.38724,-113.38724 62.62283,0 113.38724,50.76441 113.38724,113.38724 z"
               style="fill:url(#pattern860);fill-opacity:0.175;fill-rule:nonzero;stroke:#000000;stroke-width:0.3985;stroke-linecap:butt;stroke-linejoin:miter;stroke-miterlimit:10;stroke-dasharray:none;stroke-opacity:0.175"
               id="path862" /></g><g
             id="g864" /><g
             id="g866"><g
               id="g868"><path
                 d="m -111.64375,0 c 0,0.9629 -0.78057,1.74348 -1.74349,1.74348 -0.9629,0 -1.74348,-0.78058 -1.74348,-1.74348 0,-0.9629 0.78058,-1.74348 1.74348,-1.74348 0.96292,0 1.74349,0.78058 1.74349,1.74348 z"
                 style="fill:#ffffff;fill-opacity:1;fill-rule:nonzero;stroke:#000000;stroke-width:0.3985;stroke-linecap:butt;stroke-linejoin:miter;stroke-miterlimit:10;stroke-dasharray:none;stroke-opacity:1"
                 id="path870" /></g><g
               id="g872"
               transform="translate(-113.386)"><g
                 id="g874" /><g
                 id="g876"
                 transform="translate(113.386)" /></g></g><g
             id="g878"><g
               id="g880"><path
                 d="m 115.13072,0 c 0,0.9629 -0.78058,1.74348 -1.74348,1.74348 -0.96292,0 -1.74349,-0.78058 -1.74349,-1.74348 0,-0.9629 0.78057,-1.74348 1.74349,-1.74348 0.9629,0 1.74348,0.78058 1.74348,1.74348 z"
                 style="fill:#ffffff;fill-opacity:1;fill-rule:nonzero;stroke:#000000;stroke-width:0.3985;stroke-linecap:butt;stroke-linejoin:miter;stroke-miterlimit:10;stroke-dasharray:none;stroke-opacity:1"
                 id="path882" /></g><g
               id="g884"
               transform="translate(113.386)"><g
                 id="g886" /><g
                 id="g888"
                 transform="translate(-113.386)" /></g></g><g
             id="g890"><g
               id="g892"><path
                 d="m 1.74348,-113.38724 c 0,0.96292 -0.78058,1.74349 -1.74348,1.74349 -0.9629,0 -1.74348,-0.78057 -1.74348,-1.74349 0,-0.9629 0.78058,-1.74348 1.74348,-1.74348 0.9629,0 1.74348,0.78058 1.74348,1.74348 z"
                 style="fill:#ffffff;fill-opacity:1;fill-rule:nonzero;stroke:#000000;stroke-width:0.3985;stroke-linecap:butt;stroke-linejoin:miter;stroke-miterlimit:10;stroke-dasharray:none;stroke-opacity:1"
                 id="path894" /></g><g
               id="g896"
               transform="translate(0,-113.386)"><g
                 id="g898" /><g
                 id="g900"
                 transform="translate(0,113.386)" /></g></g><g
             id="g902"><g
               id="g904"><path
                 d="m 1.16048,-50.50996 v 0 c 0.95122,-3.33054 2.73626,-5.59011 4.17973,-8.83156 v 0 c 2.26067,-4.77175 4.12453,-9.91291 3.86703,-15.14574 v 0 C 9.3465,-78.60501 6.90103,-82.0091 4.39339,-85.14587 v 0 C 1.41011,-89.04735 0.51846,-96.48355 0.08092,-111.64465"
                 style="fill:none;stroke:#8080ff;stroke-width:0.20505001;stroke-linecap:butt;stroke-linejoin:miter;stroke-miterlimit:10;stroke-dasharray:none;stroke-opacity:1"
                 id="path906" /></g><g
               id="g908"><path
                 d="m 1.16048,-50.50996 v 0 c -1.07207,5.10308 -10.28464,16.28941 -13.00515,24.9116 v 0 c -1.3699,4.50531 -2.33862,10.90688 2.44897,13.76077 v 0 c 4.17097,1.43775 8.47946,-1.35733 11.51965,-4.01049 v 0 c 5.55311,-4.80809 9.75213,-12.15259 17.60006,-13.52028 v 0 c 5.51897,-1.13152 13.01041,0.17041 15.01796,6.14638 v 0 c 2.03731,5.33145 -4.97853,6.59704 -7.03599,10.20877 v 0 c -1.09047,4.72674 5.41473,5.4015 7.80328,8.25798 v 0 c 3.78647,3.3686 2.41481,8.68451 1.7798,13.01159 v 0 c -0.83824,4.60654 -4.72366,9.72521 -9.99126,8.78398 v 0 C 17.66481,15.60088 13.48506,5.2191 4.80591,1.90498 v 0 C 0.96602,0.1878 -4.73683,1.04857 -6.55342,5.1741 v 0 c -1.86828,5.50188 5.64069,5.30638 7.43185,9.80306 v 0 c 2.62329,4.96814 -1.09309,10.46827 -5.70636,12.64395 v 0 c -4.44252,1.73706 -8.70457,6.02092 -7.38812,11.11362 v 0 c 1.41893,6.17144 7.92765,8.67671 12.4227,12.31262 v 0 c 2.91055,2.67482 -0.83734,7.96304 0.88112,10.1759 v 0 c 2.38328,2.19988 9.40704,-2.24575 12.5576,-2.42306 v 0 c 3.43698,-0.36249 6.01471,1.62371 8.13873,-1.27773 v 0 c 3.10767,-3.30461 6.6042,-6.94832 11.42859,-7.41112 v 0 c 3.14705,-0.1661 5.76421,-0.47406 9.57518,-0.01126 v 0 c 5.54175,0.91182 8.36824,3.48712 12.56984,6.9336 v 0 c 3.23818,2.90664 5.554,8.32637 5.97619,11.49687 v 0 c 1.61953,7.77096 -1.68607,19.24275 -1.85516,27.14435"
                 style="fill:none;stroke:#8080ff;stroke-width:0.20505001;stroke-linecap:butt;stroke-linejoin:miter;stroke-miterlimit:10;stroke-dasharray:none;stroke-opacity:1"
                 id="path910" /></g><g
               id="g912"><path
                 d="m 59.47874,95.6749 v 0 c -0.03762,4.36865 2.06537,6.82458 -0.28465,8.14038 v 0 c -3.26878,1.65832 -6.77673,0.83996 -9.56203,-2.41271"
                 style="fill:none;stroke:#8080ff;stroke-width:0.25487;stroke-linecap:butt;stroke-linejoin:miter;stroke-miterlimit:10;stroke-dasharray:2.98883, 2.98883;stroke-dashoffset:0;stroke-opacity:1"
                 id="path914" /></g><g
               id="g916"><path
                 d="m 49.63206,101.40257 v 0 C 45.65201,96.6732 61.08777,75.97972 55.92004,68.27794 v 0 c -1.72549,-2.5044 -2.07499,-3.16617 -4.80774,-5.30811 v 0 C 48.24991,60.7267 42.97794,57.89789 38.39267,58.28113 v 0 C 35.5592,58.61852 22.82903,62.71378 14.27864,69.1482 v 0 C 5.72908,75.5835 1.35931,86.416 0.8539,88.25687 v 0 c -1.35407,3.66101 -0.72696,7.58843 -0.99237,11.38786 v 0 c -0.04988,1.48706 0.63063,2.31323 0.16598,13.74251"
                 style="fill:none;stroke:#8080ff;stroke-width:0.20505001;stroke-linecap:butt;stroke-linejoin:miter;stroke-miterlimit:10;stroke-dasharray:none;stroke-opacity:1"
                 id="path918" /></g><g
               id="g920"><path
                 d="m -56.38966,0.225 v 0 c 3.51056,1.2656 8.66604,2.44732 11.09224,-1.2673 v 0 c 3.53596,-7.09106 -0.23999,-14.88623 2.02943,-22.5707 v 0 c 0.67004,-3.93264 6.93789,-3.91103 9.86424,-4.15757 v 0 c 4.30147,0.0026 3.99669,-3.88678 2.66795,-6.6429 v 0 c -1.63879,-4.72162 1.94097,-8.04263 4.62642,-11.02107 v 0 c 2.79146,-2.46376 7.84972,-4.88251 11.80785,-3.65237 v 0 c 3.34061,1.26129 2.91759,5.24842 1.83235,8.01321 v 0 c -0.83648,3.55374 -4.25769,6.21469 -5.81587,9.60495 v 0 c -1.94186,3.09955 -2.70564,6.71902 -2.71612,10.31946 v 0 c -0.43885,3.05633 -2.99119,6.48288 -0.68058,9.35322 v 0 c 2.37627,2.13759 6.5595,2.1428 7.82253,5.6083 v 0 c 1.5249,4.64891 -4.2025,6.56675 -7.89435,6.35395 v 0 c -3.64984,0.1834 -7.59833,-0.34517 -9.40091,-3.9577 v 0 c -2.82385,-2.64799 -5.22028,2.10907 -6.64622,4.08832 v 0 c -1.81484,2.75873 -2.84226,7.24069 0.42306,9.40166 v 0 c 3.77069,2.91616 9.06104,2.45248 13.74004,0.1782 v 0 c 4.15869,-1.91526 6.76709,-5.86003 9.92115,-8.96565 v 0 c 2.70388,-3.41185 6.59719,-5.67314 10.60961,-7.28218 v 0 C 3.05678,-8.32626 7.28465,-6.49835 12.24832,-8.02779 v 0 c 3.99758,-1.00264 8.01965,-6.44308 12.30712,-5.47075"
                 style="fill:none;stroke:#ff8080;stroke-width:0.20505001;stroke-linecap:butt;stroke-linejoin:miter;stroke-miterlimit:10;stroke-dasharray:none;stroke-opacity:1"
                 id="path922" /></g><g
               id="g924"><path
                 d="m 30.52896,-12.06857 v 0 c 2.56986,1.06752 6.31691,3.43002 9.14516,4.20514 v 0 c 2.2361,0.31575 5.01355,-0.69205 6.88359,0.5839 v 0 c 2.25189,1.61078 4.1105,3.6688 6.25294,5.41021 v 0 c 1.11499,1.12893 2.56372,2.24313 4.2603,2.05973 l -0.0543,0.01815 -0.04906,0.01558"
                 style="fill:none;stroke:#ff8080;stroke-width:0.20505001;stroke-linecap:butt;stroke-linejoin:miter;stroke-miterlimit:10;stroke-dasharray:none;stroke-opacity:1"
                 id="path926" /></g><g
               id="g928"><path
                 d="m -56.38966,0.225 v 0 c -10.05692,-2.70593 -5.63894,-10.53054 -2.62152,-18.52818 v 0 c 3.41948,-7.17666 -0.40029,-16.70895 -9.40441,-17.22107 v 0 c -12.7126,-1.12458 -2.25099,12.47353 -5.40158,20.64852 v 0 c -3.43787,8.85405 -9.35271,21.13377 -3.3818,27.27929 v 0 c 6.91163,7.13688 14.44599,5.19738 18.91915,12.34377 v 0 c 3.03058,5.64461 4.61507,17.27297 -5.08627,13.62495 v 0 c -10.76289,-2.66878 -18.07919,5.03301 -21.54068,10.60234 v 0 c -2.19058,3.9361 -5.06087,13.01162 -6.09708,17.91834"
                 style="fill:none;stroke:#ff8080;stroke-width:0.20505001;stroke-linecap:butt;stroke-linejoin:miter;stroke-miterlimit:10;stroke-dasharray:none;stroke-opacity:1"
                 id="path930" /></g><g
               id="g932"><path
                 d="m -91.00385,66.89296 v 0 c -1.03615,4.90585 -2.79492,14.80662 -4.46701,18.89757 v 0 c -3.47198,7.38342 -12.43319,12.00209 -21.35583,12.92685 v 0 c -8.89903,1.013 -18.11862,0.37458 -24.68515,-7.62564 v 0 c -6.2731,-6.97167 -9.26601,-20.88034 -7.04649,-28.11759 v 0 c 2.49189,-6.41711 9.72233,-13.96924 19.29927,-18.28165 v 0 c 9.46486,-3.52345 15.00572,-11.7581 19.55771,-19.31715"
                 style="fill:none;stroke:#ff8080;stroke-width:0.25487;stroke-linecap:butt;stroke-linejoin:miter;stroke-miterlimit:10;stroke-dasharray:2.98883, 2.98883;stroke-dashoffset:0;stroke-opacity:1"
                 id="path934" /></g><g
               id="g936"><path
                 d="m -109.70135,25.37535 v 0 c 2.96485,-5.11604 8.35504,-13.82216 7.62283,-33.16353 v 0 c -0.73137,-19.3405 -8.36122,-4.565 -9.16179,-2.44642 v 0 c -1.09222,3.55374 -0.75763,3.45942 -1.82799,10.4596"
                 style="fill:none;stroke:#ff8080;stroke-width:0.20505001;stroke-linecap:butt;stroke-linejoin:miter;stroke-miterlimit:10;stroke-dasharray:none;stroke-opacity:1"
                 id="path938" /></g><g
               id="g940"><path
                 d="m 57.07095,0.19041 v 0 c 5.57679,0.65657 11.77718,-0.63581 11.41281,7.05123 v 0 c 0.2689,6.93271 -1.44958,14.56787 3.33451,20.46077 v 0 c 6.23544,9.47259 19.41488,17.30499 27.043,25.57425"
                 style="fill:none;stroke:#ff8080;stroke-width:0.20505001;stroke-linecap:butt;stroke-linejoin:miter;stroke-miterlimit:10;stroke-dasharray:none;stroke-opacity:1"
                 id="path942" /></g><g
               id="g944"><path
                 d="m 98.86127,53.27666 v 0 c 5.93239,6.08235 11.22274,6.54342 19.49899,8.20524 v 0 c 4.57739,1.01041 9.27742,1.19123 13.92224,0.58394 v 0 c 9.52524,-3.90843 4.16922,-13.24864 -4.16574,-12.52977 v 0 c -10.81544,-0.09082 -16.06114,-0.88066 -24.08601,-4.35306"
                 style="fill:none;stroke:#ff8080;stroke-width:0.25487;stroke-linecap:butt;stroke-linejoin:miter;stroke-miterlimit:10;stroke-dasharray:2.98883, 2.98883;stroke-dashoffset:0;stroke-opacity:1"
                 id="path946" /></g><g
               id="g948"><path
                 d="m 104.03075,45.18301 v 0 C 96.23622,42.02808 93.91516,26.16777 102.5111,25.07779 v 0 c 0.83822,-0.10642 1.78066,-0.07182 2.83262,0.12888 v 0 c 1.76489,0.22578 2.13978,0.66697 4.19374,1.76734"
                 style="fill:none;stroke:#ff8080;stroke-width:0.20505001;stroke-linecap:butt;stroke-linejoin:miter;stroke-miterlimit:10;stroke-dasharray:none;stroke-opacity:1"
                 id="path950" /></g><g
               id="g952"><path
                 d="m 109.53746,26.97401 v 0 c 2.05309,1.10039 5.85178,3.68697 7.91362,4.62905 v 0 c 2.06184,0.94291 4.07462,1.57269 5.93065,1.4239 v 0 c 1.85689,-0.14966 3.55696,-1.07702 4.99429,-3.25009 v 0 c 4.693,-10.47174 -7.24183,-14.47012 -15.76509,-15.52034"
                 style="fill:none;stroke:#ff8080;stroke-width:0.25487;stroke-linecap:butt;stroke-linejoin:miter;stroke-miterlimit:10;stroke-dasharray:2.98883, 2.98883;stroke-dashoffset:0;stroke-opacity:1"
                 id="path954" /></g><g
               id="g956"><path
                 d="m 112.61093,14.25653 v 0 C 103.5464,12.15266 93.79863,13.55237 87.23126,7.16466 v 0 C 81.20078,0.8617 79.28607,-8.77263 77.49489,-17.1656 v 0 c -1.88315,-11.67592 10.92407,-12.5142 12.3719,-22.31809 v 0 c 1.23151,-6.56076 -1.39177,-13.47011 -7.69203,-14.92343 v 0 c -9.19246,-1.47322 -10.14278,7.78136 -10.95647,14.07047 v 0 c -0.7734,9.45959 -9.48147,9.54955 -9.75477,1.11334 v 0 c -0.41339,-8.85492 2.70474,-17.07229 9.61287,-23.73163 v 0 c 5.01709,-5.03821 11.64841,-7.21213 15.98403,-1.29846 v 0 c 5.17215,9.1819 13.13746,17.93301 13.03147,29.07086 v 0 c 1.02916,11.16814 0.64116,24.41331 9.86337,32.48967 v 0 c 1.19295,0.67734 3.07787,2.25957 3.69185,2.91787"
                 style="fill:none;stroke:#ff8080;stroke-width:0.20505001;stroke-linecap:butt;stroke-linejoin:miter;stroke-miterlimit:10;stroke-dasharray:none;stroke-opacity:1"
                 id="path958" /></g></g><g
             id="g960" /><g
             id="g962" /><g
             id="g964"><g
               id="g966"><path
                 d="m -111.64375,0 c 0,0.9629 -0.78057,1.74348 -1.74349,1.74348 -0.9629,0 -1.74348,-0.78058 -1.74348,-1.74348 0,-0.9629 0.78058,-1.74348 1.74348,-1.74348 0.96292,0 1.74349,0.78058 1.74349,1.74348 z"
                 style="fill:#ffffff;fill-opacity:1;fill-rule:nonzero;stroke:#000000;stroke-width:0.3985;stroke-linecap:butt;stroke-linejoin:miter;stroke-miterlimit:10;stroke-dasharray:none;stroke-opacity:1"
                 id="path968" /></g><g
               id="g970"
               transform="translate(-113.386)"><g
                 id="g972" /><g
                 id="g974"
                 transform="translate(113.386)" /></g></g><g
             id="g976"><g
               id="g978"><path
                 d="m 115.13072,0 c 0,0.9629 -0.78058,1.74348 -1.74348,1.74348 -0.96292,0 -1.74349,-0.78058 -1.74349,-1.74348 0,-0.9629 0.78057,-1.74348 1.74349,-1.74348 0.9629,0 1.74348,0.78058 1.74348,1.74348 z"
                 style="fill:#ffffff;fill-opacity:1;fill-rule:nonzero;stroke:#000000;stroke-width:0.3985;stroke-linecap:butt;stroke-linejoin:miter;stroke-miterlimit:10;stroke-dasharray:none;stroke-opacity:1"
                 id="path980" /></g><g
               id="g982"
               transform="translate(113.386)"><g
                 id="g984" /><g
                 id="g986"
                 transform="translate(-113.386)" /></g></g><g
             id="g988"><g
               id="g990"><path
                 d="m 1.74348,-113.38724 c 0,0.96292 -0.78058,1.74349 -1.74348,1.74349 -0.9629,0 -1.74348,-0.78057 -1.74348,-1.74349 0,-0.9629 0.78058,-1.74348 1.74348,-1.74348 0.9629,0 1.74348,0.78058 1.74348,1.74348 z"
                 style="fill:#000000;fill-opacity:1;fill-rule:nonzero;stroke:#000000;stroke-width:0.3985;stroke-linecap:butt;stroke-linejoin:miter;stroke-miterlimit:10;stroke-dasharray:none;stroke-opacity:1"
                 id="path992" /></g><g
               id="g994"
               transform="translate(0,-113.386)"><g
                 id="g996" /><g
                 id="g998"
                 transform="translate(0,113.386)" /></g></g><g
             id="g1000" /><g
             id="g1002" /><g
             id="g1004" /><g
             id="g1006" /><g
             id="g1008" /><g
             id="g1010"><g
               id="g1012"><path
                 d="m 1.74348,113.38724 c 0,0.9629 -0.78058,1.74348 -1.74348,1.74348 -0.9629,0 -1.74348,-0.78058 -1.74348,-1.74348 0,-0.96292 0.78058,-1.74349 1.74348,-1.74349 0.9629,0 1.74348,0.78057 1.74348,1.74349 z"
                 style="fill:#ffffff;fill-opacity:1;fill-rule:nonzero;stroke:#000000;stroke-width:0.3985;stroke-linecap:butt;stroke-linejoin:miter;stroke-miterlimit:10;stroke-dasharray:none;stroke-opacity:1"
                 id="path1014" /></g><g
               id="g1016"
               transform="translate(0,113.385)"><g
                 id="g1018" /><g
                 id="g1020"
                 transform="translate(0,-113.385)" /></g></g><g
             id="g1022"><g
               id="g1024"><path
                 d="m 114.25871,14.0142 c 0,0.96291 -0.78058,1.74349 -1.74348,1.74349 -0.96291,0 -1.74349,-0.78058 -1.74349,-1.74349 0,-0.9629 0.78058,-1.74348 1.74349,-1.74348 0.9629,0 1.74348,0.78058 1.74348,1.74348 z"
                 style="fill:#ffffff;fill-opacity:1;fill-rule:nonzero;stroke:#000000;stroke-width:0.3985;stroke-linecap:butt;stroke-linejoin:miter;stroke-miterlimit:10;stroke-dasharray:none;stroke-opacity:1"
                 id="path1026" /></g><g
               id="g1028"
               transform="translate(112.514,14.014)"><g
                 id="g1030" /><g
                 id="g1032"
                 transform="translate(-112.514,-14.014)" /></g></g><g
             id="g1034"><g
               id="g1036"><path
                 d="m 111.76382,27.42982 c 0,0.96291 -0.78057,1.74349 -1.74348,1.74349 -0.96291,0 -1.74348,-0.78058 -1.74348,-1.74349 0,-0.96292 0.78057,-1.74348 1.74348,-1.74348 0.96291,0 1.74348,0.78056 1.74348,1.74348 z"
                 style="fill:#ffffff;fill-opacity:1;fill-rule:nonzero;stroke:#000000;stroke-width:0.3985;stroke-linecap:butt;stroke-linejoin:miter;stroke-miterlimit:10;stroke-dasharray:none;stroke-opacity:1"
                 id="path1038" /></g><g
               id="g1040"
               transform="translate(110.019,27.429)"><g
                 id="g1042" /><g
                 id="g1044"
                 transform="translate(-110.019,-27.429)" /></g></g><g
             id="g1046"><g
               id="g1048"><path
                 d="m 105.72214,45.21059 c 0,0.96291 -0.78058,1.74348 -1.74349,1.74348 -0.9629,0 -1.74348,-0.78057 -1.74348,-1.74348 0,-0.96291 0.78058,-1.74349 1.74348,-1.74349 0.96291,0 1.74349,0.78058 1.74349,1.74349 z"
                 style="fill:#ffffff;fill-opacity:1;fill-rule:nonzero;stroke:#000000;stroke-width:0.3985;stroke-linecap:butt;stroke-linejoin:miter;stroke-miterlimit:10;stroke-dasharray:none;stroke-opacity:1"
                 id="path1050" /></g><g
               id="g1052"
               transform="translate(103.977,45.21)"><g
                 id="g1054" /><g
                 id="g1056"
                 transform="translate(-103.977,-45.21)" /></g></g><g
             id="g1058"><g
               id="g1060"><path
                 d="m 101.47981,53.9271 c 0,0.9629 -0.78058,1.74348 -1.74348,1.74348 -0.96291,0 -1.74349,-0.78058 -1.74349,-1.74348 0,-0.96291 0.78058,-1.74349 1.74349,-1.74349 0.9629,0 1.74348,0.78058 1.74348,1.74349 z"
                 style="fill:#000000;fill-opacity:1;fill-rule:nonzero;stroke:#000000;stroke-width:0.3985;stroke-linecap:butt;stroke-linejoin:miter;stroke-miterlimit:10;stroke-dasharray:none;stroke-opacity:1"
                 id="path1062" /></g><g
               id="g1064"
               transform="translate(99.735,53.926)"><g
                 id="g1066" /><g
                 id="g1068"
                 transform="translate(-99.735,-53.926)" /></g></g><g
             id="g1070"><g
               id="g1072"
               transform="translate(30.999,28.971)"><g
                 id="g1074"><g
                   id="g1076"
                   transform="translate(-198.507,-144.3)"><g
                     id="g1086"
                     transform="translate(198.507,144.3)" /></g></g><g
                 id="g1088"
                 transform="translate(-30.999,-28.971)" /></g></g><g
             id="g1090"><g
               id="g1092"><path
                 d="m 61.40602,96.41443 c 0,0.96292 -0.78056,1.74348 -1.74348,1.74348 -0.96291,0 -1.74349,-0.78056 -1.74349,-1.74348 0,-0.96291 0.78058,-1.74349 1.74349,-1.74349 0.96292,0 1.74348,0.78058 1.74348,1.74349 z"
                 style="fill:#000000;fill-opacity:1;fill-rule:nonzero;stroke:#000000;stroke-width:0.3985;stroke-linecap:butt;stroke-linejoin:miter;stroke-miterlimit:10;stroke-dasharray:none;stroke-opacity:1"
                 id="path1094" /></g><g
               id="g1096"
               transform="translate(59.662,96.413)"><g
                 id="g1098" /><g
                 id="g1100"
                 transform="translate(-59.662,-96.413)" /></g></g><g
             id="g1102"><g
               id="g1104"><path
                 d="m 51.80196,101.73293 c 0,0.9629 -0.78058,1.74348 -1.74349,1.74348 -0.96292,0 -1.74348,-0.78058 -1.74348,-1.74348 0,-0.96291 0.78056,-1.74349 1.74348,-1.74349 0.96291,0 1.74349,0.78058 1.74349,1.74349 z"
                 style="fill:#ffffff;fill-opacity:1;fill-rule:nonzero;stroke:#000000;stroke-width:0.3985;stroke-linecap:butt;stroke-linejoin:miter;stroke-miterlimit:10;stroke-dasharray:none;stroke-opacity:1"
                 id="path1106" /></g><g
               id="g1108"
               transform="translate(50.058,101.731)"><g
                 id="g1110" /><g
                 id="g1112"
                 transform="translate(-50.058,-101.731)" /></g></g><g
             id="g1114"><g
               id="g1116"
               transform="translate(-42.102,55.091)"><g
                 id="g1118"><g
                   id="g1120"
                   transform="translate(-125.406,-170.42)"><g
                     id="g1130"
                     transform="translate(125.406,170.42)" /></g></g><g
                 id="g1132"
                 transform="translate(42.102,-55.091)" /></g></g><g
             id="g1134"><g
               id="g1136"><path
                 d="m -89.34035,67.5209 c 0,0.96291 -0.78058,1.74349 -1.74348,1.74349 -0.96291,0 -1.74349,-0.78058 -1.74349,-1.74349 0,-0.9629 0.78058,-1.74348 1.74349,-1.74348 0.9629,0 1.74348,0.78058 1.74348,1.74348 z"
                 style="fill:#000000;fill-opacity:1;fill-rule:nonzero;stroke:#000000;stroke-width:0.3985;stroke-linecap:butt;stroke-linejoin:miter;stroke-miterlimit:10;stroke-dasharray:none;stroke-opacity:1"
                 id="path1138" /></g><g
               id="g1140"
               transform="translate(-91.083,67.52)"><g
                 id="g1142" /><g
                 id="g1144"
                 transform="translate(91.083,-67.52)" /></g></g><g
             id="g1146"><g
               id="g1148"><path
                 d="m -108.59866,26.08203 c 0,0.96291 -0.78058,1.74349 -1.74349,1.74349 -0.96292,0 -1.74348,-0.78058 -1.74348,-1.74349 0,-0.9629 0.78056,-1.74348 1.74348,-1.74348 0.96291,0 1.74349,0.78058 1.74349,1.74348 z"
                 style="fill:#ffffff;fill-opacity:1;fill-rule:nonzero;stroke:#000000;stroke-width:0.3985;stroke-linecap:butt;stroke-linejoin:miter;stroke-miterlimit:10;stroke-dasharray:none;stroke-opacity:1"
                 id="path1150" /></g><g
               id="g1152"
               transform="translate(-110.341,26.081)"><g
                 id="g1154" /><g
                 id="g1156"
                 transform="translate(110.341,-26.081)" /></g></g><g
             id="g1158"><g
               id="g1160"
               transform="translate(-59.104,-64.626)"><g
                 id="g1162"><g
                   id="g1164"
                   transform="translate(-108.404,-50.703)"><g
                     id="g1174"
                     transform="translate(108.404,50.703)" /></g></g><g
                 id="g1176"
                 transform="translate(59.104,64.626)" /></g></g><g
             id="g1178"><g
               id="g1180"
               transform="translate(25.93,-62.743)"><g
                 id="g1182"><g
                   id="g1184"
                   transform="translate(-193.438,-52.586)"><g
                     id="g1194"
                     transform="translate(193.438,52.586)" /></g></g><g
                 id="g1196"
                 transform="translate(-25.93,62.743)" /></g></g></g></g></g><path
       style="fill:none;stroke:#000000;stroke-width:0.75px;stroke-linecap:butt;stroke-linejoin:miter;stroke-opacity:1"
       id="path1941"
       d="m 81.122042,189.01436 c 1.858225,-6.30975 3.092333,-12.91191 6.342193,-18.709 2.017164,-3.59821 4.951248,-6.97962 8.879636,-8.39369 3.324182,-1.19658 6.884559,-0.37392 10.273479,0.0188 2.59634,0.30087 5.51471,0.36031 7.69215,-1.31618 2.04462,-1.57423 3.10968,-4.04679 3.89251,-6.42047 1.52188,-4.61461 1.88363,-9.81039 0.0731,-14.40209 -1.14062,-2.89281 -3.46196,-5.21591 -6.27026,-6.56111 -4.53302,-2.17135 -9.4942,-3.67526 -13.406333,-6.95906 -2.049041,-1.71994 -3.774879,-4.35722 -3.277063,-7.05221 0.178509,-0.96638 0.43627,-1.93714 0.628461,-2.90951 0.179502,-0.90817 1.156878,-1.24089 1.999675,-0.99555 2.40917,0.70132 4.53265,2.10017 6.66063,3.38759 2.17042,1.3131 4.39435,2.60924 6.91761,3.16702 2.68635,0.59383 5.52197,0.36048 8.13908,1.28905 1.55143,0.55046 2.48983,1.97599 3.27479,3.39059 1.7343,3.12541 4.80847,5.40887 8.26066,6.30347 4.81129,1.2468 9.94119,0.2887 14.43875,-1.66303 1.46085,-0.63394 2.73971,-1.61435 4.15937,-2.32153 1.7812,-0.88727 4.06052,-1.56967 5.87523,-0.45195 1.83944,1.13295 2.34043,3.51337 2.17324,5.52929 -0.25233,3.04249 -2.44718,5.34593 -4.60437,7.5711 -1.9698,2.03187 -3.06685,4.76153 -3.71678,7.46996 -0.93921,3.91392 -0.88621,8.36532 1.4148,11.81723 0.86683,1.30039 2.09869,2.28336 3.439,3.09625 2.67675,1.62344 5.69025,3.15361 7.28798,5.94112 0.87451,1.52573 1.42741,3.24567 1.67063,4.98341 0.18045,1.28928 -0.13566,2.56459 -0.43632,3.81204 -0.24491,1.01613 0.38771,2.05741 1.36575,2.3998 2.0426,0.71506 4.27366,0.49436 6.35094,0.10624 1.08535,-0.20279 2.25025,-0.22563 3.2454,-0.70149 2.8676,-1.37121 6.00294,-2.52255 9.22978,-2.21721 2.01138,0.19033 4.05729,-0.13236 5.89279,-1.01651 3.16979,-1.52687 5.17725,-4.59261 8.13662,-6.4178 2.20908,-1.36245 4.84927,-1.70876 7.41645,-1.66362 5.03902,0.0886 9.99827,1.86342 14.00769,4.90115 3.42239,2.59297 6.32189,6.01307 7.86042,10.06606 0.5714,1.50526 0.59621,3.12611 0.48194,4.72195 -0.34567,4.82765 -1.70309,9.49893 -3.16639,14.09152 -1.0601,3.32715 -2.15617,6.88995 -1.29209,10.39914 0.0711,0.28875 0.15365,0.57466 0.2468,0.85706" /><path
       style="fill:none;stroke:#000000;stroke-width:0.75px;stroke-linecap:butt;stroke-linejoin:miter;stroke-opacity:1"
       id="path1948"
       d="m 233.0015,207.75066 c 1.09121,-7.8313 2.48379,-15.74404 1.71451,-23.66992 -0.31296,-3.22443 -0.84955,-6.47465 -2.07462,-9.48318 -1.86373,-4.57696 -5.97337,-7.73531 -10.44476,-9.89013 -3.31076,-1.5955 -6.8445,-2.77138 -10.50514,-3.20512 -2.91323,-0.34518 -5.85454,-0.46942 -8.78533,-0.40914 -3.65546,0.0752 -7.48962,0.62732 -10.56824,2.76328 -1.39869,0.97042 -2.38382,2.37955 -3.3884,3.73837 -1.06747,1.44388 -2.72896,2.66789 -4.58407,2.53919 -0.96679,-0.0671 -1.93402,-0.18939 -2.90633,-0.0523 -2.46589,0.34761 -5.5581,3.04535 -7.35255,1.30828 -1.23236,-1.19295 -1.22375,-3.01715 -1.26766,-4.60956 -0.0425,-1.54144 -0.1451,-3.25596 -1.34321,-4.41677 -0.46862,-0.45403 -1.15793,-0.55144 -1.67065,-0.91201 -2.54808,-1.79194 -5.57488,-3.04117 -7.56265,-5.52057 -0.92946,-1.15934 -1.72836,-2.67471 -1.44913,-4.15297 0.321,-1.69941 1.78051,-2.83061 3.17651,-3.68338 1.93009,-1.17903 3.78352,-2.43137 5.45347,-4.08555 1.41358,-1.40023 2.56575,-3.0782 3.30583,-4.93595 1.42147,-3.56816 1.5827,-7.90795 -0.47309,-11.20845 -0.67199,-1.07886 -1.36138,-2.25649 -1.42049,-3.54273 -0.053,-1.15407 1.2532,-0.32285 1.69494,0.0766 3.36282,3.04089 6.69388,6.1729 10.58009,8.55635 1.90938,1.17104 4.02065,1.93894 6.10995,2.73847 3.33156,1.27491 7.03457,2.03507 10.5715,1.1868 2.18619,-0.52432 4.05978,-1.92093 5.45852,-3.66646 3.10951,-3.88045 4.40125,-8.91773 4.49485,-13.86601 0.0368,-1.94595 0.26056,-3.88859 0.19332,-5.84012 -0.03,-0.8698 0.79189,-1.34448 1.58578,-0.82881 1.87673,1.21903 3.14535,3.12238 4.96905,4.42079 2.52899,1.80055 5.63924,2.39189 8.63916,2.90361 2.12267,0.36208 5.80175,-0.46453 6.24082,1.65467 0.78634,3.7953 0.52935,7.6945 0.6357,11.5431 0.0998,3.61143 0.42488,7.33953 2.06042,10.63353 0.53449,1.07647 1.33421,1.97438 2.14613,2.85237 4.62699,5.00348 9.24375,10.08328 14.60622,14.30432 4.91078,3.8655 8.84148,8.85124 13.99058,12.43107" /><path
       style="fill:none;stroke:#000000;stroke-width:0.75px;stroke-linecap:butt;stroke-linejoin:miter;stroke-opacity:1"
       id="path2009"
       d="m 172.38904,2.1920894 c -0.0461,8.7730296 0.8067,17.7347346 4.15076,25.9198126 1.14906,2.81249 3.87492,4.971473 4.38558,7.96849 1.17117,6.873499 -0.50704,13.875092 -3.17896,20.20686 -1.26307,2.993153 -3.62954,5.546871 -4.34932,8.713352 -1.34256,5.906265 -5.19478,10.729925 -8.27628,15.800832 -1.93431,3.183093 -3.2288,6.707704 -3.98944,10.386822 -0.29628,1.433077 -0.82146,3.003311 -0.26459,4.409243 0.47494,1.199085 1.96908,0.701693 2.80904,0.227411 2.90099,-1.638032 5.29154,-4.005973 7.75105,-6.22055 1.9792,-1.782098 3.78187,-3.796941 6.00035,-5.282928 7.05125,-4.723089 16.52553,-4.98741 24.16788,-1.331179 1.1914,0.569986 2.25557,1.330269 3.12434,2.353032 2.98997,3.519941 4.26225,8.767262 2.3645,13.075736 -0.56013,1.271666 -3.99122,2.669927 -2.66731,3.140317 1.792,0.6367 3.46448,1.74418 5.45725,1.73982 1.3995,-0.003 2.68296,-0.71705 4.11389,-0.54691 2.51341,0.29885 4.53144,2.04926 6.10374,3.96759 1.48427,1.81093 3.01427,3.96451 5.36197,4.5739 2.32221,0.60277 4.68837,0.45688 7.08854,0.52197 2.57367,0.0698 5.18094,1.27917 6.5517,3.53025 1.887,3.09884 2.01982,6.85607 2.18323,10.38197 0.16473,3.55449 -0.17284,7.20862 0.85563,10.66414 1.35166,4.54138 4.69886,8.11348 8.16817,11.1867 4.20053,3.72096 8.74667,7.0688 12.4484,11.351 1.80709,2.09046 3.91149,4.0073 6.46957,5.1254" /><path
       style="fill:none;stroke:#000000;stroke-width:0.75px;stroke-linecap:butt;stroke-linejoin:miter;stroke-opacity:1"
       id="path2016"
       d="m 161.97368,2.4336689 c 0.44617,7.6226191 0.15317,15.3742201 1.96375,22.8349011 0.58903,2.427156 1.05727,5.107357 2.74307,6.973038 2.6599,2.943719 4.57157,6.746744 4.5168,10.793725 -0.0686,5.06958 -2.40514,9.707375 -4.5707,14.154093 -0.84708,1.739374 -1.32967,3.877121 -3.10774,4.941472 -2.19516,1.314017 -4.8897,0.89144 -7.2804,0.515134 -4.04247,-0.636301 -8.31642,-1.63354 -12.30737,-0.19536 -2.32548,0.83801 -4.16369,2.562466 -5.93048,4.22155 -2.62999,2.469656 -5.16623,5.376277 -5.94561,9.000724 -0.47743,2.220241 -0.0445,4.59568 -0.86608,6.738226 -0.64678,1.686775 -2.63067,1.918074 -4.23314,2.221859 -1.14233,0.216555 -2.39402,-0.376707 -3.40446,0.419916 -2.37855,1.875235 -3.19211,4.972926 -3.69445,7.821413 -0.78027,4.424511 -0.45292,8.99515 -1.48276,13.37146 -0.33854,1.43863 -0.88666,3.35459 -2.52114,3.66832 -1.04375,0.20034 -2.09648,-0.0406 -3.11227,-0.26217 -1.4315,-0.31218 -1.95368,-1.89746 -1.8888,-3.20931 0.16348,-3.30534 1.46118,-6.40855 2.47278,-9.519455 0.67071,-2.062599 1.239,-4.163703 1.36271,-6.362578 0.27873,-4.954243 -1.80992,-9.990671 -5.66851,-13.190456 -3.82479,-3.171752 -9.247197,-4.156436 -13.963835,-2.69952 -1.188386,0.367079 -2.344076,0.826761 -3.358056,1.596186 -2.241855,1.701156 -4.453278,3.940617 -4.807363,6.864148 -0.375446,3.099904 0.55876,6.157422 0.855658,9.223969 0.133659,1.380515 0.588718,2.789269 0.353795,4.159385 -0.681045,3.971991 -2.295731,7.694601 -3.572072,11.496001 -1.593684,4.74656 -3.095022,9.70345 -2.718498,14.77452 0.256799,3.4586 2.271644,6.4077 4.572696,9.02721 2.854881,3.24999 7.073526,4.68045 10.98296,6.24875 2.108199,0.84572 4.579305,1.5769 5.835215,3.60501 1.15911,1.8718 1.83478,6.57012 -0.16892,6.11776 -5.086664,-1.14839 -10.525417,-0.2581 -15.187365,1.9945 -4.342544,2.09827 -7.560954,5.8811 -10.049839,10.0072 -1.905997,3.15978 -3.053631,6.69453 -3.925459,10.26456 -0.574202,2.35129 -1.104994,4.71292 -1.66918,7.06661" /></g></svg>