<?xml version="1.0" encoding="UTF-8" standalone="no"?>
<svg
   xmlns:dc="http://purl.org/dc/elements/1.1/"
   xmlns:cc="http://creativecommons.org/ns#"
   xmlns:rdf="http://www.w3.org/1999/02/22-rdf-syntax-ns#"
   xmlns:svg="http://www.w3.org/2000/svg"
   xmlns="http://www.w3.org/2000/svg"
   viewBox="0 0 412.58801 307.54266"
   height="307.54266"
   width="412.58801"
   xml:space="preserve"
   id="svg834"
   version="1.1"><metadata
     id="metadata840"><rdf:RDF><cc:Work
         rdf:about=""><dc:format>image/svg+xml</dc:format><dc:type
           rdf:resource="http://purl.org/dc/dcmitype/StillImage" /><dc:title></dc:title></cc:Work></rdf:RDF></metadata><defs
     id="defs838"><pattern
       id="pattern860"
       height="4.98138"
       width="4.98138"
       y="0"
       x="0"
       patternUnits="userSpaceOnUse"
       patternTransform="translate(-167.508,-115.329)"><g
         id="g858"><path
           id="path856"
           style="fill:none;stroke:#808080;stroke-opacity:1;stroke-width:0.3985;stroke-linecap:butt;stroke-linejoin:miter;stroke-miterlimit:10;stroke-dasharray:none"
           d="M 0,2.98883 3.08846,-0.09962" /></g></pattern></defs><g
     transform="matrix(1.3333333,0,0,-1.3333333,0,307.54267)"
     id="g842"><path
       d="m 81.122042,189.01436 c 1.858225,-6.30975 3.092333,-12.91191 6.342193,-18.709 2.017164,-3.59821 4.951248,-6.97962 8.879636,-8.39369 3.324182,-1.19658 6.884559,-0.37392 10.273479,0.0188 2.59634,0.30087 5.51471,0.36031 7.69215,-1.31618 2.04462,-1.57423 3.10968,-4.04679 3.89251,-6.42047 1.52188,-4.61461 1.88363,-9.81039 0.0731,-14.40209 -1.14062,-2.89281 -3.46196,-5.21591 -6.27026,-6.56111 -4.53302,-2.17135 -9.4942,-3.67526 -13.406333,-6.95906 -2.049041,-1.71994 -3.774879,-4.35722 -3.277063,-7.05221 0.178509,-0.96638 0.43627,-1.93714 0.628461,-2.90951 0.179502,-0.90817 1.156878,-1.24089 1.999675,-0.99555 2.40917,0.70132 4.53265,2.10017 6.66063,3.38759 2.17042,1.3131 4.39435,2.60924 6.91761,3.16702 2.68635,0.59383 5.52197,0.36048 8.13908,1.28905 1.55143,0.55046 2.48983,1.97599 3.27479,3.39059 1.7343,3.12541 4.80847,5.40887 8.26066,6.30347 4.81129,1.2468 9.94119,0.2887 14.43875,-1.66303 1.46085,-0.63394 2.73971,-1.61435 4.15937,-2.32153 1.7812,-0.88727 4.06052,-1.56967 5.87523,-0.45195 1.83944,1.13295 2.34043,3.51337 2.17324,5.52929 -0.25233,3.04249 -2.44718,5.34593 -4.60437,7.5711 -1.9698,2.03187 -3.06685,4.76153 -3.71678,7.46996 -0.93921,3.91392 -0.88621,8.36532 1.4148,11.81723 0.86683,1.30039 2.09869,2.28336 3.439,3.09625 2.67675,1.62344 5.69025,3.15361 7.28798,5.94112 0.87451,1.52573 1.42741,3.24567 1.67063,4.98341 0.18045,1.28928 -0.13566,2.56459 -0.43632,3.81204 -0.24491,1.01613 0.38771,2.05741 1.36575,2.3998 2.0426,0.71506 4.27366,0.49436 6.35094,0.10624 1.08535,-0.20279 2.25025,-0.22563 3.2454,-0.70149 2.8676,-1.37121 6.00294,-2.52255 9.22978,-2.21721 2.01138,0.19033 4.05729,-0.13236 5.89279,-1.01651 3.16979,-1.52687 5.17725,-4.59261 8.13662,-6.4178 2.20908,-1.36245 4.84927,-1.70876 7.41645,-1.66362 5.03902,0.0886 9.99827,1.86342 14.00769,4.90115 3.42239,2.59297 6.32189,6.01307 7.86042,10.06606 0.5714,1.50526 0.59621,3.12611 0.48194,4.72195 -0.34567,4.82765 -1.70309,9.49893 -3.16639,14.09152 -1.0601,3.32715 -2.15617,6.88995 -1.29209,10.39914 0.0711,0.28875 0.15365,0.57466 0.2468,0.85706"
       id="path1941"
       style="fill:none;stroke:#000000;stroke-width:0.75px;stroke-linecap:butt;stroke-linejoin:miter;stroke-opacity:1" /><path
       d="m 233.0015,207.75066 c 1.09121,-7.8313 2.48379,-15.74404 1.71451,-23.66992 -0.31296,-3.22443 -0.84955,-6.47465 -2.07462,-9.48318 -1.86373,-4.57696 -5.97337,-7.73531 -10.44476,-9.89013 -3.31076,-1.5955 -6.8445,-2.77138 -10.50514,-3.20512 -2.91323,-0.34518 -5.85454,-0.46942 -8.78533,-0.40914 -3.65546,0.0752 -7.48962,0.62732 -10.56824,2.76328 -1.39869,0.97042 -2.38382,2.37955 -3.3884,3.73837 -1.06747,1.44388 -2.72896,2.66789 -4.58407,2.53919 -0.96679,-0.0671 -1.93402,-0.18939 -2.90633,-0.0523 -2.46589,0.34761 -5.5581,3.04535 -7.35255,1.30828 -1.23236,-1.19295 -1.22375,-3.01715 -1.26766,-4.60956 -0.0425,-1.54144 -0.1451,-3.25596 -1.34321,-4.41677 -0.46862,-0.45403 -1.15793,-0.55144 -1.67065,-0.91201 -2.54808,-1.79194 -5.57488,-3.04117 -7.56265,-5.52057 -0.92946,-1.15934 -1.72836,-2.67471 -1.44913,-4.15297 0.321,-1.69941 1.78051,-2.83061 3.17651,-3.68338 1.93009,-1.17903 3.78352,-2.43137 5.45347,-4.08555 1.41358,-1.40023 2.56575,-3.0782 3.30583,-4.93595 1.42147,-3.56816 1.5827,-7.90795 -0.47309,-11.20845 -0.67199,-1.07886 -1.36138,-2.25649 -1.42049,-3.54273 -0.053,-1.15407 1.2532,-0.32285 1.69494,0.0766 3.36282,3.04089 6.69388,6.1729 10.58009,8.55635 1.90938,1.17104 4.02065,1.93894 6.10995,2.73847 3.33156,1.27491 7.03457,2.03507 10.5715,1.1868 2.18619,-0.52432 4.05978,-1.92093 5.45852,-3.66646 3.10951,-3.88045 4.40125,-8.91773 4.49485,-13.86601 0.0368,-1.94595 0.26056,-3.88859 0.19332,-5.84012 -0.03,-0.8698 0.79189,-1.34448 1.58578,-0.82881 1.87673,1.21903 3.14535,3.12238 4.96905,4.42079 2.52899,1.80055 5.63924,2.39189 8.63916,2.90361 2.12267,0.36208 5.80175,-0.46453 6.24082,1.65467 0.78634,3.7953 0.52935,7.6945 0.6357,11.5431 0.0998,3.61143 0.42488,7.33953 2.06042,10.63353 0.53449,1.07647 1.33421,1.97438 2.14613,2.85237 4.62699,5.00348 9.24375,10.08328 14.60622,14.30432 4.91078,3.8655 8.84148,8.85124 13.99058,12.43107"
       id="path1948"
       style="fill:none;stroke:#000000;stroke-width:0.75px;stroke-linecap:butt;stroke-linejoin:miter;stroke-opacity:1" /><path
       d="m 172.38904,2.1920894 c -0.0461,8.7730296 0.8067,17.7347346 4.15076,25.9198126 1.14906,2.81249 3.87492,4.971473 4.38558,7.96849 1.17117,6.873499 -0.50704,13.875092 -3.17896,20.20686 -1.26307,2.993153 -3.62954,5.546871 -4.34932,8.713352 -1.34256,5.906265 -5.19478,10.729925 -8.27628,15.800832 -1.93431,3.183093 -3.2288,6.707704 -3.98944,10.386822 -0.29628,1.433077 -0.82146,3.003311 -0.26459,4.409243 0.47494,1.199085 1.96908,0.701693 2.80904,0.227411 2.90099,-1.638032 5.29154,-4.005973 7.75105,-6.22055 1.9792,-1.782098 3.78187,-3.796941 6.00035,-5.282928 7.05125,-4.723089 16.52553,-4.98741 24.16788,-1.331179 1.1914,0.569986 2.25557,1.330269 3.12434,2.353032 2.98997,3.519941 4.26225,8.767262 2.3645,13.075736 -0.56013,1.271666 -3.99122,2.669927 -2.66731,3.140317 1.792,0.6367 3.46448,1.74418 5.45725,1.73982 1.3995,-0.003 2.68296,-0.71705 4.11389,-0.54691 2.51341,0.29885 4.53144,2.04926 6.10374,3.96759 1.48427,1.81093 3.01427,3.96451 5.36197,4.5739 2.32221,0.60277 4.68837,0.45688 7.08854,0.52197 2.57367,0.0698 5.18094,1.27917 6.5517,3.53025 1.887,3.09884 2.01982,6.85607 2.18323,10.38197 0.16473,3.55449 -0.17284,7.20862 0.85563,10.66414 1.35166,4.54138 4.69886,8.11348 8.16817,11.1867 4.20053,3.72096 8.74667,7.0688 12.4484,11.351 1.80709,2.09046 3.91149,4.0073 6.46957,5.1254"
       id="path2009"
       style="fill:none;stroke:#000000;stroke-width:0.75px;stroke-linecap:butt;stroke-linejoin:miter;stroke-opacity:1" /><path
       d="m 161.97368,2.4336689 c 0.44617,7.6226191 0.15317,15.3742201 1.96375,22.8349011 0.58903,2.427156 1.05727,5.107357 2.74307,6.973038 2.6599,2.943719 4.57157,6.746744 4.5168,10.793725 -0.0686,5.06958 -2.40514,9.707375 -4.5707,14.154093 -0.84708,1.739374 -1.32967,3.877121 -3.10774,4.941472 -2.19516,1.314017 -4.8897,0.89144 -7.2804,0.515134 -4.04247,-0.636301 -8.31642,-1.63354 -12.30737,-0.19536 -2.32548,0.83801 -4.16369,2.562466 -5.93048,4.22155 -2.62999,2.469656 -5.16623,5.376277 -5.94561,9.000724 -0.47743,2.220241 -0.0445,4.59568 -0.86608,6.738226 -0.64678,1.686775 -2.63067,1.918074 -4.23314,2.221859 -1.14233,0.216555 -2.39402,-0.376707 -3.40446,0.419916 -2.37855,1.875235 -3.19211,4.972926 -3.69445,7.821413 -0.78027,4.424511 -0.45292,8.99515 -1.48276,13.37146 -0.33854,1.43863 -0.88666,3.35459 -2.52114,3.66832 -1.04375,0.20034 -2.09648,-0.0406 -3.11227,-0.26217 -1.4315,-0.31218 -1.95368,-1.89746 -1.8888,-3.20931 0.16348,-3.30534 1.46118,-6.40855 2.47278,-9.519455 0.67071,-2.062599 1.239,-4.163703 1.36271,-6.362578 0.27873,-4.954243 -1.80992,-9.990671 -5.66851,-13.190456 -3.82479,-3.171752 -9.247197,-4.156436 -13.963835,-2.69952 -1.188386,0.367079 -2.344076,0.826761 -3.358056,1.596186 -2.241855,1.701156 -4.453278,3.940617 -4.807363,6.864148 -0.375446,3.099904 0.55876,6.157422 0.855658,9.223969 0.133659,1.380515 0.588718,2.789269 0.353795,4.159385 -0.681045,3.971991 -2.295731,7.694601 -3.572072,11.496001 -1.593684,4.74656 -3.095022,9.70345 -2.718498,14.77452 0.256799,3.4586 2.271644,6.4077 4.572696,9.02721 2.854881,3.24999 7.073526,4.68045 10.98296,6.24875 2.108199,0.84572 4.579305,1.5769 5.835215,3.60501 1.15911,1.8718 1.83478,6.57012 -0.16892,6.11776 -5.086664,-1.14839 -10.525417,-0.2581 -15.187365,1.9945 -4.342544,2.09827 -7.560954,5.8811 -10.049839,10.0072 -1.905997,3.15978 -3.053631,6.69453 -3.925459,10.26456 -0.574202,2.35129 -1.104994,4.71292 -1.66918,7.06661"
       id="path2016"
       style="fill:none;stroke:#000000;stroke-width:0.75px;stroke-linecap:butt;stroke-linejoin:miter;stroke-opacity:1" /></g></svg>