<?xml version="1.0" encoding="UTF-8" standalone="no"?>
<svg
   xmlns:dc="http://purl.org/dc/elements/1.1/"
   xmlns:cc="http://creativecommons.org/ns#"
   xmlns:rdf="http://www.w3.org/1999/02/22-rdf-syntax-ns#"
   xmlns:svg="http://www.w3.org/2000/svg"
   xmlns="http://www.w3.org/2000/svg"
   viewBox="0 0 322.03601 322.32401"
   height="322.32401"
   width="322.03601"
   xml:space="preserve"
   id="svg3969"
   version="1.1"><metadata
     id="metadata3975"><rdf:RDF><cc:Work
         rdf:about=""><dc:format>image/svg+xml</dc:format><dc:type
           rdf:resource="http://purl.org/dc/dcmitype/StillImage" /><dc:title></dc:title></cc:Work></rdf:RDF></metadata><defs
     id="defs3973" /><g
     transform="matrix(1.3333333,0,0,-1.3333333,0,322.324)"
     id="g3977"><path
       id="path4235"
       d="m 120.59829,223.81305 c -8.99139,-7.36336 -22.013063,-12.43909 -24.8521,-24.93851 -2.632034,-10.31657 5.8933,-18.99298 14.78005,-22.51128 9.22963,-4.40649 16.66514,-15.54776 11.41699,-25.61018 -3.58415,-9.10824 -18.60514,-8.71326 -14.86725,-19.85682 3.63384,-8.35562 15.04184,-10.09951 22.72432,-6.62083 17.36329,6.71202 25.72469,27.74066 44.99534,30.65569 10.53725,1.90711 18.31076,-8.4615 19.98679,-17.79122 1.27081,-8.76514 4.01457,-19.53264 -3.55927,-26.35589 -4.77828,-5.78522 -17.7935,-7.15289 -15.61116,-16.72755 4.1155,-7.315076 18.15152,-9.878812 14.07587,-20.677566 -4.01616,-12.103951 -19.00359,-14.740883 -30.04413,-12.448513 -15.7,2.770332 -24.10036,17.64641 -35.20946,27.384712 -6.08209,5.37479 -14.70143,11.035147 -23.04465,8.123645 C 91.810952,90.657675 93.749941,77.691952 96.490664,68.565818 101.93223,51.102241 118.76065,37.51133 120.90568,27.175352"
       style="fill:none;stroke:#000000;stroke-width:0.75px;stroke-linecap:butt;stroke-linejoin:miter;stroke-opacity:1" /><path
       id="path4248"
       d="m 7.37676,120.871 c 7.022202,2.56377 17.336656,4.95827 22.190918,-2.5669 7.072738,-14.3626 -0.480472,-30.152129 4.058853,-45.716434 1.34105,-7.965448 13.879142,-7.922703 19.734211,-8.422137 8.605589,0.0062 7.994825,-7.871466 5.336177,-13.455657 -3.277472,-9.563513 3.884284,-16.289277 9.256234,-22.322226 5.583416,-4.990857 15.703282,-9.890444 23.620933,-7.398357 6.684387,2.554576 5.837267,10.630641 3.666291,16.231734 -1.672934,7.197521 -8.517172,12.587907 -11.634352,19.453404 -3.885593,6.279673 -5.412616,13.610096 -5.434726,20.902664 -0.876975,6.191023 -5.982592,13.132098 -1.361238,18.944819 4.754719,4.33138 13.122411,4.34165 15.650148,11.36034 3.050456,9.41619 -8.408227,13.302 -15.793976,12.87108 -7.300938,0.37002 -15.200364,-0.70034 -18.805168,-8.01777 -3.83942,-7.53555 -10.4442,4.27303 -13.296852,8.28218 -3.631062,5.58802 -5.686306,14.6659 0.846644,19.04203 7.543064,5.90714 18.126109,4.96907 27.487409,0.3617 8.319612,-3.87958 13.537175,-11.87051 19.846385,-18.16041 5.409894,-6.91087 13.199329,-11.49178 21.226089,-14.74991 12.32982,-3.96084 20.7885,-0.25738 30.71698,-3.35642 7.99762,-2.02989 16.04463,-13.050398 24.6207,-11.08032"
       style="fill:none;stroke:#000000;stroke-width:0.75px;stroke-linecap:butt;stroke-linejoin:miter;stroke-opacity:1" /><path
       id="path4250"
       d="m 181.2596,95.971616 c 5.14155,2.161653 12.63625,6.947284 18.29406,8.517534 4.47398,0.63808 10.03007,-1.4019 13.77082,1.18146 4.50662,3.26353 8.22448,7.43256 12.51037,10.95861 2.23103,2.28699 5.12881,4.54361 8.52336,4.17276 l -0.10883,0.0363 -0.0981,0.0327"
       style="fill:none;stroke:#000000;stroke-width:0.75px;stroke-linecap:butt;stroke-linejoin:miter;stroke-opacity:1" /></g></svg>